<svg width="135" height="126" viewBox="0 0 135 126" fill="none" xmlns="http://www.w3.org/2000/svg">
<circle opacity="0.1" cx="52.5" cy="52.6287" r="52.5" fill="#325BC1"/>
<circle opacity="0.1" cx="52.5" cy="72.6287" r="52.5" fill="#325BC1"/>
<circle opacity="0.1" cx="82.5" cy="72.6287" r="52.5" fill="#325BC1"/>
<circle opacity="0.1" cx="82.5" cy="52.6287" r="52.5" fill="#325BC1"/>
<circle cx="72.5" cy="62.6287" r="52.5" fill="#325BC1"/>
<path d="M52.648 65.8353L52.1119 63.1271C52.0612 62.8705 52.1157 62.6415 52.2741 62.4461C52.4356 62.2473 52.6712 62.1286 52.9047 62.1286C52.9932 62.1286 53.0826 62.1442 53.1779 62.1763L55.5406 62.972M92.352 65.8353L92.8881 63.1271C92.9388 62.8705 92.8843 62.6415 92.7259 62.4461C92.5644 62.2473 92.3288 62.1286 92.0953 62.1286C92.0068 62.1286 91.9174 62.1442 91.8221 62.1763L89.4594 62.972M75.5931 65.2536V68.9885C75.5931 70.3776 74.4785 71.5036 73.1037 71.5036H71.8964M79.0613 76.5703C75.4376 80.2315 69.5625 80.2315 65.9388 76.5703M60.1703 81.5173C63.1945 84.968 67.6102 87.1287 72.5 87.1287C81.1929 87.1287 88.3875 80.2998 88.9297 71.5341L89.9004 55.8422C89.9322 55.3292 89.9419 54.8202 89.9305 54.3162H55.0695C55.058 54.8202 55.0678 55.3292 55.0995 55.8422L56.0702 71.5341C56.2301 74.1185 56.9683 76.5346 58.1526 78.6569M67.0895 39.8931C66.2511 41.0347 65.7574 42.4445 65.7614 43.9553C65.7657 45.6006 66.3477 47.1089 67.3133 48.2836C67.6125 48.6476 67.8625 49.0502 68.0364 49.4896L68.3345 50.2426C68.5614 50.8155 69.1106 51.1912 69.7213 51.1912H75.2785C75.8893 51.1912 76.4384 50.8155 76.6653 50.2426L76.9433 49.5404C77.1176 49.1 77.3522 48.6846 77.6547 48.322C78.7257 47.0383 79.3354 45.3489 79.2258 43.5147C79.0196 40.0624 76.2275 37.2908 72.8079 37.1357C71.7538 37.0879 70.7522 37.2869 69.8524 37.6785M75.593 51.1912V52.5C75.593 53.503 74.7881 54.3162 73.7954 54.3162H71.2045C70.2118 54.3162 69.4069 53.503 69.4069 52.5V51.1912M72.5 41.8162V44.9412M93.4077 70.9831C94.2562 70.1541 94.8665 69.0677 95.1116 67.8289L95.9211 63.7401C96.5107 60.7619 93.6958 58.2513 90.844 59.2118L89.6675 59.608M88.8197 72.6813H89.2532C89.6269 72.6813 89.9937 72.6463 90.3504 72.5792M55.3325 59.608L54.156 59.2118C51.3042 58.2513 48.4893 60.7619 49.0789 63.7401L49.8884 67.8289C50.4469 70.6503 52.8989 72.6813 55.7468 72.6813H56.1803M87.9651 47.2848H86.4186C85.5645 47.2848 84.8722 46.5852 84.8722 45.7224C84.8722 44.8594 85.5646 44.1599 86.4186 44.1599H87.9651C88.8193 44.1599 89.5116 44.8595 89.5116 45.7224C89.5116 46.5852 88.8192 47.2848 87.9651 47.2848ZM85.5126 39.796L84.4191 40.9008C83.8152 41.511 82.836 41.511 82.232 40.9008C81.628 40.2907 81.628 39.3013 82.232 38.6912L83.3255 37.5864C83.9294 36.9762 84.9086 36.9762 85.5125 37.5864C86.1166 38.1965 86.1166 39.1859 85.5126 39.796ZM85.5126 51.6486L84.4191 50.5438C83.8152 49.9336 82.836 49.9336 82.232 50.5438C81.628 51.1539 81.628 52.1433 82.232 52.7534L83.3255 53.8583C83.9294 54.4684 84.9086 54.4684 85.5125 53.8583C86.1166 53.2481 86.1166 52.2588 85.5126 51.6486ZM57.0349 47.2848H58.5814C59.4355 47.2848 60.1278 46.5852 60.1278 45.7224C60.1278 44.8594 59.4354 44.1599 58.5814 44.1599H57.0349C56.1807 44.1599 55.4884 44.8595 55.4884 45.7224C55.4884 46.5852 56.1808 47.2848 57.0349 47.2848ZM59.4874 39.796L60.5809 40.9008C61.1848 41.511 62.164 41.511 62.7679 40.9008C63.3719 40.2907 63.3719 39.3013 62.7679 38.6912L61.6744 37.5864C61.0705 36.9762 60.0913 36.9762 59.4874 37.5864C58.8834 38.1965 58.8834 39.1859 59.4874 39.796ZM59.4874 51.6486L60.5809 50.5438C61.1848 49.9336 62.164 49.9336 62.7679 50.5438C63.3719 51.1539 63.3719 52.1433 62.7679 52.7534L61.6744 53.8583C61.0705 54.4684 60.0913 54.4684 59.4874 53.8583C58.8834 53.2481 58.8834 52.2588 59.4874 51.6486Z" stroke="white" stroke-miterlimit="10" stroke-linecap="round" stroke-linejoin="round"/>
</svg>
