<svg width="135" height="126" viewBox="0 0 135 126" fill="none" xmlns="http://www.w3.org/2000/svg">
<circle opacity="0.1" cx="52.5" cy="52.6287" r="52.5" fill="#325BC1"/>
<circle opacity="0.1" cx="52.5" cy="72.6287" r="52.5" fill="#325BC1"/>
<circle opacity="0.1" cx="82.5" cy="72.6287" r="52.5" fill="#325BC1"/>
<circle opacity="0.1" cx="82.5" cy="52.6287" r="52.5" fill="#325BC1"/>
<circle cx="72.5" cy="62.6287" r="52.5" fill="#325BC1"/>
<path d="M52.2872 44.5928C52.4497 44.7562 52.6631 44.837 52.8764 44.837C53.0897 44.837 53.303 44.7561 53.4655 44.5928C53.7914 44.2678 53.7914 43.7395 53.4655 43.4145L51.1081 41.0578C50.7822 40.7319 50.2548 40.7319 49.9298 41.0578C49.6041 41.3828 49.6041 41.9111 49.9298 42.2361L52.2872 44.5928Z" fill="white"/>
<path d="M61.1252 44.8378C61.3386 44.8378 61.5518 44.7561 61.7143 44.5936L64.0708 42.2361C64.3966 41.9102 64.3966 41.3828 64.0708 41.0578C63.7459 40.7319 63.2183 40.7319 62.8926 41.0578L60.536 43.4153C60.2102 43.7403 60.2102 44.2686 60.536 44.5936C60.6984 44.7561 60.9118 44.8378 61.1252 44.8378Z" fill="white"/>
<path d="M57.0004 43.1287C57.4603 43.1287 57.8336 42.7553 57.8336 42.2954V38.962C57.8336 38.502 57.4603 38.1287 57.0004 38.1287C56.5404 38.1287 56.1671 38.502 56.1671 38.962V42.2953C56.167 42.7553 56.5403 43.1287 57.0004 43.1287Z" fill="white"/>
<path d="M52.0006 48.1287C52.0006 47.6687 51.6273 47.2954 51.1674 47.2954H47.8333C47.3733 47.2954 47 47.6687 47 48.1287C47 48.5887 47.3733 48.962 47.8333 48.962H51.1673C51.6273 48.962 52.0006 48.5887 52.0006 48.1287Z" fill="white"/>
<path d="M52.2864 51.6646L49.9291 54.022C49.6032 54.3479 49.6032 54.8753 49.9291 55.2003C50.0915 55.3636 50.3049 55.4445 50.5182 55.4445C50.7316 55.4445 50.9448 55.3636 51.1073 55.2003L53.4647 52.8428C53.7897 52.5178 53.7897 51.9902 53.4647 51.6645C53.1389 51.3387 52.6114 51.3387 52.2864 51.6646Z" fill="white"/>
<path d="M96.94 76.9846C96.0318 74.7221 95.8276 73.0695 95.6292 71.4721C95.3618 69.3178 95.0859 67.0895 93.1093 63.6654L87.6929 54.2828C86.8205 52.7729 84.6514 52.1895 83.1389 53.0628C82.6331 53.3553 82.2114 53.7937 81.9215 54.3178C81.3607 53.5103 80.5424 52.9336 79.5825 52.6761C78.5075 52.3877 77.3851 52.5369 76.421 53.0919C75.5044 53.6211 74.8652 54.4486 74.5544 55.3811C73.2511 54.3044 71.3612 54.0877 69.8138 54.9827C68.913 55.5028 68.2514 56.3219 67.9347 57.3052L60.7635 47.2195C58.6536 44.3436 56.5787 44.9287 55.5279 45.5361C54.5605 46.0944 53.9221 46.9836 53.7289 48.0411C53.5513 49.0136 53.7605 50.0803 54.3305 51.0652L65.8616 69.8012C66.1024 70.1929 66.6157 70.3153 67.0073 70.0745C67.3998 69.8328 67.5223 69.3203 67.2806 68.9287L55.7612 50.212C55.402 49.5887 55.2621 48.9245 55.3687 48.3395C55.4737 47.7637 55.817 47.2937 56.3612 46.9796C56.7361 46.7629 57.8761 46.1029 59.4127 48.1954L68.3322 60.7413C68.5898 61.1029 69.0864 61.1996 69.4622 60.9596C69.8363 60.7188 69.9555 60.2263 69.733 59.8412C69.3988 59.2629 69.3105 58.5896 69.483 57.9438C69.6554 57.2988 70.0696 56.7596 70.6471 56.4263C71.8412 55.7379 73.3745 56.1471 74.0627 57.3413L74.8927 58.7797C74.8943 58.7814 74.8952 58.783 74.896 58.7847C75.126 59.1838 75.636 59.3189 76.0343 59.0897C76.4326 58.8597 76.5692 58.3505 76.3393 57.9514C75.6501 56.7572 76.0601 55.2255 77.2543 54.5363C77.8318 54.2022 78.5092 54.1139 79.1509 54.2863C79.7966 54.4597 80.335 54.873 80.6683 55.4514L81.9157 57.6114C81.9165 57.613 81.9173 57.6147 81.9182 57.6163C82.149 58.0147 82.6582 58.1505 83.0573 57.9213C83.4556 57.6913 83.5922 57.1822 83.3623 56.7829C83.1514 56.4188 83.0989 55.9579 83.2189 55.5196C83.3389 55.0829 83.613 54.7137 83.9722 54.5062C84.7021 54.0845 85.8296 54.3878 86.2496 55.1161L91.6661 64.4987C93.4743 67.6296 93.7176 69.5962 93.9751 71.677C94.1668 73.2204 94.3635 74.8112 95.1342 76.9287L79.0134 86.2371C76.2052 83.2129 71.9128 80.0396 66.2415 76.797C65.6282 76.4461 65.0199 76.1069 64.4225 75.7812C62.8909 74.9462 61.8092 73.2861 61.7901 71.7453C61.7818 71.0453 62.0017 70.0778 63.0983 69.4453C63.4974 69.2144 63.6341 68.7045 63.4042 68.3061C63.1733 67.9078 62.6625 67.7712 62.2651 68.0011C60.8651 68.8103 60.1043 70.147 60.1244 71.7653C60.1494 73.9145 61.5568 76.1162 63.6251 77.2453C64.2125 77.5653 64.8108 77.8986 65.4141 78.2437C71.2438 81.577 75.5528 84.8078 78.221 87.8454C78.3835 88.0303 78.6135 88.1287 78.8469 88.1287C78.9893 88.1287 79.1335 88.092 79.2635 88.017L96.5835 78.017C96.9426 77.8096 97.0942 77.3696 96.94 76.9846Z" fill="white"/>
</svg>
