<svg width="135" height="126" viewBox="0 0 135 126" fill="none" xmlns="http://www.w3.org/2000/svg">
<circle opacity="0.1" cx="52.5" cy="52.6287" r="52.5" fill="#325BC1"/>
<circle opacity="0.1" cx="52.5" cy="72.6287" r="52.5" fill="#325BC1"/>
<circle opacity="0.1" cx="82.5" cy="72.6287" r="52.5" fill="#325BC1"/>
<circle opacity="0.1" cx="82.5" cy="52.6287" r="52.5" fill="#325BC1"/>
<circle cx="72.5" cy="62.6287" r="52.5" fill="#325BC1"/>
<path d="M46 83.9566V88.0623C46 88.6512 46.4774 89.1287 47.0664 89.1287H70.4608C70.9282 88.5132 71.6676 88.1156 72.5 88.1156C73.3324 88.1156 74.0718 88.5132 74.5392 89.1287H97.9336C98.5226 89.1287 99 88.6512 99 88.0623V54.6297C99 54.0409 98.5226 53.5633 97.9336 53.5633H96.1007M49.4816 53.5634H47.0664C46.4774 53.5634 46 54.0409 46 54.6298V79.0869M95.5184 58.5764V85.8141H49.4816V58.5764M72.5 85.4675C72.5 85.4675 63.8246 78.2888 49.4816 83.3347V52.5724C49.4816 52.5724 51.5542 51.5981 54.8135 50.8868M72.5 85.4675C72.5 85.4675 67.5039 74.263 54.8136 71.6043V39.2336C56.7706 39.6436 58.5447 40.2569 60.1457 41.0009M72.5 85.4675C72.5 85.4675 72.8359 71.1581 60.1455 68.4995V36.1287C72.8359 38.7874 72.5008 53.0968 72.5008 53.0968M72.5 85.4675L72.5008 53.0968M72.5 85.4675C72.5 85.4675 81.1754 78.2888 95.5184 83.3347V52.5724C95.5184 52.5724 94.3233 52.0107 92.321 51.4287M72.5008 53.0968L72.5016 85.4675C72.5016 85.4675 79.4679 78.0027 92.3209 78.0027V59.5361M72.5008 53.0968C72.5008 53.0968 79.4679 45.632 92.3209 45.632V54.6307" stroke="white" stroke-miterlimit="10" stroke-linecap="round" stroke-linejoin="round"/>
</svg>
