<svg width="70" height="71" viewBox="0 0 70 71" fill="none" xmlns="http://www.w3.org/2000/svg">
<rect y="0.128662" width="70" height="70" rx="35" fill="#325BC1"/>
<path d="M35 20.7913C39.6386 20.7913 40.2711 20.7913 42.1687 20.7913C43.8554 20.7913 44.6988 21.213 45.3313 21.4238C46.1747 21.8455 46.8072 22.0564 47.4398 22.6889C48.0723 23.3214 48.494 23.954 48.7048 24.7973C48.9157 25.4299 49.1265 26.2732 49.3374 27.96C49.3374 29.8576 49.3374 30.2793 49.3374 35.1287C49.3374 39.9781 49.3374 40.3997 49.3374 42.2973C49.3374 43.9841 48.9157 44.8275 48.7048 45.46C48.2831 46.3034 48.0723 46.9359 47.4398 47.5684C46.8072 48.201 46.1747 48.6226 45.3313 48.8335C44.6988 49.0443 43.8554 49.2552 42.1687 49.466C40.2711 49.466 39.8494 49.466 35 49.466C30.1506 49.466 29.7289 49.466 27.8313 49.466C26.1446 49.466 25.3012 49.0443 24.6687 48.8335C23.8253 48.4118 23.1928 48.201 22.5602 47.5684C21.9277 46.9359 21.506 46.3034 21.2952 45.46C21.0843 44.8275 20.8735 43.9841 20.6627 42.2973C20.6627 40.3997 20.6627 39.9781 20.6627 35.1287C20.6627 30.2793 20.6627 29.8576 20.6627 27.96C20.6627 26.2732 21.0843 25.4299 21.2952 24.7973C21.7169 23.954 21.9277 23.3214 22.5602 22.6889C23.1928 22.0564 23.8253 21.6347 24.6687 21.4238C25.3012 21.213 26.1446 21.0022 27.8313 20.7913C29.7289 20.7913 30.3614 20.7913 35 20.7913ZM35 17.6287C30.1506 17.6287 29.7289 17.6287 27.8313 17.6287C25.9337 17.6287 24.6687 18.0504 23.6145 18.472C22.5602 18.8937 21.506 19.5263 20.4518 20.5805C19.3976 21.6347 18.9759 22.4781 18.3434 23.7431C17.9217 24.7973 17.7108 26.0624 17.5 27.96C17.5 29.8576 17.5 30.4901 17.5 35.1287C17.5 39.9781 17.5 40.3997 17.5 42.2973C17.5 44.1949 17.9217 45.46 18.3434 46.5142C18.7651 47.5684 19.3976 48.6226 20.4518 49.6769C21.506 50.7311 22.3494 51.1528 23.6145 51.7853C24.6687 52.207 25.9337 52.4178 27.8313 52.6287C29.7289 52.6287 30.3614 52.6287 35 52.6287C39.6386 52.6287 40.2711 52.6287 42.1687 52.6287C44.0663 52.6287 45.3313 52.207 46.3855 51.7853C47.4398 51.3636 48.494 50.7311 49.5482 49.6769C50.6024 48.6226 51.0241 47.7793 51.6566 46.5142C52.0783 45.46 52.2892 44.1949 52.5 42.2973C52.5 40.3997 52.5 39.7672 52.5 35.1287C52.5 30.4901 52.5 29.8576 52.5 27.96C52.5 26.0624 52.0783 24.7973 51.6566 23.7431C51.2349 22.6889 50.6024 21.6347 49.5482 20.5805C48.494 19.5263 47.6506 19.1046 46.3855 18.472C45.3313 18.0504 44.0663 17.8395 42.1687 17.6287C40.2711 17.6287 39.8494 17.6287 35 17.6287Z" fill="white"/>
<path d="M35 26.0624C29.9398 26.0624 25.9337 30.0684 25.9337 35.1287C25.9337 40.1889 29.9398 44.1949 35 44.1949C40.0602 44.1949 44.0663 40.1889 44.0663 35.1287C44.0663 30.0684 40.0602 26.0624 35 26.0624ZM35 41.0323C31.8374 41.0323 29.0964 38.5022 29.0964 35.1287C29.0964 31.966 31.6265 29.225 35 29.225C38.1627 29.225 40.9036 31.7552 40.9036 35.1287C40.9036 38.2913 38.1627 41.0323 35 41.0323Z" fill="white"/>
<path d="M44.2771 27.96C45.4416 27.96 46.3855 27.016 46.3855 25.8516C46.3855 24.6871 45.4416 23.7431 44.2771 23.7431C43.1127 23.7431 42.1687 24.6871 42.1687 25.8516C42.1687 27.016 43.1127 27.96 44.2771 27.96Z" fill="white"/>
</svg>
