<svg width="70" height="71" viewBox="0 0 70 71" fill="none" xmlns="http://www.w3.org/2000/svg">
<rect y="0.128662" width="70" height="70" rx="35" fill="#325BC1"/>
<path d="M36.7194 47.3787C23.5654 47.3787 16.0626 38.182 15.75 22.8787H22.339C22.5554 34.1109 27.413 38.8687 31.2606 39.8496V22.8787H37.4649V32.5658C41.2644 32.1489 45.2562 27.7345 46.6029 22.8787H52.8072C52.2997 25.397 51.2882 27.7816 49.8358 29.883C48.3835 31.9845 46.5215 33.7578 44.3665 35.0919C46.772 36.3109 48.8967 38.0363 50.6004 40.1542C52.3041 42.2721 53.548 44.7345 54.25 47.3787H47.4205C46.7903 45.082 45.5094 43.0261 43.7384 41.4686C41.9674 39.9111 39.7851 38.9214 37.4649 38.6234V47.3787H36.7194Z" fill="white"/>
</svg>
