<svg width="70" height="71" viewBox="0 0 70 71" fill="none" xmlns="http://www.w3.org/2000/svg">
<rect y="0.128662" width="70" height="70" rx="35" fill="#325BC1"/>
<path fill-rule="evenodd" clip-rule="evenodd" d="M19.7094 47.4781C19.0229 47.275 18.3966 46.9137 17.8832 46.4247C17.3698 45.9356 16.9845 45.3332 16.7597 44.6683C15.4751 41.2316 15.0945 26.8808 17.5684 24.0478C18.3918 23.1262 19.5543 22.5588 20.8036 22.4687C27.4404 21.7721 47.9456 21.865 50.3006 22.701C50.963 22.9107 51.5681 23.2641 52.0707 23.7346C52.5733 24.2051 52.9603 24.7806 53.2027 25.4178C54.6062 28.9707 54.6538 41.8818 53.0124 45.2953C52.577 46.1838 51.8481 46.9036 50.9429 47.3388C48.4689 48.5463 22.9921 48.5231 19.7094 47.4781ZM30.2474 40.7439L42.1413 34.7064L30.2474 28.6224V40.7439Z" fill="white"/>
</svg>
