<svg width="29" height="30" viewBox="0 0 29 30" fill="none" xmlns="http://www.w3.org/2000/svg">
<path d="M21.501 -0.000244141C21.377 -0.000244141 9.50096 -0.000244141 9.50096 -0.000244141C7.38495 -0.000244141 5.50099 1.81946 5.50099 3.74978L4.34498 3.77508C2.22998 3.77508 0.500977 5.56944 0.500977 7.49976V26.2498C0.500977 28.1801 2.38498 29.9998 4.501 29.9998H19.501C21.617 29.9998 23.501 28.1801 23.501 26.2498H24.501C26.617 26.2498 28.501 24.4301 28.501 22.4998V7.52227L21.501 -0.000244141ZM19.501 28.1248H4.501C3.451 28.1248 2.50101 27.2052 2.50101 26.2498V7.49976C2.50101 6.54446 3.35602 5.65569 4.40602 5.65569L5.50099 5.62477V22.4998C5.50099 24.4301 7.38495 26.2498 9.50096 26.2498H21.501C21.501 27.2051 20.5509 28.1248 19.501 28.1248ZM26.501 22.4998C26.501 23.4551 25.551 24.3747 24.501 24.3747H9.50096C8.45096 24.3747 7.50098 23.4551 7.50098 22.4998V3.74978C7.50098 2.79448 8.45096 1.87479 9.50096 1.87479H19.501C19.4849 4.03385 19.501 5.64823 19.501 5.64823C19.501 7.59635 21.371 9.37479 23.501 9.37479C23.501 9.37479 24.563 9.37479 26.501 9.37479V22.4998ZM23.501 7.49976C22.436 7.49976 21.501 5.68572 21.501 4.71258C21.501 4.71258 21.501 3.72632 21.501 1.90383V1.90194L26.501 7.49976H23.501ZM21.501 13.1417H12.501C11.949 13.1417 11.501 13.5607 11.501 14.0782C11.501 14.5957 11.949 15.0148 12.501 15.0148H21.501C22.053 15.0148 22.501 14.5957 22.501 14.0782C22.501 13.5607 22.053 13.1417 21.501 13.1417ZM21.501 17.8245H12.501C11.949 17.8245 11.501 18.2435 11.501 18.761C11.501 19.2785 11.949 19.6976 12.501 19.6976H21.501C22.053 19.6976 22.501 19.2785 22.501 18.761C22.501 18.2435 22.053 17.8245 21.501 17.8245Z" fill="#325BC1"/>
</svg>
