<svg width="419" height="460" viewBox="0 0 419 460" fill="none" xmlns="http://www.w3.org/2000/svg">
<path d="M390.856 286.22C379.497 247.122 382.905 202.667 413.688 152.484C437.518 113.64 380.911 9.37788 249.084 65.9152C168.092 100.654 100.845 89.9864 49.1995 117.049C-2.44642 144.112 -19.3218 207.606 27.3404 244.849C74.0257 282.093 54.6005 324.623 51.3321 369.055C43.9144 469.723 234.805 476.054 291.18 439.808C376.924 384.662 419.02 383.178 390.856 286.22Z" fill="#4F76F6" fill-opacity="0.2"/>
<path d="M185.523 177.274L244.889 172.009V207.189L188.838 215.444L185.523 177.274Z" fill="#7D79E3"/>
<path d="M85.0364 200.44L110.465 167.302L101.958 76.1651C101.958 76.1651 100.567 61.6714 97.9711 60.5814C90.0202 57.2189 90.1593 67.9327 88.2585 69.8343C83.2284 74.8665 74.8834 79.6436 77.6651 91.0531C80.4467 102.463 82.9502 104.782 86.7981 118.951C86.7981 141.538 80.9567 176.903 85.0364 200.44Z" fill="#E6B17D"/>
<path d="M98.991 117.791C98.991 117.791 98.8056 128.946 100.567 136.227C102.329 143.532 102.978 163.615 100.567 172.009C108.031 164.542 110.465 160.229 110.465 160.229C110.465 160.229 105.041 127.531 98.991 117.791Z" fill="#B07C4A"/>
<path d="M88.2817 69.8343C88.7453 69.3705 89.3712 69.0922 90.0434 69.069C90.7156 69.069 91.3647 69.3009 91.8978 69.6719C92.0369 69.7647 92.176 69.8575 92.2919 69.9734C92.431 70.0662 92.5469 70.1821 92.6628 70.2981C92.7787 70.414 92.8946 70.53 93.0105 70.6459L93.335 71.017C93.4509 71.1329 93.5436 71.272 93.6363 71.4112L93.9377 71.8054C94.1232 72.0837 94.2854 72.362 94.4708 72.6403C94.6331 72.9185 94.7954 73.22 94.9576 73.4983C95.1199 73.7766 95.259 74.078 95.3981 74.3795C95.5603 74.681 95.6762 74.9593 95.8153 75.2607C95.9544 75.5622 96.0935 75.8637 96.2094 76.1651C96.4412 76.7681 96.6962 77.371 96.9048 77.9971L97.2293 78.9247L97.5307 79.8523C97.7393 80.4785 97.9015 81.1046 98.087 81.7307C98.2724 82.3569 98.4347 82.983 98.597 83.6091L99.0606 85.5107C99.1997 86.1368 99.3619 86.7862 99.4778 87.4123L99.8719 89.3139C99.9878 89.94 100.104 90.5893 100.243 91.2386C100.359 91.8648 100.475 92.5141 100.59 93.1634L100.915 95.0882L100.938 95.2737L100.822 95.3897C100.73 95.4592 100.637 95.552 100.544 95.6216C100.428 95.6911 100.335 95.7607 100.22 95.8071C99.9878 95.923 99.7096 95.9694 99.4546 95.9462C98.9215 95.8998 98.5042 95.6448 98.1334 95.3665C97.7856 95.0882 97.4611 94.7635 97.183 94.4157C96.9048 94.091 96.6498 93.7432 96.3948 93.3721C95.908 92.6532 95.4676 91.9343 95.0735 91.1691C94.6563 90.427 94.2622 89.6617 93.8913 88.8965C93.5205 88.1312 93.1496 87.3659 92.8019 86.6006C92.4542 85.8354 92.1064 85.0469 91.7819 84.2816L90.7852 81.9394C90.4606 81.151 90.1361 80.3625 89.8348 79.5741L92.0137 84.1657L93.1264 86.4383C93.4973 87.2036 93.8913 87.9457 94.2854 88.6877C94.6795 89.4298 95.0736 90.1719 95.514 90.8908C95.7226 91.2618 95.9312 91.6097 96.163 91.9575C96.3948 92.3054 96.6266 92.6532 96.8584 93.0011C97.0902 93.3489 97.3452 93.6736 97.6234 93.9751C97.8784 94.2765 98.1797 94.578 98.4811 94.8099C98.7824 95.0418 99.1301 95.2273 99.4546 95.2505C99.7792 95.2737 100.057 95.1114 100.335 94.8563L100.243 95.1578L99.9183 93.2562C99.8023 92.6301 99.6864 91.9807 99.5705 91.3546L99.1996 89.453L98.8056 87.5514C98.6897 86.9253 98.5274 86.2992 98.3883 85.6498L98.1797 84.6991L97.9479 83.7483C97.7857 83.1221 97.6466 82.496 97.4611 81.8699C97.2989 81.2437 97.1366 80.6176 96.928 80.0147L96.6498 79.0871L96.3485 78.1595C96.163 77.5333 95.9312 76.9536 95.6994 76.3275C95.5835 76.026 95.4676 75.7245 95.3517 75.4231C95.2358 75.1216 95.1199 74.8201 94.9808 74.5418C94.8417 74.2404 94.7258 73.9621 94.5636 73.6606C94.4245 73.3823 94.2622 73.0808 94.1232 72.8026C93.9609 72.5243 93.7986 72.246 93.6363 71.9909L93.3582 71.5967C93.2655 71.4576 93.1728 71.3416 93.08 71.2025L92.7787 70.8314C92.686 70.7155 92.5701 70.5995 92.4542 70.4836C92.3383 70.3676 92.2224 70.2517 92.1064 70.1589C91.9905 70.043 91.8747 69.9502 91.7356 69.8575C91.2256 69.4864 90.6229 69.2081 89.997 69.1849C89.3944 69.1618 88.7453 69.3936 88.2817 69.8343Z" fill="#B07C4A"/>
<path d="M91.0633 82.3337C91.0633 82.3337 90.6925 82.5888 90.1129 82.9366C89.8348 83.1221 89.4871 83.3077 89.1394 83.5164C88.9539 83.6323 88.7685 83.7251 88.583 83.841C88.3976 83.957 88.2122 84.0729 88.0267 84.1657C87.6326 84.3744 87.2617 84.6063 86.914 84.815C86.7518 84.931 86.5663 85.0237 86.4041 85.1165C86.2418 85.2324 86.1027 85.3252 85.9636 85.3948C85.6855 85.5803 85.4537 85.7194 85.2914 85.8354C85.1292 85.9513 85.0364 86.0209 85.0364 86.0209C85.0364 86.0209 85.106 85.9281 85.2219 85.789C85.2914 85.7194 85.3609 85.6267 85.4537 85.5339C85.5464 85.4411 85.6623 85.3252 85.7782 85.2092C85.8941 85.0933 86.0332 84.9773 86.1954 84.8614C86.3577 84.7454 86.4968 84.6063 86.6822 84.4903C86.8445 84.3744 87.0299 84.2353 87.2154 84.1193C87.4008 84.0034 87.5863 83.8874 87.7949 83.7715C87.9803 83.6555 88.189 83.5396 88.3744 83.4468C88.5599 83.3308 88.7685 83.2381 88.9539 83.1453C89.1394 83.0526 89.3248 82.983 89.5102 82.8902C89.6957 82.8207 89.858 82.7511 90.0202 82.6815C90.6229 82.4496 91.0633 82.3337 91.0633 82.3337Z" fill="#B07C4A"/>
<path d="M87.5167 84.1889C87.5167 84.1889 87.6095 84.3048 87.7717 84.5367C87.934 84.7686 88.189 85.0933 88.4903 85.5107C88.7917 85.9281 89.1625 86.4615 89.5566 87.0413C89.7652 87.3427 89.9739 87.6674 90.1825 87.992C90.4143 88.3399 90.6229 88.6877 90.8547 89.082C91.3415 89.8241 91.8051 90.6589 92.3383 91.5401C92.5932 91.9807 92.8482 92.4445 93.1032 92.9083C93.3582 93.3721 93.6364 93.8591 93.8682 94.3461C94.3549 95.3433 94.9113 96.3636 95.3981 97.4304C95.6531 97.9638 95.8849 98.4971 96.1398 99.0305C96.3717 99.5639 96.6035 100.12 96.8353 100.677C97.0671 101.234 97.2989 101.767 97.5075 102.323C97.7161 102.88 97.9247 103.437 98.1334 103.97C98.5738 105.06 98.8983 106.173 99.246 107.217C99.6169 108.26 99.8719 109.304 100.15 110.301C100.289 110.788 100.428 111.275 100.544 111.739C100.66 112.202 100.753 112.666 100.845 113.084C101.031 113.942 101.216 114.753 101.355 115.449C101.471 116.168 101.587 116.794 101.657 117.304C101.75 117.814 101.796 118.209 101.842 118.487C101.889 118.765 101.912 118.904 101.912 118.904C101.912 118.904 101.865 118.765 101.819 118.487C101.75 118.209 101.657 117.814 101.541 117.327C101.425 116.817 101.286 116.214 101.1 115.519C101.031 115.171 100.892 114.8 100.799 114.405C100.683 114.011 100.567 113.617 100.451 113.176C100.335 112.759 100.22 112.295 100.081 111.855C99.9414 111.391 99.7792 110.927 99.6401 110.44C99.3387 109.466 99.0374 108.446 98.6433 107.402C98.2724 106.359 97.9016 105.269 97.4843 104.202C97.2757 103.668 97.0671 103.112 96.8584 102.555C96.6498 101.999 96.3948 101.465 96.1862 100.932C95.9544 100.399 95.7226 99.8421 95.514 99.3088C95.2822 98.7754 95.0272 98.242 94.7954 97.7087C94.3318 96.6419 93.8218 95.6216 93.335 94.6244C93.1032 94.1142 92.8482 93.6504 92.5932 93.1634C92.3614 92.6996 92.1296 92.2126 91.8746 91.772C91.3879 90.8908 90.9474 90.0328 90.507 89.2443C90.0897 88.479 89.6725 87.7602 89.3248 87.134C88.9539 86.5079 88.6294 85.9745 88.3744 85.5339C88.0963 85.0933 87.8876 84.7454 87.7485 84.5135C87.6095 84.328 87.5167 84.1889 87.5167 84.1889Z" fill="#B07C4A"/>
<path d="M224.675 0.519288C246.465 1.35413 284.457 1.44689 305.737 4.69349C327.017 7.94009 347.415 0.983088 363.642 6.54869C379.868 12.1143 361.231 23.7093 359.191 35.3043C357.151 46.8993 356.896 97.871 353.906 117.374C349.479 146.292 374.166 175.279 370.225 184.184C366.261 193.089 281.838 172.195 212.181 179.129C142.524 186.063 137.447 198.145 105.435 191.837C105.435 177.181 106.478 147.173 101.773 131.357C97.0902 115.542 98.4811 103.437 98.4811 87.4587C98.4811 71.4808 98.4811 52.0011 89.6725 43.1889C80.864 34.3767 69.0188 25.5645 83.7615 19.9989C98.5042 14.4333 125.509 -3.2375 224.675 0.519288Z" fill="#6067A6"/>
<path d="M276.877 66.3094C276.877 66.3094 291.203 63.7585 306.479 68.5124C298.064 60.1408 283.414 62.0424 276.877 66.3094Z" fill="#5752CC"/>
<path d="M276.877 66.3094C286.381 64.0599 297.508 64.2918 306.479 68.5124C296.766 66.263 286.775 66.1238 276.877 66.3094Z" fill="#3B4266"/>
<path d="M126.298 36.7189C126.298 36.7189 147.253 41.6352 161.115 64.6861C161.115 55.7347 147.994 37.8784 126.298 36.7189Z" fill="#5752CC"/>
<path d="M126.298 36.7189C141.04 40.1278 153.998 51.5605 161.115 64.6861C152.097 52.6273 140.461 42.2381 126.298 36.7189Z" fill="#3B4266"/>
<path d="M172.357 114.637C172.357 114.637 154.578 104.758 130.006 109.93C141.133 103.97 158.286 100.561 172.357 114.637Z" fill="#5752CC"/>
<path d="M265.38 62.5062C265.38 62.5062 278.964 45.6934 309.423 39.0379C295.978 39.0379 272.798 44.6963 265.38 62.5062Z" fill="#5752CC"/>
<path d="M311.973 39.0379C298.134 41.5888 285.292 47.9197 273.354 55.1782C283.924 46.3196 297.948 39.4321 311.973 39.0379Z" fill="#3B4266"/>
<path d="M172.357 114.637C158.866 109.675 144.239 107.982 130.006 109.93C143.706 105.872 159.84 107.773 172.357 114.637Z" fill="#3B4266"/>
<path d="M152.491 68.5124C152.491 68.5124 159.191 99.4711 171.105 111.391C166.539 122.592 163.038 132.656 173.192 133.931C175.741 134.256 180.563 146.802 192.06 149.608C209.77 153.944 221.337 154.988 229.682 174.931C247.763 169.366 252.863 160.09 252.863 160.09C252.863 160.09 200.776 84.7454 152.491 68.5124Z" fill="#5752CC"/>
<path d="M105.366 161.806L194.726 181.1C194.726 181.1 186.891 153.829 160.141 146.825C124.211 137.41 107.637 156.542 105.366 161.806Z" fill="#5752CC"/>
<path d="M322.867 225.323C309.4 190.376 242.153 200.417 206.293 205.449C186.891 157.446 168.926 152.46 168.926 152.46C168.926 152.46 142.454 150.953 121.267 152.46C100.081 153.968 74.6516 200.301 64.9158 223.445C55.1801 246.589 76.7842 287.728 58.6803 336.728C57.4286 340.114 55.5278 345.262 53.372 351.129C52.5375 357.066 51.7957 363.026 51.3553 369.032C43.9376 469.7 234.828 476.031 291.203 439.785C376.924 384.639 419.02 383.178 390.855 286.197C386.637 271.634 384.458 256.328 384.968 240.258C354.37 245.429 322.867 225.323 322.867 225.323Z" fill="#5752CC"/>
<path d="M121.082 166.328C121.082 166.328 89.2089 208.835 100.567 254.728C111.926 300.621 116.191 410.82 217.443 443.379C174.049 438.834 120.271 410.936 104.717 310.895C91.1792 223.746 85.8477 213.891 110.187 179.013C113.038 174.908 117.164 171.221 121.082 166.328Z" fill="#3845AA"/>
<path d="M206.479 263.749C206.479 263.749 248.505 294.615 316.84 315.695C285.315 315.695 226.344 294.406 206.479 263.749Z" fill="#3845AA"/>
<path d="M154.578 314.118C154.578 314.118 241.62 401.73 333.994 384.105C263.526 408.223 180.841 357.993 154.578 314.118Z" fill="#3845AA"/>
<path d="M235.895 229.242C235.895 229.242 332.093 260.016 354.346 298.279C351.588 271.819 282.279 238.82 235.895 229.242Z" fill="#3845AA"/>
<path d="M68.8102 350.689C68.8102 350.689 73.9098 421.952 161.995 443.379C124.443 443.379 66.0285 407.69 68.8102 350.689Z" fill="#3845AA"/>
<path d="M163.757 161.273C163.757 161.273 183.53 174.56 189.163 200.44C189.163 183.883 177.897 168.23 163.757 161.273Z" fill="#3845AA"/>
<path d="M162.644 166.328C162.644 166.328 178.453 195.315 178.361 225.254C181.768 211.015 178.291 185.668 162.644 166.328Z" fill="#3845AA"/>
<path d="M165.866 173.03C165.866 173.03 159.793 181.888 138.815 187.454C138.815 222.239 163.757 308.297 163.757 308.297C163.757 308.297 261.208 206.006 281.838 209.948C266.539 225.254 255.598 240.49 232.788 267.228C222.195 279.658 185.523 320.101 154.554 314.118C136.798 310.686 114.128 244.78 114.128 165.609C135.477 158.768 165.866 173.03 165.866 173.03Z" fill="#3845AA"/>
<path d="M163.757 168.531C163.757 168.531 163.873 168.717 164.105 169.111C164.313 169.482 164.638 170.038 165.032 170.757C165.426 171.476 165.89 172.334 166.4 173.331C166.91 174.328 167.466 175.488 168.045 176.74C168.347 177.366 168.625 178.039 168.949 178.711C169.251 179.407 169.552 180.103 169.854 180.845C170.456 182.306 171.082 183.883 171.685 185.506C172.287 187.129 172.89 188.822 173.447 190.585C173.725 191.466 174.003 192.324 174.258 193.228C174.397 193.669 174.513 194.11 174.652 194.55L175.023 195.895C175.51 197.681 175.95 199.49 176.344 201.275C176.553 202.157 176.715 203.061 176.9 203.942C177.063 204.823 177.225 205.705 177.364 206.563C177.503 207.421 177.642 208.279 177.758 209.09C177.874 209.925 177.967 210.737 178.059 211.525C178.245 213.102 178.361 214.61 178.43 216.001C178.546 217.392 178.546 218.668 178.569 219.804C178.569 220.94 178.546 221.914 178.523 222.726C178.5 223.538 178.453 224.164 178.43 224.604C178.407 225.045 178.384 225.277 178.384 225.277C178.384 225.277 178.361 225.045 178.314 224.604C178.268 224.164 178.222 223.538 178.152 222.726C178.059 221.914 177.967 220.94 177.851 219.827C177.781 219.271 177.712 218.668 177.619 218.065C177.549 217.439 177.457 216.789 177.364 216.094C177.271 215.421 177.179 214.702 177.039 213.96C176.924 213.218 176.808 212.476 176.669 211.688C176.529 210.922 176.39 210.111 176.228 209.299C176.066 208.487 175.904 207.653 175.741 206.818C175.556 205.983 175.37 205.125 175.185 204.267C175.092 203.826 174.976 203.409 174.884 202.968C174.791 202.528 174.698 202.087 174.582 201.646C174.165 199.884 173.725 198.121 173.215 196.336L172.867 195.014C172.751 194.573 172.612 194.133 172.496 193.692C172.241 192.811 171.986 191.93 171.731 191.072C171.476 190.214 171.198 189.356 170.943 188.498C170.665 187.663 170.41 186.828 170.155 185.993C169.877 185.181 169.622 184.37 169.367 183.581C169.112 182.793 168.834 182.028 168.579 181.285C168.045 179.801 167.559 178.387 167.095 177.088C166.608 175.789 166.168 174.607 165.774 173.563C165.357 172.52 165.032 171.592 164.731 170.85C164.429 170.108 164.198 169.505 164.035 169.111C163.85 168.74 163.757 168.531 163.757 168.531Z" fill="#9DA3E1"/>
<path d="M116.562 172.009C116.562 172.009 115.588 172.891 113.942 174.7C112.297 176.532 109.979 179.291 107.406 183.048C107.081 183.535 106.756 183.999 106.432 184.509C106.107 185.019 105.783 185.529 105.435 186.063C105.111 186.596 104.786 187.153 104.438 187.732C104.091 188.289 103.766 188.892 103.442 189.495C102.097 191.907 100.776 194.573 99.5242 197.495C98.2724 200.417 97.1598 203.617 96.2094 207.05C95.259 210.482 94.5172 214.146 94.0304 218.019C93.5436 221.891 93.4046 225.973 93.59 230.17C93.59 230.425 93.6132 230.703 93.6132 230.959C93.6132 231.214 93.6364 231.492 93.6595 231.747C93.7059 232.28 93.7523 232.814 93.7986 233.347C93.845 233.88 93.8914 234.414 93.9377 234.947C93.9841 235.481 94.0768 236.014 94.1463 236.547C94.2159 237.081 94.2854 237.614 94.355 238.171C94.4013 238.449 94.4245 238.704 94.4709 238.982C94.5172 239.261 94.5636 239.539 94.6099 239.794C94.7722 240.884 94.9576 241.997 95.1431 243.11C96.5339 252.015 98.0175 261.384 99.5474 271.077C101.054 280.794 102.63 290.812 104.207 300.992C104.601 303.543 104.995 306.094 105.389 308.668C105.597 309.944 105.783 311.242 105.992 312.518L106.293 314.443C106.386 315.092 106.478 315.741 106.571 316.391C107.29 321.539 108.194 326.664 109.306 331.766C111.508 341.969 114.499 351.987 118.208 361.542C118.671 362.724 119.158 363.93 119.645 365.113C120.132 366.295 120.642 367.455 121.152 368.638C121.661 369.797 122.195 370.957 122.728 372.093C123.006 372.673 123.261 373.229 123.539 373.809C123.817 374.389 124.072 374.945 124.374 375.502C126.599 380.001 129.033 384.361 131.606 388.488C136.798 396.767 142.663 404.234 148.945 410.588C152.097 413.765 155.343 416.687 158.611 419.331C161.903 421.975 165.217 424.317 168.532 426.404C168.949 426.659 169.367 426.914 169.761 427.169C170.178 427.424 170.572 427.679 170.989 427.911C171.824 428.398 172.635 428.862 173.447 429.326C173.841 429.558 174.258 429.767 174.675 429.998C175.092 430.207 175.486 430.439 175.904 430.648C176.298 430.856 176.715 431.065 177.109 431.297C177.503 431.506 177.92 431.691 178.314 431.9C179.126 432.294 179.914 432.689 180.679 433.06C181.467 433.407 182.255 433.755 183.02 434.103C183.414 434.265 183.785 434.451 184.179 434.613C184.55 434.776 184.944 434.915 185.338 435.077C186.103 435.379 186.845 435.68 187.587 435.981C187.957 436.144 188.328 436.26 188.699 436.399C189.07 436.538 189.441 436.654 189.789 436.793C190.507 437.048 191.226 437.303 191.921 437.558C193.335 438.022 194.703 438.44 196.024 438.857C197.346 439.228 198.62 439.599 199.826 439.947C201.054 440.248 202.213 440.527 203.326 440.805C203.604 440.875 203.882 440.944 204.137 441.014C204.416 441.06 204.671 441.13 204.949 441.176C205.482 441.292 205.992 441.385 206.502 441.501C207.499 441.709 208.426 441.918 209.307 442.057C210.187 442.22 210.999 442.359 211.741 442.475C212.111 442.544 212.459 442.591 212.807 442.66C213.155 442.707 213.456 442.753 213.78 442.799C216.214 443.147 217.512 443.31 217.512 443.31C217.512 443.31 216.214 443.17 213.78 442.892C213.479 442.846 213.155 442.823 212.807 442.776C212.459 442.73 212.111 442.683 211.741 442.614C210.999 442.498 210.187 442.382 209.307 442.266C208.426 442.15 207.475 441.965 206.479 441.779C205.969 441.686 205.459 441.593 204.925 441.501C204.647 441.454 204.392 441.408 204.114 441.362C203.836 441.292 203.558 441.246 203.28 441.176C202.167 440.921 200.985 440.666 199.733 440.388C198.505 440.063 197.23 439.738 195.885 439.39C194.564 438.996 193.173 438.579 191.736 438.161C191.017 437.929 190.299 437.674 189.58 437.419C189.209 437.303 188.838 437.164 188.467 437.048C188.097 436.932 187.726 436.793 187.355 436.654C181.351 434.428 174.721 431.459 167.999 427.308C164.638 425.245 161.23 422.926 157.869 420.305C154.508 417.685 151.216 414.763 147.994 411.562C141.573 405.185 135.547 397.695 130.261 389.346C124.976 380.998 120.363 371.838 116.585 362.191C112.807 352.544 109.77 342.433 107.521 332.137C106.409 326.988 105.505 321.794 104.786 316.622C104.693 315.973 104.624 315.347 104.508 314.698L104.207 312.773C104.021 311.497 103.813 310.199 103.627 308.923C103.233 306.349 102.839 303.798 102.468 301.247C100.938 291.044 99.4315 281.003 97.9711 271.309C96.5339 261.593 95.1431 252.201 93.7986 243.296C93.6364 242.182 93.4741 241.069 93.3118 239.979C93.2655 239.701 93.2423 239.423 93.1959 239.168C93.1728 238.889 93.1264 238.611 93.1032 238.333C93.0337 237.776 92.9641 237.243 92.8946 236.686C92.8251 236.13 92.7555 235.597 92.7091 235.04C92.6628 234.483 92.6164 233.95 92.5932 233.417C92.5469 232.883 92.5237 232.327 92.4773 231.793C92.4542 231.515 92.4542 231.26 92.4542 230.982C92.4542 230.703 92.431 230.448 92.431 230.17C92.2919 225.903 92.5005 221.775 93.0337 217.856C94.1 209.995 96.3253 203.038 98.9215 197.171C100.243 194.249 101.61 191.582 103.024 189.193C103.372 188.59 103.72 188.011 104.068 187.454C104.415 186.897 104.763 186.341 105.111 185.808C105.458 185.274 105.806 184.764 106.154 184.254C106.478 183.744 106.849 183.28 107.174 182.816C109.839 179.082 112.25 176.392 113.942 174.607C115.565 172.868 116.562 172.009 116.562 172.009Z" fill="#9DA3E1"/>
<path d="M219.135 278.057C219.135 278.057 219.46 278.313 220.085 278.8C220.711 279.263 221.615 279.959 222.798 280.794C223.98 281.629 225.44 282.649 227.109 283.762C228.801 284.875 230.725 286.104 232.835 287.403C233.368 287.728 233.901 288.052 234.457 288.377C235.014 288.702 235.593 289.026 236.173 289.374C237.332 290.047 238.537 290.719 239.766 291.438C242.269 292.806 244.912 294.221 247.693 295.589C249.084 296.285 250.498 296.957 251.935 297.653C252.654 298.001 253.396 298.326 254.114 298.65C254.856 298.975 255.575 299.323 256.316 299.647C259.307 300.946 262.343 302.221 265.45 303.404C266.215 303.706 267.003 304.007 267.768 304.285C268.533 304.564 269.321 304.842 270.086 305.12C270.851 305.398 271.639 305.677 272.404 305.932C273.192 306.187 273.957 306.442 274.722 306.697C276.275 307.207 277.805 307.671 279.335 308.158C279.705 308.274 280.1 308.39 280.47 308.506C280.841 308.622 281.235 308.738 281.606 308.831C282.371 309.039 283.113 309.248 283.855 309.457C284.597 309.665 285.338 309.874 286.08 310.06C286.822 310.245 287.54 310.431 288.282 310.616C289.001 310.802 289.719 310.987 290.438 311.173C291.157 311.335 291.852 311.497 292.547 311.66C295.306 312.309 297.972 312.819 300.406 313.306C301.634 313.538 302.793 313.724 303.929 313.909C304.485 314.002 305.042 314.095 305.552 314.188C306.085 314.28 306.595 314.35 307.105 314.419C308.101 314.559 309.052 314.698 309.91 314.837C310.35 314.906 310.767 314.953 311.161 315.022C311.555 315.069 311.949 315.115 312.297 315.161C313.734 315.324 314.87 315.486 315.658 315.579C316.423 315.672 316.84 315.718 316.84 315.718C316.84 315.718 316.423 315.695 315.658 315.672C314.87 315.648 313.734 315.602 312.274 315.533C311.903 315.509 311.532 315.509 311.115 315.463C310.721 315.44 310.304 315.393 309.863 315.37C308.982 315.301 308.032 315.208 307.035 315.138C306.525 315.092 306.015 315.069 305.482 314.999C304.949 314.93 304.393 314.883 303.836 314.814C302.7 314.674 301.518 314.535 300.267 314.373C299.038 314.188 297.74 313.979 296.419 313.77C296.094 313.724 295.746 313.654 295.422 313.608C295.074 313.538 294.75 313.469 294.402 313.422C293.706 313.283 293.034 313.167 292.316 313.028C291.62 312.889 290.902 312.773 290.183 312.611C289.464 312.448 288.746 312.286 288.004 312.124C287.262 311.961 286.521 311.799 285.779 311.637C285.037 311.474 284.272 311.266 283.53 311.057C282.765 310.871 282 310.663 281.235 310.477C280.841 310.384 280.47 310.268 280.076 310.152C279.682 310.036 279.311 309.944 278.917 309.828C278.152 309.596 277.364 309.387 276.576 309.155C275.788 308.923 275.023 308.668 274.235 308.413C273.447 308.158 272.659 307.903 271.871 307.648C271.082 307.393 270.294 307.115 269.529 306.836C268.741 306.558 267.953 306.303 267.165 306.001C266.377 305.7 265.612 305.422 264.824 305.12C261.694 303.938 258.634 302.616 255.621 301.271C252.631 299.902 249.733 298.488 246.952 297.027C244.17 295.589 241.551 294.059 239.093 292.621C236.636 291.137 234.341 289.699 232.278 288.284C231.745 287.936 231.258 287.589 230.772 287.241C230.285 286.893 229.798 286.568 229.334 286.244C228.407 285.571 227.526 284.945 226.738 284.319C225.116 283.113 223.725 282 222.612 281.072C221.476 280.145 220.642 279.379 220.062 278.869C219.436 278.336 219.135 278.057 219.135 278.057Z" fill="#9DA3E1"/>
<path d="M190.415 352.242C190.415 352.242 190.901 352.59 191.805 353.24C192.733 353.866 194.077 354.793 195.839 355.93C197.577 357.066 199.733 358.411 202.213 359.918C204.694 361.426 207.545 363.049 210.674 364.765C213.804 366.481 217.234 368.267 220.92 370.075C224.582 371.884 228.523 373.647 232.626 375.386C236.729 377.125 241.041 378.748 245.445 380.302C249.849 381.856 254.416 383.224 259.005 384.43C263.595 385.636 268.231 386.68 272.844 387.468C273.424 387.561 274.003 387.653 274.559 387.746L275.417 387.885L276.275 388.001C277.411 388.164 278.546 388.349 279.682 388.488C280.239 388.558 280.818 388.628 281.374 388.697C281.931 388.767 282.51 388.813 283.067 388.883C283.623 388.952 284.179 388.999 284.736 389.068C285.292 389.114 285.848 389.161 286.405 389.207C290.832 389.555 295.144 389.694 299.223 389.648C303.303 389.578 307.151 389.323 310.698 388.975C311.579 388.859 312.459 388.767 313.294 388.651C313.503 388.627 313.711 388.604 313.92 388.581C314.128 388.558 314.337 388.512 314.546 388.488C314.963 388.419 315.357 388.372 315.774 388.303C317.397 388.094 318.904 387.793 320.318 387.538C321.036 387.398 321.708 387.259 322.381 387.12C322.705 387.051 323.03 386.981 323.354 386.911C323.679 386.842 323.98 386.772 324.281 386.703C325.51 386.401 326.623 386.169 327.643 385.891C328.639 385.613 329.543 385.381 330.331 385.172C331.12 384.963 331.769 384.755 332.302 384.592C333.368 384.268 333.948 384.105 333.948 384.105C333.948 384.105 333.391 384.314 332.325 384.685C331.792 384.871 331.143 385.126 330.378 385.381C329.613 385.636 328.709 385.914 327.712 386.239C326.715 386.564 325.603 386.865 324.374 387.213C323.771 387.398 323.122 387.538 322.473 387.7C321.801 387.862 321.129 388.048 320.41 388.21C317.559 388.859 314.337 389.509 310.767 389.996C309.886 390.112 308.959 390.228 308.032 390.344C307.8 390.367 307.568 390.39 307.337 390.436C307.105 390.459 306.873 390.483 306.618 390.506C306.154 390.552 305.668 390.599 305.181 390.645C304.207 390.761 303.234 390.807 302.237 390.877C301.727 390.9 301.24 390.946 300.73 390.97C300.22 390.993 299.71 391.016 299.2 391.016C295.074 391.178 290.716 391.132 286.219 390.831C285.663 390.784 285.083 390.761 284.527 390.715C283.971 390.668 283.391 390.622 282.835 390.552C282.255 390.506 281.699 390.459 281.12 390.39C280.54 390.32 279.984 390.251 279.404 390.204C277.109 389.949 274.791 389.601 272.45 389.23C267.791 388.465 263.085 387.422 258.449 386.216C253.813 384.987 249.223 383.572 244.773 381.995C242.547 381.23 240.345 380.372 238.213 379.537C237.146 379.12 236.08 378.679 235.014 378.238C233.971 377.798 232.927 377.357 231.884 376.893C227.758 375.085 223.864 373.206 220.201 371.305C219.297 370.841 218.393 370.354 217.512 369.89C216.632 369.426 215.774 368.939 214.916 368.475C213.224 367.525 211.601 366.597 210.048 365.693C208.495 364.788 207.035 363.884 205.644 363.026C204.253 362.144 202.955 361.31 201.75 360.521C199.316 358.921 197.23 357.46 195.537 356.231C193.845 355.002 192.547 354.005 191.643 353.309C190.878 352.613 190.415 352.242 190.415 352.242Z" fill="#9DA3E1"/>
<path d="M167.141 91.888C167.141 91.888 135.037 66.5181 162.598 45.6934C162.598 35.1884 167.234 28.8343 172.635 24.4282C194.147 6.78059 203.72 15.0362 224.675 15.0362C256.34 15.0362 267.837 22.2715 281.374 59.8857C293.846 94.5316 293.869 103.39 316.817 109.721C382.186 127.717 347.207 145.016 376.623 166.351C397.995 181.865 383.716 221.798 363.178 213.195C330.888 199.652 327.874 227.619 309.4 196.892C252.863 185.599 205.667 143.022 167.141 91.888Z" fill="#394042"/>
<path d="M183.878 55.1782C183.878 55.1782 196.766 82.5424 251.008 84.9078C232.58 86.4151 194.633 81.522 183.878 55.1782Z" fill="white"/>
<path d="M238.977 95.7143C238.977 95.7143 239.047 96.3636 239.256 97.5927C239.464 98.7986 239.812 100.584 240.392 102.81C240.971 105.037 241.759 107.727 242.965 110.672C244.17 113.617 245.769 116.887 248.041 120.087C249.177 121.687 250.475 123.264 251.959 124.748C252.7 125.49 253.512 126.209 254.346 126.882C255.204 127.554 256.085 128.18 257.035 128.783C257.962 129.386 258.959 129.896 260.002 130.383C260.512 130.638 261.045 130.847 261.578 131.056C262.112 131.241 262.668 131.45 263.224 131.636C263.781 131.821 264.337 131.96 264.916 132.123C265.496 132.262 266.075 132.401 266.655 132.494C267.234 132.61 267.837 132.679 268.417 132.772C269.019 132.842 269.599 132.888 270.225 132.934C275.139 133.352 280.239 133.885 285.385 134.674C290.531 135.462 295.723 136.506 300.823 138.036C303.373 138.801 305.876 139.683 308.31 140.726C310.744 141.793 313.108 142.999 315.311 144.46C317.513 145.898 319.576 147.567 321.337 149.492C322.218 150.443 323.03 151.463 323.771 152.507C324.49 153.573 325.139 154.687 325.672 155.823C326.205 156.959 326.669 158.142 327.017 159.325C327.388 160.507 327.643 161.713 327.828 162.919C328.013 164.125 328.106 165.308 328.153 166.49C328.153 166.792 328.176 167.07 328.176 167.371C328.176 167.673 328.176 167.951 328.176 168.253C328.176 168.832 328.152 169.389 328.129 169.969C327.99 174.491 327.967 178.758 328.153 182.677C328.338 186.596 328.778 190.19 329.613 193.252C330.03 194.782 330.563 196.173 331.212 197.379C331.838 198.585 332.58 199.629 333.368 200.44C333.762 200.858 334.156 201.229 334.55 201.554C334.944 201.878 335.338 202.157 335.709 202.388C336.451 202.875 337.147 203.2 337.703 203.432C338.259 203.664 338.723 203.826 339.024 203.919C339.325 204.012 339.488 204.058 339.488 204.058C339.488 204.058 339.325 204.012 339.024 203.942C338.723 203.849 338.259 203.733 337.68 203.525C337.1 203.316 336.382 203.015 335.617 202.574C334.828 202.11 333.994 201.507 333.159 200.696C332.325 199.884 331.537 198.84 330.841 197.611C330.146 196.382 329.543 194.991 329.057 193.437C328.083 190.33 327.55 186.689 327.272 182.746C326.993 178.781 326.97 174.491 326.994 169.946C326.994 169.389 327.017 168.809 327.017 168.23C327.017 167.951 327.017 167.673 327.017 167.371C327.017 167.093 326.994 166.815 326.994 166.513C326.947 165.377 326.831 164.218 326.646 163.081C326.46 161.945 326.205 160.786 325.858 159.672C325.51 158.536 325.07 157.423 324.536 156.356C323.493 154.2 322.079 152.159 320.387 150.35C318.695 148.541 316.725 146.941 314.592 145.55C310.304 142.79 305.436 140.819 300.452 139.288C295.445 137.781 290.299 136.737 285.222 135.903C280.123 135.068 275.069 134.511 270.155 134.047C269.552 134.001 268.927 133.908 268.301 133.839C267.675 133.746 267.072 133.653 266.469 133.537C265.867 133.421 265.264 133.282 264.661 133.143C264.082 132.981 263.479 132.818 262.923 132.633C262.343 132.447 261.787 132.239 261.231 132.007C260.674 131.775 260.141 131.543 259.608 131.288C258.542 130.778 257.522 130.221 256.548 129.572C255.575 128.946 254.671 128.273 253.813 127.554C252.955 126.835 252.144 126.093 251.402 125.328C249.895 123.774 248.597 122.151 247.485 120.481C245.259 117.165 243.729 113.826 242.594 110.834C241.458 107.82 240.716 105.106 240.206 102.857C239.696 100.607 239.418 98.8218 239.256 97.5927C239.024 96.3868 238.977 95.7143 238.977 95.7143Z" fill="white"/>
<path d="M235.895 109.93C235.895 109.93 235.895 150.35 269.552 146.825C258.101 150.837 233.298 145.526 235.895 109.93Z" fill="white"/>
<path d="M162.621 45.6934C162.621 45.6934 160.35 55.6883 166.655 64.6861C163.548 63.9208 158.588 56.3609 162.621 45.6934Z" fill="white"/>
<path d="M219.135 56.4768C219.135 56.4768 219.691 57.1261 220.85 58.2624C221.43 58.819 222.149 59.5147 223.006 60.28C223.887 61.0452 224.907 61.9265 226.089 62.8541C228.43 64.7093 231.444 66.7964 235.13 68.7443C236.961 69.7183 238.977 70.6459 241.18 71.4344C243.359 72.2228 245.723 72.9185 248.227 73.3823C250.73 73.8461 253.396 74.078 256.131 73.9853C256.826 73.9853 257.499 73.8925 258.194 73.8461C258.889 73.7766 259.608 73.7302 260.327 73.6606L260.86 73.6142C261.045 73.591 261.231 73.591 261.416 73.591C261.787 73.5678 262.158 73.5678 262.529 73.5447C262.9 73.5215 263.271 73.5447 263.641 73.5447C264.012 73.5447 264.383 73.5447 264.754 73.5679C266.261 73.6606 267.768 73.8461 269.297 74.2404C270.804 74.6578 272.311 75.2839 273.632 76.2347C274.953 77.1855 276.089 78.4609 276.877 79.9219C277.689 81.3829 278.152 83.0062 278.454 84.6295C278.755 86.2528 278.848 87.9225 278.848 89.5922C278.848 91.2618 278.755 92.9083 278.593 94.578C278.291 97.9174 277.758 101.234 277.225 104.573L277.156 105.06L277.132 105.199L276.947 106.451C276.924 106.66 276.924 106.869 276.901 107.054C276.831 107.866 276.831 108.678 276.877 109.489C276.97 111.112 277.387 112.713 278.152 114.081C278.315 114.452 278.57 114.753 278.801 115.078C278.917 115.24 279.056 115.379 279.172 115.542C279.311 115.681 279.427 115.843 279.566 115.982C280.146 116.539 280.749 117.049 281.444 117.467C282.812 118.325 284.365 118.951 285.987 119.391C287.587 119.855 289.256 120.133 290.925 120.365C292.594 120.574 294.286 120.713 295.978 120.829C299.362 121.015 302.77 121.038 306.154 121.038C306.989 121.038 307.847 121.038 308.681 121.038H309.956C310.373 121.038 310.814 121.084 311.254 121.084C312.969 121.2 314.638 121.432 316.284 121.78C319.576 122.452 322.751 123.426 325.765 124.632C331.815 127.021 337.262 130.267 341.922 133.955C344.263 135.81 346.396 137.758 348.296 139.822C350.197 141.862 351.889 143.996 353.326 146.153C356.247 150.466 358.148 154.872 359.284 158.93C360.42 162.989 360.791 166.676 360.86 169.667C360.93 172.682 360.675 175.047 360.443 176.647C360.35 177.459 360.234 178.062 360.165 178.456C360.211 178.039 360.304 177.436 360.396 176.624C360.559 175.024 360.721 172.659 360.605 169.667C360.489 166.676 360.026 163.035 358.82 159.046C358.217 157.052 357.429 154.988 356.409 152.878C355.389 150.791 354.184 148.657 352.701 146.547C349.78 142.349 345.932 138.291 341.296 134.72C336.66 131.149 331.259 128.041 325.324 125.722C322.357 124.563 319.251 123.635 316.029 123.009C314.43 122.707 312.807 122.476 311.161 122.383C310.744 122.36 310.373 122.336 309.933 122.336H308.681C307.847 122.336 306.989 122.336 306.154 122.336C302.77 122.336 299.362 122.313 295.909 122.128C294.193 122.035 292.455 121.896 290.739 121.664C289.024 121.432 287.285 121.131 285.593 120.667C283.901 120.18 282.232 119.53 280.702 118.556C279.937 118.093 279.219 117.49 278.57 116.864C278.407 116.701 278.268 116.516 278.106 116.353C277.967 116.168 277.805 116.006 277.666 115.82C277.411 115.449 277.132 115.078 276.924 114.661C276.02 113.06 275.603 111.252 275.487 109.489C275.44 108.608 275.44 107.727 275.51 106.822C275.533 106.359 275.603 105.964 275.649 105.547L275.742 104.921L275.765 104.735L275.788 104.573L275.834 104.271C276.112 102.602 276.367 100.955 276.622 99.2856C276.854 97.6391 277.086 95.9926 277.248 94.3461C277.411 92.7228 277.503 91.0763 277.527 89.4762C277.527 87.8761 277.434 86.276 277.179 84.7454C276.901 83.2149 276.483 81.7076 275.765 80.3857C275.046 79.0639 274.073 77.9276 272.89 77.0695C271.708 76.2115 270.341 75.6086 268.95 75.2143C267.536 74.8201 266.075 74.6346 264.638 74.5418C264.267 74.5186 263.92 74.5186 263.549 74.5186C263.178 74.5186 262.83 74.4955 262.482 74.4955C262.135 74.4955 261.764 74.5186 261.416 74.5186C261.231 74.5186 261.068 74.5186 260.883 74.5418L260.35 74.5882C259.631 74.6346 258.936 74.681 258.217 74.7505C257.499 74.7969 256.803 74.8665 256.085 74.8433C253.28 74.8897 250.568 74.6114 248.018 74.1012C242.918 73.0809 238.491 71.1793 234.828 69.1386C231.166 67.0746 228.199 64.918 225.881 62.9932C223.562 61.0916 221.87 59.3988 220.758 58.2624C219.691 57.1493 219.135 56.4768 219.135 56.4768Z" fill="white"/>
<path d="M353.326 169.203C353.326 169.203 353.257 169.412 353.164 169.783C353.071 170.177 352.932 170.734 352.77 171.476C352.608 172.195 352.446 173.099 352.307 174.12C352.144 175.14 352.028 176.3 351.982 177.552C351.936 178.804 351.959 180.172 352.167 181.587C352.283 182.283 352.422 183.002 352.631 183.72C352.84 184.439 353.118 185.135 353.466 185.808C353.836 186.48 354.277 187.106 354.787 187.663C355.32 188.219 355.923 188.706 356.595 189.124C357.267 189.518 358.009 189.843 358.774 190.075C358.959 190.144 359.168 190.19 359.353 190.237C359.539 190.283 359.747 190.33 359.956 190.376C360.165 190.422 360.35 190.446 360.559 190.492L361.185 190.585C362.9 190.817 364.615 191.211 366.261 191.814C367.884 192.417 369.414 193.228 370.758 194.249C372.079 195.292 373.169 196.545 373.864 197.959C374.56 199.351 374.838 200.858 374.768 202.203C374.699 203.548 374.374 204.731 373.957 205.728C373.54 206.702 373.076 207.513 372.659 208.14C372.242 208.766 371.871 209.229 371.616 209.531C371.361 209.832 371.222 209.995 371.222 209.995C371.222 209.995 371.338 209.809 371.546 209.485C371.755 209.137 372.056 208.65 372.404 207.977C372.728 207.328 373.123 206.493 373.401 205.542C373.702 204.568 373.911 203.455 373.864 202.226C373.818 201.02 373.517 199.722 372.844 198.539C372.172 197.333 371.175 196.243 369.947 195.362C368.718 194.457 367.304 193.739 365.774 193.159C364.244 192.602 362.645 192.185 360.999 191.953C359.284 191.721 357.499 191.211 355.969 190.237C355.204 189.75 354.532 189.17 353.952 188.521C353.373 187.848 352.909 187.129 352.538 186.364C351.797 184.834 351.449 183.257 351.31 181.772C351.171 180.265 351.217 178.874 351.333 177.575C351.611 175.001 352.144 172.914 352.585 171.476C353.002 169.992 353.326 169.203 353.326 169.203Z" fill="white"/>
<path d="M166.655 56.4768C166.655 56.4768 166.631 56.2449 166.608 55.8275C166.608 55.3869 166.585 54.7607 166.631 53.9723C166.701 53.1606 166.771 52.1867 166.979 51.0967C167.188 49.9836 167.443 48.7545 167.883 47.4327C168.3 46.1109 168.81 44.6963 169.529 43.2585C169.622 43.073 169.691 42.8875 169.784 42.7251C169.877 42.5396 169.969 42.3773 170.062 42.1918C170.248 41.8207 170.433 41.4497 170.642 41.1018C171.082 40.3829 171.499 39.6409 172.009 38.9452C172.983 37.5074 174.119 36.0928 175.347 34.7478C175.672 34.4231 175.996 34.0984 176.298 33.7506C176.46 33.5883 176.622 33.4259 176.784 33.2636L177.294 32.7998C177.642 32.4751 177.967 32.1737 178.314 31.849C178.662 31.5475 179.033 31.2461 179.381 30.9678C179.752 30.6895 180.099 30.3648 180.47 30.1098C180.841 29.8315 181.212 29.5764 181.583 29.2981C182.325 28.7415 183.113 28.2545 183.878 27.7676C184.619 27.2574 185.431 26.84 186.219 26.3993C186.984 25.9355 187.795 25.5645 188.56 25.1935C188.954 25.0079 189.325 24.8224 189.719 24.6137C190.113 24.4514 190.484 24.2659 190.878 24.1035C191.272 23.9412 191.643 23.7789 192.014 23.6165C192.199 23.547 192.385 23.4542 192.57 23.3846C192.756 23.3151 192.941 23.2455 193.127 23.1759C193.868 22.8977 194.587 22.6426 195.282 22.3875C195.63 22.2483 195.978 22.1556 196.326 22.0396C196.673 21.9237 196.998 21.8309 197.322 21.7382C197.647 21.6454 197.971 21.5294 198.296 21.4367C198.62 21.3439 198.922 21.228 199.223 21.1584C199.826 20.9961 200.405 20.8569 200.962 20.7178C201.495 20.5787 202.005 20.4627 202.468 20.3468C202.932 20.254 203.372 20.1612 203.766 20.0917C204.555 19.9293 205.18 19.8134 205.598 19.7438C206.015 19.6742 206.247 19.6279 206.247 19.6279C206.247 19.6279 206.038 19.6974 205.621 19.8134C205.204 19.9293 204.601 20.138 203.836 20.3468C203.465 20.4627 203.025 20.5787 202.561 20.7178C202.097 20.8801 201.611 21.0425 201.078 21.228C200.544 21.4135 199.988 21.599 199.409 21.7845C198.829 21.9932 198.203 22.2251 197.577 22.457C197.253 22.573 196.928 22.6889 196.604 22.8281C196.279 22.944 195.931 23.0832 195.607 23.2223C194.935 23.5006 194.239 23.8021 193.521 24.1035C193.335 24.1731 193.15 24.2659 192.988 24.3354C192.802 24.4282 192.64 24.4978 192.454 24.5905C192.084 24.7529 191.736 24.9384 191.365 25.1239C190.994 25.3094 190.623 25.4717 190.252 25.6573C189.881 25.8428 189.511 26.0515 189.14 26.237C188.398 26.6312 187.633 27.0255 186.891 27.4893C186.52 27.7212 186.149 27.9299 185.755 28.1618C185.361 28.3705 185.014 28.6256 184.643 28.8575C183.901 29.3445 183.136 29.8083 182.44 30.3648C182.07 30.6199 181.722 30.8982 181.351 31.1533C180.98 31.4316 180.656 31.7099 180.308 32.0113C179.96 32.2896 179.612 32.5679 179.265 32.8694C178.94 33.1708 178.593 33.4723 178.268 33.7738L177.781 34.2144C177.619 34.3767 177.457 34.5391 177.318 34.6782C177.016 35.0028 176.692 35.3043 176.39 35.629C176.089 35.9536 175.811 36.2783 175.51 36.603C175.231 36.9276 174.907 37.2523 174.652 37.5769C174.374 37.9248 174.119 38.2495 173.841 38.5741C173.701 38.7364 173.586 38.8988 173.447 39.0843C173.331 39.2466 173.192 39.4321 173.076 39.5945C172.566 40.267 172.148 40.9859 171.685 41.6584C171.476 42.0062 171.268 42.3541 171.059 42.6787C170.966 42.8411 170.85 43.0266 170.758 43.1889C170.665 43.3513 170.572 43.5368 170.479 43.6991C170.294 44.047 170.132 44.3716 169.946 44.7195C169.784 45.0673 169.622 45.392 169.483 45.7166C169.32 46.0413 169.181 46.366 169.042 46.6906C168.903 47.0153 168.764 47.3399 168.648 47.6414C168.532 47.9661 168.416 48.2675 168.3 48.569C168.208 48.8705 168.092 49.172 167.999 49.4734C167.906 49.7749 167.814 50.0532 167.744 50.3315C167.675 50.6097 167.582 50.888 167.512 51.1431C167.234 52.2098 167.049 53.1606 166.91 53.9491C166.794 54.7375 166.724 55.3637 166.678 55.7811C166.655 56.2449 166.655 56.4768 166.655 56.4768Z" fill="white"/>
<path d="M171.105 55.1782C171.105 55.1782 171.198 54.8999 171.407 54.4129C171.615 53.9259 171.94 53.207 172.403 52.3026C172.867 51.4214 173.447 50.3546 174.235 49.172C174.42 48.8705 174.629 48.569 174.837 48.2675C175.046 47.9661 175.255 47.6414 175.486 47.3167C175.95 46.6906 176.437 46.0181 176.993 45.3456C177.526 44.6731 178.129 44.0006 178.732 43.2817C179.056 42.9338 179.381 42.6092 179.705 42.2381C179.867 42.0758 180.03 41.8903 180.215 41.7048C180.401 41.5424 180.563 41.3569 180.748 41.1946C182.139 39.8032 183.739 38.435 185.454 37.1131C186.335 36.487 187.192 35.8145 188.143 35.2116C188.606 34.9101 189.07 34.5854 189.534 34.284C190.02 34.0057 190.507 33.7042 190.994 33.4259C191.249 33.2868 191.481 33.1476 191.736 32.9853C191.991 32.8462 192.246 32.7302 192.501 32.5911C193.011 32.336 193.521 32.0577 194.031 31.7794C194.541 31.5243 195.074 31.2924 195.584 31.0374L196.372 30.6663C196.627 30.5504 196.905 30.4112 197.16 30.3185C199.293 29.4372 201.448 28.6488 203.627 28.0226C204.161 27.8603 204.717 27.7212 205.25 27.5589C205.783 27.3965 206.339 27.2806 206.873 27.1646C207.406 27.0487 207.962 26.9327 208.495 26.7936C208.773 26.7472 209.028 26.6544 209.283 26.6312C209.562 26.5849 209.817 26.5385 210.072 26.4921C210.605 26.3993 211.138 26.3066 211.648 26.2138C212.158 26.1211 212.691 26.0283 213.201 25.9819C214.221 25.866 215.241 25.75 216.214 25.6341C217.188 25.5413 218.161 25.4949 219.066 25.4254C219.529 25.4022 219.993 25.3558 220.433 25.3558C220.874 25.3558 221.314 25.3326 221.754 25.3326C222.612 25.3094 223.423 25.3094 224.212 25.2862C225 25.3094 225.741 25.3326 226.437 25.3558C227.132 25.379 227.781 25.4022 228.384 25.4254C228.987 25.4486 229.543 25.5181 230.03 25.5645C231.027 25.6573 231.815 25.7268 232.348 25.7732C232.881 25.8196 233.159 25.8428 233.159 25.8428C233.159 25.8428 232.881 25.8428 232.348 25.8428C231.815 25.8428 231.027 25.8428 230.03 25.8196C229.543 25.8196 228.987 25.7964 228.384 25.8196C227.781 25.8428 227.132 25.866 226.437 25.866C225.741 25.8892 225 25.8892 224.235 25.9355C223.47 25.9819 222.658 26.0515 221.801 26.0979C221.384 26.1211 220.943 26.1443 220.503 26.1906C220.062 26.2138 219.622 26.2834 219.158 26.3298C218.254 26.4457 217.304 26.5153 216.33 26.6312C215.38 26.7704 214.383 26.9327 213.363 27.0951C212.853 27.1646 212.343 27.2806 211.833 27.3733C211.323 27.4661 210.813 27.582 210.28 27.6748C210.025 27.7212 209.77 27.7676 209.492 27.8371C209.237 27.8835 208.982 27.9531 208.704 28.0226C208.194 28.1618 207.661 28.2777 207.128 28.4169C206.061 28.6488 205.018 28.9966 203.952 29.2981C201.819 29.9242 199.71 30.7127 197.624 31.5939C197.369 31.6867 197.114 31.8026 196.859 31.9186L196.094 32.2664C195.584 32.4983 195.074 32.7302 194.564 32.9621C194.077 33.2172 193.567 33.4723 193.08 33.7274C192.825 33.8665 192.594 33.9825 192.339 34.1216C192.107 34.2608 191.852 34.3999 191.62 34.539C191.133 34.8173 190.67 35.0956 190.183 35.3739C189.719 35.6522 189.256 35.9536 188.792 36.2551C187.865 36.8117 187.007 37.461 186.126 38.0639C184.434 39.3394 182.835 40.5916 181.421 41.9135C181.235 42.0758 181.073 42.2381 180.887 42.4005C180.725 42.5628 180.54 42.7251 180.377 42.8875C180.03 43.2121 179.705 43.5368 179.381 43.8614C178.755 44.5339 178.129 45.1369 177.573 45.7862C176.437 47.0385 175.463 48.2675 174.652 49.3807C173.817 50.4938 173.168 51.491 172.635 52.349C172.102 53.1838 171.731 53.8795 171.476 54.3433C171.221 54.9231 171.105 55.1782 171.105 55.1782Z" fill="white"/>
<path d="M176.924 53.7868C176.924 53.7868 177.155 53.6012 177.642 53.2534C178.106 52.9055 178.801 52.3954 179.705 51.8156C180.609 51.2127 181.722 50.517 183.043 49.7517C184.341 48.9864 185.848 48.1748 187.517 47.3399C189.186 46.5283 191.017 45.6471 193.011 44.8586C193.266 44.7659 193.498 44.6499 193.753 44.5571C194.008 44.4644 194.262 44.3716 194.517 44.2557C195.027 44.047 195.537 43.8614 196.071 43.6527C196.604 43.4672 197.137 43.2817 197.67 43.073C198.203 42.8875 198.759 42.7019 199.316 42.5164C199.872 42.3309 200.428 42.1686 201.008 41.983C201.564 41.7975 202.144 41.6584 202.723 41.4729C203.303 41.3105 203.882 41.125 204.485 40.9859C205.088 40.8467 205.667 40.6844 206.27 40.5453C206.873 40.3829 207.475 40.267 208.078 40.151C208.681 40.0351 209.283 39.8959 209.909 39.78C210.512 39.664 211.138 39.5713 211.741 39.4553C212.366 39.3626 212.969 39.2234 213.595 39.1539C214.221 39.0611 214.824 38.9915 215.449 38.8988C215.751 38.8524 216.075 38.806 216.377 38.7828L217.304 38.6901C217.93 38.6205 218.532 38.5741 219.158 38.5045C219.784 38.435 220.387 38.435 221.013 38.3886C221.615 38.3422 222.241 38.319 222.844 38.2726C223.447 38.2726 224.049 38.2495 224.652 38.2495C225.255 38.2495 225.857 38.2263 226.437 38.2263C227.04 38.2494 227.619 38.2495 228.199 38.2726C228.778 38.2958 229.358 38.2958 229.937 38.319C230.517 38.3654 231.073 38.3886 231.629 38.435C232.186 38.4813 232.742 38.5277 233.298 38.5741C233.576 38.5973 233.855 38.6205 234.11 38.6669C234.388 38.6901 234.643 38.7364 234.921 38.7596C235.454 38.8292 235.987 38.8988 236.497 38.9452C236.752 38.9683 237.007 39.0147 237.262 39.0379C237.517 39.0611 237.772 39.1307 238.004 39.1539C239.001 39.3162 239.951 39.5017 240.878 39.6409C241.342 39.7104 241.782 39.8264 242.223 39.9191C242.663 40.0119 243.08 40.1046 243.498 40.1974C244.332 40.3829 245.12 40.5453 245.839 40.7772C246.557 40.9859 247.253 41.1714 247.879 41.3337C248.203 41.4265 248.505 41.4961 248.783 41.5888C249.061 41.6816 249.339 41.7743 249.594 41.8439C250.637 42.1918 251.425 42.47 251.982 42.6556C252.538 42.8411 252.816 42.9338 252.816 42.9338C252.816 42.9338 252.515 42.8643 251.959 42.7251C251.402 42.586 250.568 42.3773 249.525 42.1222C249.27 42.0526 248.991 41.983 248.69 41.9135C248.389 41.8439 248.087 41.7975 247.763 41.728C247.114 41.5888 246.442 41.4497 245.7 41.2873C244.958 41.125 244.17 40.9859 243.335 40.8699C242.501 40.7308 241.62 40.5685 240.716 40.4293C239.789 40.3134 238.838 40.1974 237.865 40.0583C237.61 40.0351 237.378 39.9887 237.123 39.9655C236.868 39.9423 236.613 39.9191 236.358 39.8959C235.848 39.8496 235.315 39.8032 234.805 39.7568C234.55 39.7336 234.272 39.7104 234.017 39.6872C233.739 39.664 233.484 39.6409 233.206 39.6409C232.672 39.6177 232.116 39.5945 231.56 39.5713C231.003 39.5481 230.447 39.5249 229.868 39.5017C229.311 39.5017 228.732 39.5017 228.152 39.4785C227.573 39.4785 226.993 39.4785 226.414 39.4553C225.834 39.4785 225.232 39.5017 224.652 39.5017C224.049 39.5249 223.47 39.5481 222.867 39.5713C222.264 39.6177 221.662 39.6408 221.059 39.6872C220.456 39.7336 219.854 39.7568 219.251 39.8264C218.648 39.8959 218.046 39.9423 217.42 40.0119L216.516 40.1047C216.214 40.1278 215.913 40.1974 215.612 40.2206C215.009 40.3134 214.383 40.3829 213.78 40.4757C213.178 40.5453 212.575 40.6612 211.949 40.754C211.346 40.8467 210.744 40.9627 210.141 41.0554C209.538 41.1714 208.936 41.3105 208.356 41.4265C207.753 41.5424 207.151 41.6584 206.571 41.8207C205.389 42.099 204.23 42.3541 203.071 42.6787C202.492 42.8411 201.935 42.9802 201.356 43.1425C200.799 43.3049 200.243 43.4672 199.687 43.6295C199.13 43.7919 198.597 43.9774 198.041 44.1397C197.508 44.3252 196.975 44.4876 196.441 44.6499C195.908 44.8354 195.398 45.0209 194.888 45.1833C194.633 45.276 194.378 45.3688 194.123 45.4615C193.868 45.5543 193.613 45.6471 193.382 45.7398C192.895 45.9253 192.408 46.1109 191.921 46.2964C191.434 46.4819 190.971 46.6906 190.507 46.8761C190.275 46.9689 190.044 47.0617 189.812 47.1544C189.58 47.2472 189.371 47.3399 189.14 47.4327C188.699 47.6182 188.259 47.8037 187.842 47.9893C187.007 48.3835 186.196 48.7313 185.431 49.1024C185.06 49.2879 184.689 49.4502 184.318 49.6358C183.97 49.8213 183.623 49.9836 183.275 50.1459C181.931 50.8184 180.771 51.4446 179.821 51.9779C178.871 52.5113 178.152 52.9287 177.642 53.2534C177.179 53.6244 176.924 53.7868 176.924 53.7868Z" fill="white"/>
<path d="M284.527 142.767C284.527 142.767 284.759 142.813 285.199 142.906C285.64 142.999 286.266 143.138 287.054 143.37C287.842 143.602 288.815 143.88 289.882 144.251C290.971 144.622 292.2 145.063 293.498 145.619C294.796 146.153 296.21 146.802 297.647 147.544C299.084 148.286 300.591 149.121 302.098 150.072C303.604 151.023 305.111 152.066 306.572 153.249C308.032 154.408 309.446 155.684 310.79 157.052C312.112 158.42 313.363 159.881 314.476 161.388C315.589 162.896 316.562 164.473 317.42 166.05C318.254 167.627 318.927 169.227 319.483 170.757C320.039 172.288 320.433 173.795 320.712 175.187C320.874 175.882 320.967 176.555 321.083 177.204C321.129 177.529 321.152 177.83 321.198 178.132C321.245 178.433 321.268 178.735 321.291 179.013C321.337 179.593 321.407 180.126 321.407 180.613C321.43 181.1 321.453 181.564 321.453 181.981C321.453 182.399 321.453 182.77 321.453 183.071C321.43 183.396 321.43 183.674 321.43 183.883C321.407 184.323 321.407 184.555 321.407 184.555C321.407 184.555 321.384 184.323 321.361 183.883C321.338 183.674 321.314 183.396 321.291 183.071C321.268 182.746 321.222 182.399 321.175 181.981C321.152 181.564 321.083 181.123 321.013 180.636C320.943 180.149 320.851 179.616 320.758 179.059C320.712 178.781 320.665 178.503 320.596 178.201C320.526 177.9 320.48 177.598 320.41 177.297C320.248 176.671 320.132 176.021 319.923 175.349C319.553 174.004 319.089 172.566 318.509 171.105C317.907 169.621 317.188 168.114 316.354 166.606C315.519 165.099 314.499 163.615 313.41 162.154C312.32 160.693 311.115 159.301 309.817 157.98C308.519 156.658 307.174 155.405 305.737 154.246C304.323 153.11 302.886 152.02 301.426 151.046C299.988 150.072 298.551 149.19 297.16 148.402C295.77 147.614 294.425 146.918 293.173 146.292C291.922 145.689 290.739 145.155 289.696 144.692C288.653 144.251 287.726 143.88 286.961 143.579C286.196 143.3 285.593 143.068 285.176 142.929C284.736 142.836 284.527 142.767 284.527 142.767Z" fill="white"/>
<path d="M265.38 101.558C265.38 101.558 265.38 101.929 265.426 102.602C265.473 103.274 265.589 104.248 265.774 105.501C265.96 106.753 266.284 108.237 266.748 109.907C267.234 111.576 267.883 113.431 268.834 115.333C269.784 117.235 271.059 119.183 272.728 120.945C273.122 121.409 273.586 121.803 274.049 122.221C274.258 122.429 274.513 122.615 274.768 122.823C275.023 123.009 275.255 123.218 275.51 123.403C275.765 123.589 276.043 123.751 276.298 123.937L276.692 124.215L276.901 124.354C276.97 124.4 277.04 124.424 277.109 124.47C277.387 124.632 277.666 124.795 277.967 124.934L278.384 125.166L278.825 125.374C279.427 125.629 280.007 125.931 280.656 126.14C280.98 126.256 281.282 126.372 281.606 126.464C281.931 126.58 282.255 126.65 282.58 126.719C282.904 126.812 283.229 126.882 283.553 126.974C283.878 127.044 284.226 127.09 284.573 127.16C284.921 127.23 285.246 127.276 285.593 127.346C285.941 127.392 286.289 127.415 286.613 127.461C286.961 127.508 287.309 127.531 287.656 127.577C288.004 127.601 288.352 127.601 288.699 127.624C289.395 127.647 290.09 127.693 290.809 127.647C291.527 127.624 292.2 127.601 292.942 127.577C293.66 127.531 294.379 127.485 295.097 127.438C295.816 127.392 296.534 127.369 297.253 127.322C297.972 127.276 298.69 127.253 299.409 127.23C300.846 127.183 302.283 127.114 303.697 127.09C304.416 127.067 305.111 127.067 305.83 127.044C306.525 127.021 307.244 127.044 307.939 127.044C308.635 127.044 309.33 127.067 310.025 127.067C310.721 127.09 311.393 127.114 312.089 127.16C312.436 127.183 312.761 127.183 313.108 127.206C313.456 127.23 313.781 127.23 314.105 127.276C314.777 127.322 315.426 127.392 316.076 127.438C316.725 127.485 317.374 127.577 317.999 127.647C318.625 127.74 319.274 127.809 319.877 127.902C321.106 128.134 322.311 128.296 323.447 128.621C323.725 128.691 324.026 128.76 324.305 128.83C324.444 128.853 324.583 128.899 324.722 128.922C324.861 128.969 325 129.015 325.139 129.038C325.672 129.201 326.205 129.363 326.739 129.525C326.993 129.595 327.249 129.688 327.503 129.78C327.758 129.873 327.99 129.966 328.245 130.059C328.732 130.244 329.219 130.407 329.659 130.615C330.123 130.824 330.563 131.01 330.981 131.218C331.096 131.265 331.189 131.311 331.305 131.357C331.398 131.404 331.514 131.473 331.606 131.52C331.815 131.612 332 131.728 332.209 131.821C332.603 132.03 332.974 132.215 333.345 132.401C333.693 132.61 334.04 132.795 334.365 133.004C334.689 133.189 335.014 133.375 335.315 133.56C335.617 133.746 335.895 133.931 336.15 134.094C336.683 134.442 337.17 134.72 337.564 134.998C337.981 135.276 338.306 135.508 338.607 135.694C339.163 136.065 339.465 136.274 339.465 136.274C339.465 136.274 339.163 136.088 338.561 135.763C338.259 135.601 337.911 135.392 337.471 135.137C337.054 134.905 336.544 134.627 335.987 134.326C335.709 134.163 335.431 134.024 335.107 133.839C334.805 133.676 334.481 133.514 334.133 133.352C333.785 133.189 333.438 133.004 333.09 132.818C332.719 132.656 332.325 132.47 331.931 132.285C330.355 131.543 328.5 130.87 326.46 130.267C325.95 130.128 325.417 129.989 324.884 129.85C324.745 129.827 324.606 129.78 324.49 129.734C324.351 129.711 324.212 129.688 324.073 129.641C323.795 129.595 323.516 129.525 323.238 129.479C322.126 129.224 320.92 129.085 319.715 128.899C317.281 128.621 314.685 128.412 312.019 128.366C311.347 128.343 310.674 128.319 309.979 128.319C309.307 128.319 308.611 128.319 307.916 128.319C306.525 128.319 305.134 128.366 303.72 128.389C302.306 128.412 300.892 128.482 299.455 128.551C298.737 128.575 298.018 128.598 297.299 128.644C296.581 128.691 295.862 128.737 295.144 128.783C294.425 128.83 293.706 128.853 292.988 128.899C292.269 128.946 291.527 128.946 290.809 128.969C290.09 129.015 289.349 128.946 288.63 128.922C288.259 128.899 287.911 128.899 287.54 128.876C287.17 128.83 286.822 128.806 286.451 128.76C283.577 128.435 280.772 127.647 278.268 126.418L277.805 126.186L277.364 125.931C277.063 125.769 276.762 125.583 276.483 125.421C276.414 125.374 276.344 125.328 276.252 125.282L276.043 125.142L275.626 124.841C275.348 124.655 275.069 124.447 274.814 124.261C274.559 124.053 274.304 123.844 274.049 123.612C273.794 123.403 273.539 123.194 273.308 122.963C272.844 122.499 272.357 122.058 271.963 121.571C270.271 119.67 269.019 117.606 268.115 115.611C267.211 113.617 266.632 111.692 266.238 109.953C265.844 108.237 265.635 106.706 265.496 105.431C265.38 104.179 265.357 103.182 265.357 102.509C265.357 101.929 265.38 101.558 265.38 101.558Z" fill="white"/>
<path d="M318.115 140.401C318.115 140.401 318.417 140.517 318.95 140.749C319.483 141.004 320.271 141.352 321.222 141.886C322.172 142.419 323.331 143.092 324.583 143.973C325.835 144.831 327.225 145.874 328.639 147.15C330.053 148.402 331.491 149.863 332.858 151.556C334.226 153.249 335.524 155.15 336.613 157.261C337.703 159.371 338.63 161.69 339.21 164.125C339.812 166.56 340.137 169.111 340.16 171.638C340.183 172.891 340.16 174.143 340.183 175.372C340.206 176.601 340.253 177.83 340.299 179.059C340.369 180.265 340.438 181.471 340.554 182.654C340.67 183.836 340.809 184.996 341.018 186.132C341.11 186.712 341.249 187.245 341.365 187.802C341.504 188.335 341.643 188.892 341.806 189.402C342.13 190.446 342.548 191.443 343.058 192.324C343.568 193.228 344.17 194.017 344.842 194.713C345.515 195.408 346.28 195.988 347.021 196.475C348.551 197.449 350.151 198.075 351.565 198.562C353.002 199.026 354.277 199.374 355.32 199.652C356.386 199.907 357.221 200.116 357.777 200.232C358.357 200.371 358.658 200.417 358.658 200.417C358.658 200.417 358.357 200.371 357.777 200.301C357.476 200.255 357.128 200.209 356.711 200.139C356.294 200.069 355.807 200 355.274 199.907C354.207 199.722 352.886 199.466 351.402 199.072C349.919 198.678 348.25 198.121 346.581 197.171C345.746 196.684 344.912 196.127 344.147 195.385C343.382 194.666 342.71 193.808 342.13 192.857C341.551 191.907 341.087 190.863 340.693 189.773C340.485 189.24 340.345 188.66 340.183 188.103C340.044 187.524 339.882 186.967 339.789 186.364C339.325 184.022 339.047 181.587 338.931 179.129C338.792 176.671 338.746 174.143 338.723 171.662C338.723 169.227 338.421 166.769 337.865 164.45C337.703 163.87 337.564 163.29 337.402 162.71C337.216 162.154 337.031 161.574 336.845 161.017C336.637 160.461 336.405 159.928 336.196 159.371C335.941 158.838 335.733 158.304 335.478 157.794C334.458 155.73 333.275 153.852 332 152.159C330.726 150.489 329.381 148.982 328.06 147.683C326.739 146.385 325.44 145.295 324.235 144.367C323.03 143.439 321.963 142.697 321.036 142.094C320.132 141.515 319.39 141.074 318.88 140.773C318.394 140.541 318.115 140.401 318.115 140.401Z" fill="white"/>
<path d="M166.655 64.6861C162.134 74.1708 163.178 93.6272 167.883 101.164C171.638 107.193 155.945 140.587 174.582 129.247C179.682 138.407 184.874 147.382 190.461 149.376C193.753 150.559 202.862 147.243 209.538 144.784C215.241 146.987 227.156 155.916 230.239 172.009C236.219 169.111 240.392 167.371 240.392 167.371C240.392 167.371 231.745 132.842 235.941 109.907C239.14 107.82 241.643 104.364 241.643 95.2969C241.643 75.8173 227.295 76.8376 225.556 87.8761C206.316 88.966 190.044 89.6849 166.655 64.6861Z" fill="#E6B17D"/>
<path d="M176.483 104.967C176.483 104.967 183.901 105.709 188.815 99.3088C186.659 103.205 183.298 108.191 176.483 104.967Z" fill="#3E4547"/>
<path d="M169.529 94.2997C169.529 94.2997 176.135 86.2296 186.891 87.1804C183.437 85.1397 179.265 85.0005 175.278 86.3687C169.923 88.2008 167.049 91.8184 169.529 94.2997Z" fill="#3E4547"/>
<path d="M181.815 136.297C185.778 134.465 188.12 130.546 189.232 126.418C189.534 131.125 186.729 135.81 181.815 136.297Z" fill="#B07C4A"/>
<path d="M176.483 103.46C176.483 103.46 177.063 94.949 187.957 98.5435C184.828 96.6883 176.483 94.207 176.483 103.46Z" fill="#B07C4A"/>
<path d="M179.265 125.653C177.503 127.577 174.559 129.247 174.559 129.247C174.86 129.804 175.185 130.36 175.486 130.917C177.063 129.409 178.732 127.253 179.265 125.653Z" fill="#B07C4A"/>
<path d="M228.593 125.653C228.593 138.222 209.515 144.784 209.515 144.784C210.628 145.202 211.949 145.898 213.41 146.825C226.066 141.004 229.636 131.149 228.593 125.653Z" fill="#B07C4A"/>
<path d="M235.895 109.93C233.623 111.947 231.768 112.597 229.682 110.115C232.139 111.484 233.298 110.069 235.895 109.93Z" fill="#B07C4A"/>
<path d="M228.778 92.2126C228.778 92.2126 232.626 82.009 235.918 87.8761C239.209 93.7432 236.961 103.46 230.934 102.37C232.626 98.358 232.812 98.7058 228.778 92.2126Z" fill="#B07C4A"/>
<path d="M174.119 250.902C167.141 244.942 142.547 200.904 140.438 180.497C148.064 177.714 165.333 182.19 167.86 167.812C170.387 153.434 171.986 146.825 163.27 146.825C160.836 144.39 156.896 144.367 153.303 145.457C151.541 143.509 146.14 141.747 139.649 143.486C129.682 145.573 113.966 150.025 113.966 162.362C113.966 174.7 129.172 292.76 154.531 314.118C160.071 318.779 170.734 312.054 177.689 308.32C190.6 298.604 190.391 257.627 174.119 250.902Z" fill="#E6B17D"/>
<path d="M322.867 225.323C322.867 225.323 317.235 160.67 279.659 148.75C256.873 141.515 248.644 148.17 223.725 176.926C205.945 197.449 183.576 241.44 174.119 250.902C183.043 265.419 186.891 297.212 177.735 308.297C196.743 296.007 212.343 281.745 228.778 261.662C256.108 228.245 268.162 220.175 281.838 209.948C294.796 220.453 311.741 217.323 322.867 225.323Z" fill="#7D79E3"/>
<path d="M281.838 209.948C281.838 209.948 281.977 209.809 282.232 209.624C282.487 209.438 282.881 209.16 283.345 208.905C283.832 208.627 284.388 208.348 285.014 208.093C285.338 207.954 285.663 207.838 285.987 207.722C286.335 207.606 286.683 207.513 287.03 207.397C287.378 207.305 287.749 207.212 288.097 207.142C288.282 207.119 288.445 207.073 288.63 207.05C288.815 207.026 288.978 206.98 289.14 206.98C289.488 206.934 289.812 206.91 290.137 206.91C290.461 206.91 290.763 206.887 291.018 206.91C291.296 206.934 291.551 206.957 291.782 206.98C292.014 207.003 292.2 207.05 292.362 207.073C292.524 207.096 292.64 207.142 292.733 207.166C292.826 207.189 292.872 207.212 292.872 207.212C292.872 207.212 292.826 207.235 292.733 207.258C292.64 207.282 292.524 207.328 292.385 207.374C292.223 207.421 292.037 207.467 291.829 207.537C291.62 207.606 291.388 207.676 291.133 207.745C290.878 207.815 290.6 207.908 290.322 207.977C290.021 208.047 289.719 208.163 289.418 208.232C289.094 208.325 288.769 208.418 288.444 208.511C288.12 208.603 287.772 208.696 287.448 208.789C287.1 208.882 286.776 208.974 286.428 209.067C286.103 209.16 285.756 209.229 285.431 209.322C284.782 209.485 284.179 209.624 283.646 209.716C283.113 209.832 282.673 209.902 282.348 209.948C282.186 209.972 282.07 209.995 281.977 209.995C281.884 209.948 281.838 209.948 281.838 209.948Z" fill="#30345E"/>
<path d="M279.659 148.75C279.659 148.75 279.08 148.75 278.036 148.889C276.97 149.028 275.44 149.33 273.539 149.886C271.639 150.443 269.367 151.254 266.864 152.437C264.36 153.597 261.648 155.127 258.797 156.982C255.946 158.838 253.002 161.064 250.035 163.568C247.067 166.073 244.1 168.925 241.156 171.986C238.236 175.071 235.338 178.387 232.58 181.865C229.798 185.344 227.109 189.008 224.536 192.741C223.261 194.62 222.009 196.498 220.781 198.4C219.529 200.301 218.301 202.18 217.072 204.058C215.843 205.936 214.615 207.768 213.386 209.601C212.158 211.433 210.952 213.218 209.747 215.004C207.359 218.529 205.018 221.938 202.77 225.138C202.213 225.949 201.657 226.738 201.101 227.503C200.544 228.268 200.011 229.034 199.478 229.799C198.412 231.306 197.345 232.744 196.349 234.112C195.329 235.481 194.355 236.802 193.428 238.055C192.478 239.284 191.574 240.466 190.716 241.556C189.001 243.736 187.447 245.591 186.149 247.099C185.477 247.841 184.898 248.513 184.364 249.07C183.831 249.626 183.391 250.113 182.997 250.485C182.232 251.227 181.838 251.644 181.838 251.644C181.838 251.644 182.232 251.227 182.95 250.438C183.298 250.044 183.739 249.534 184.249 248.954C184.759 248.374 185.315 247.679 185.941 246.913C187.169 245.36 188.676 243.458 190.299 241.209C191.944 238.982 193.753 236.431 195.7 233.625C196.673 232.211 197.67 230.75 198.713 229.242C199.223 228.477 199.756 227.712 200.289 226.923C200.823 226.135 201.356 225.347 201.912 224.535C204.091 221.288 206.386 217.856 208.727 214.308C211.068 210.737 213.502 207.073 215.959 203.316C218.417 199.582 220.85 195.733 223.447 191.976C226.043 188.219 228.755 184.555 231.606 181.054C234.434 177.552 237.378 174.236 240.368 171.175C243.359 168.114 246.418 165.308 249.455 162.803C252.492 160.299 255.528 158.142 258.449 156.333C261.37 154.524 264.175 153.086 266.724 151.973C269.274 150.86 271.592 150.118 273.539 149.608C275.463 149.098 277.04 148.889 278.106 148.796C279.08 148.727 279.659 148.75 279.659 148.75Z" fill="#FFFCF5"/>
<path d="M186.891 268.526C186.891 268.526 187.332 268.063 188.12 267.205C188.908 266.323 190.044 265.025 191.458 263.355C192.872 261.685 194.564 259.621 196.465 257.233C198.342 254.821 200.428 252.085 202.654 249.047C204.879 246.009 207.22 242.669 209.631 239.121C212.042 235.55 214.499 231.747 216.979 227.758C219.46 223.77 221.917 219.595 224.351 215.305C224.953 214.239 225.556 213.149 226.159 212.059C226.761 210.969 227.364 209.879 227.99 208.789C229.242 206.609 230.54 204.452 231.884 202.319C234.573 198.075 237.494 193.947 240.554 190.028C243.614 186.109 246.882 182.468 250.22 179.129C251.912 177.459 253.604 175.882 255.32 174.398C257.035 172.914 258.797 171.523 260.535 170.224C262.274 168.948 264.035 167.743 265.751 166.676C267.489 165.609 269.205 164.635 270.897 163.777C272.589 162.919 274.235 162.177 275.834 161.528C277.434 160.901 278.987 160.368 280.447 159.927C283.391 159.046 286.034 158.536 288.213 158.235C290.392 157.933 292.13 157.864 293.289 157.84C293.869 157.817 294.332 157.84 294.634 157.84C294.935 157.84 295.097 157.84 295.097 157.84C295.097 157.84 294.935 157.84 294.634 157.864C294.332 157.864 293.869 157.887 293.289 157.933C292.107 158.003 290.392 158.165 288.236 158.513C286.08 158.884 283.484 159.464 280.586 160.438C279.149 160.925 277.619 161.504 276.066 162.177C274.49 162.849 272.89 163.615 271.245 164.519C267.953 166.282 264.522 168.485 261.115 171.082C257.707 173.679 254.323 176.694 251.031 180.01C247.74 183.349 244.564 186.99 241.551 190.863C238.514 194.736 235.663 198.84 232.974 203.061C231.629 205.171 230.331 207.305 229.079 209.461C228.454 210.528 227.851 211.618 227.248 212.708C226.646 213.798 226.02 214.865 225.417 215.955C222.96 220.245 220.433 224.419 217.906 228.408C215.403 232.396 212.853 236.176 210.373 239.724C207.916 243.272 205.482 246.565 203.187 249.557C200.892 252.548 198.736 255.238 196.766 257.581C194.796 259.923 193.034 261.94 191.574 263.564C190.113 265.21 188.908 266.439 188.096 267.274C187.355 268.086 186.891 268.526 186.891 268.526Z" fill="#FFFCF5"/>
<path d="M189.232 285.107C189.232 285.107 189.673 284.62 190.507 283.716C191.342 282.811 192.547 281.466 194.077 279.773C195.607 278.081 197.461 275.994 199.548 273.582C201.657 271.17 203.998 268.434 206.525 265.442C209.075 262.451 211.787 259.181 214.615 255.679C217.443 252.177 220.364 248.444 223.354 244.548C226.321 240.652 229.311 236.547 232.209 232.304C232.951 231.26 233.646 230.17 234.365 229.103C235.083 228.013 235.779 226.923 236.474 225.834C236.822 225.277 237.169 224.72 237.494 224.187C237.842 223.63 238.189 223.074 238.514 222.517C239.186 221.404 239.835 220.268 240.507 219.132C243.22 214.61 246.256 210.273 249.478 206.215C252.7 202.157 256.177 198.4 259.724 194.968C261.509 193.252 263.294 191.628 265.125 190.098C266.956 188.567 268.764 187.129 270.596 185.808C272.427 184.463 274.235 183.233 276.043 182.097C277.851 180.961 279.636 179.94 281.374 179.013C283.113 178.085 284.828 177.25 286.474 176.532C288.12 175.813 289.719 175.187 291.226 174.676C294.263 173.633 296.975 172.96 299.247 172.566C301.518 172.172 303.326 172.056 304.555 172.009C305.181 171.986 305.644 171.986 305.969 171.986C306.293 171.986 306.456 171.986 306.456 171.986C306.456 171.986 306.293 171.986 305.969 172.009C305.644 172.009 305.181 172.033 304.578 172.079C303.349 172.172 301.565 172.381 299.316 172.821C297.091 173.285 294.402 174.027 291.435 175.14C289.951 175.697 288.398 176.369 286.776 177.134C285.153 177.9 283.484 178.735 281.792 179.709C278.384 181.633 274.838 183.952 271.268 186.642C269.483 187.987 267.698 189.448 265.913 190.979C264.128 192.509 262.367 194.133 260.628 195.849C257.128 199.258 253.767 203.038 250.568 207.05C248.968 209.067 247.438 211.131 245.955 213.265C244.471 215.398 243.08 217.601 241.736 219.804C241.064 220.94 240.392 222.054 239.719 223.19C239.395 223.746 239.047 224.303 238.699 224.86C238.352 225.416 238.004 225.973 237.656 226.529C236.938 227.619 236.242 228.732 235.524 229.822C234.782 230.889 234.086 231.979 233.345 233.046C230.401 237.289 227.364 241.371 224.351 245.267C221.337 249.163 218.324 252.85 215.449 256.305C212.575 259.761 209.77 262.984 207.174 265.929C204.578 268.874 202.144 271.541 199.965 273.883C197.786 276.225 195.885 278.243 194.309 279.913C192.733 281.582 191.458 282.858 190.6 283.739C189.696 284.643 189.232 285.107 189.232 285.107Z" fill="#FFFCF5"/>
<path d="M251.008 236.315C251.008 236.315 251.17 236.037 251.495 235.527C251.819 235.017 252.283 234.275 252.909 233.324C253.535 232.396 254.3 231.26 255.204 229.985C256.108 228.709 257.128 227.271 258.31 225.741C259.469 224.21 260.767 222.564 262.158 220.848C263.572 219.132 265.079 217.369 266.678 215.56C268.301 213.775 269.993 211.943 271.801 210.157C273.609 208.371 275.463 206.586 277.411 204.87C279.358 203.177 281.351 201.53 283.368 200C285.385 198.446 287.471 197.055 289.511 195.756C291.574 194.481 293.637 193.344 295.63 192.394C297.624 191.42 299.594 190.654 301.426 190.028C303.257 189.402 304.995 188.961 306.525 188.66C306.919 188.59 307.29 188.521 307.661 188.451C307.846 188.428 308.009 188.382 308.194 188.358C308.38 188.335 308.542 188.312 308.704 188.289C309.052 188.243 309.376 188.219 309.678 188.173C309.979 188.15 310.28 188.127 310.559 188.103C311.115 188.057 311.625 188.034 312.065 188.034C312.274 188.034 312.483 188.011 312.668 188.011C312.853 188.011 313.016 188.011 313.178 188.011C313.781 188.011 314.105 188.034 314.105 188.034C314.105 188.034 313.781 188.057 313.178 188.103C313.039 188.103 312.853 188.127 312.668 188.127C312.483 188.15 312.274 188.173 312.065 188.196C311.625 188.242 311.138 188.289 310.582 188.382C310.304 188.428 310.025 188.474 309.701 188.521C309.4 188.567 309.075 188.637 308.751 188.706C308.426 188.776 308.078 188.845 307.731 188.915C307.383 189.008 307.012 189.077 306.641 189.17C305.134 189.564 303.465 190.075 301.68 190.77C299.896 191.466 298.018 192.301 296.071 193.321C294.124 194.318 292.153 195.501 290.137 196.8C289.627 197.124 289.14 197.472 288.63 197.797C288.143 198.145 287.633 198.492 287.123 198.84C286.126 199.559 285.13 200.301 284.133 201.067C282.139 202.597 280.192 204.22 278.268 205.913C276.344 207.583 274.49 209.345 272.682 211.108C271.778 211.989 270.897 212.87 270.039 213.752C269.182 214.633 268.324 215.514 267.513 216.395C265.89 218.158 264.314 219.851 262.876 221.52C261.439 223.19 260.072 224.767 258.866 226.228C257.638 227.712 256.525 229.08 255.575 230.309C254.601 231.538 253.767 232.605 253.094 233.509C252.422 234.414 251.889 235.11 251.518 235.597C251.194 236.06 251.008 236.315 251.008 236.315Z" fill="#FFFCF5"/>
<path d="M186.891 301.317C186.822 301.317 186.775 301.317 186.706 301.294C186.335 301.178 186.126 300.807 186.219 300.436C189.812 287.774 187.656 273.837 185.199 264.375C182.533 254.102 178.963 246.751 178.917 246.681C178.755 246.334 178.894 245.916 179.242 245.754C179.589 245.591 180.007 245.731 180.169 246.078C180.215 246.148 183.831 253.615 186.543 264.027C189.047 273.651 191.249 287.867 187.563 300.83C187.471 301.108 187.192 301.317 186.891 301.317Z" fill="#30345E"/>
<path d="M292.872 215.444C292.872 215.444 292.988 215.421 293.196 215.352C293.405 215.282 293.706 215.166 294.077 215.027C294.448 214.888 294.912 214.679 295.422 214.47C295.932 214.239 296.511 213.983 297.114 213.659C297.74 213.38 298.389 213.009 299.084 212.662C299.432 212.476 299.78 212.267 300.151 212.082C300.521 211.873 300.892 211.688 301.263 211.456C301.634 211.247 302.005 211.015 302.399 210.806C302.585 210.69 302.793 210.574 302.979 210.459C303.164 210.343 303.373 210.227 303.558 210.111C303.952 209.879 304.323 209.647 304.717 209.415C305.111 209.16 305.482 208.928 305.876 208.673C306.27 208.418 306.664 208.186 307.035 207.931C307.406 207.676 307.8 207.421 308.171 207.166C308.542 206.91 308.913 206.679 309.307 206.423C309.678 206.168 310.025 205.936 310.396 205.681C310.744 205.449 311.115 205.194 311.439 204.963C311.787 204.731 312.135 204.499 312.436 204.267C313.085 203.803 313.711 203.386 314.267 202.991C314.847 202.597 315.357 202.249 315.821 201.925C316.284 201.6 316.701 201.322 317.026 201.09C317.35 200.858 317.629 200.696 317.814 200.58C318 200.464 318.092 200.394 318.092 200.394C318.092 200.394 318.023 200.487 317.86 200.626C317.698 200.788 317.49 201.02 317.188 201.298C316.91 201.577 316.539 201.925 316.145 202.319C315.936 202.504 315.728 202.713 315.496 202.945C315.264 203.177 315.009 203.386 314.754 203.617C314.221 204.081 313.665 204.568 313.039 205.078C312.436 205.589 311.764 206.099 311.069 206.632C310.721 206.91 310.373 207.166 310.002 207.444C309.631 207.699 309.26 207.977 308.89 208.232C308.519 208.487 308.125 208.766 307.754 209.021C307.36 209.276 306.966 209.531 306.572 209.786C306.177 210.041 305.783 210.273 305.389 210.528C304.995 210.76 304.578 210.992 304.184 211.224C303.396 211.688 302.585 212.105 301.796 212.499C301.402 212.708 301.008 212.894 300.637 213.056C300.243 213.218 299.872 213.404 299.502 213.566C298.76 213.867 298.041 214.146 297.392 214.378C296.743 214.61 296.117 214.795 295.561 214.934C295.005 215.073 294.518 215.189 294.124 215.259C293.915 215.305 293.753 215.328 293.591 215.352C293.428 215.375 293.289 215.398 293.196 215.398C292.988 215.444 292.872 215.444 292.872 215.444Z" fill="#FFFCF5"/>
<path d="M228.013 172.009C220.433 182.051 212.505 191.814 205.575 202.319C210.489 190.909 218.973 180.451 228.013 172.009Z" fill="#30345E"/>
<path d="M96.2789 40.7076C102.584 37.948 109.144 35.7449 115.658 33.5651C112.482 41.4033 107.985 51.6069 106.246 55.039C111.161 54.668 115.449 53.81 121.082 53.5317C115.055 55.2941 108.866 56.5464 102.7 57.7754C105.829 50.0764 108.379 44.6499 111.995 37.1595C108.68 38.0639 102.283 39.6409 96.2789 40.7076C96.6498 40.6612 96.6266 40.5685 96.2789 40.7076Z" fill="white"/>
<path d="M133.623 58.6567C137.308 57.7059 141.11 57.0566 144.865 56.5C142.431 60.4887 140.299 63.7817 137.586 67.5848C139.928 67.5848 142.686 67.4457 145.885 67.8399C142.431 68.2805 138.931 68.4428 135.454 68.5124C137.841 64.5933 139.58 61.8569 142.222 58.1001C140.438 58.1233 136.961 58.6335 133.623 58.6567C134.04 58.6567 134.04 58.5407 133.623 58.6567Z" fill="white"/>
<path d="M44.123 22.086C52.5375 18.6307 61.2301 15.8479 69.8764 13.0883C65.5417 23.4078 61.7401 31.8258 56.8259 41.8671C62.0183 41.1482 69.5751 39.9887 77.1087 39.5945C69.0883 41.7511 60.8824 43.2817 52.6998 44.789C57.0113 34.655 60.9056 26.6776 65.0781 17.2857C60.9056 18.3524 52.1434 20.625 44.123 22.086C44.633 21.9932 44.6098 21.9005 44.123 22.086Z" fill="white"/>
</svg>
