<svg width="252" height="34" viewBox="0 0 252 34" fill="none" xmlns="http://www.w3.org/2000/svg">
<path d="M81.4428 10.9293C83.135 9.643 85.0013 9.22064 87.003 9.34543C89.0336 9.47022 90.7742 10.219 92.07 11.8796C92.2344 11.726 92.3601 11.63 92.4664 11.5148C94.4971 9.56621 96.8952 8.90386 99.6608 9.45102C102.552 10.027 104.119 11.9852 105.202 14.5002C105.733 15.7481 105.83 17.0728 105.956 18.3878C106.372 22.5443 106.507 26.7199 106.352 30.8956C106.333 31.3755 106.285 31.8555 106.285 32.3354C106.285 32.681 106.12 32.8826 105.83 32.9978C104.341 33.6025 102.813 33.7753 101.247 33.3722C100.492 33.1802 100.289 32.8634 100.318 32.0763C100.425 29.2157 100.579 26.3552 100.647 23.4946C100.705 21.3156 100.657 19.1462 100.067 17.0248C99.9509 16.5928 99.7962 16.1704 99.5931 15.7769C98.7905 14.2026 97.253 13.7898 95.7445 14.7594C94.7002 15.4217 94.2554 16.4488 94.0716 17.6103C94.0039 18.0519 93.9846 18.503 93.9846 18.9446C93.9653 23.5042 93.9556 28.0638 93.9653 32.6234C93.9653 33.0266 93.8009 33.2186 93.4528 33.2954C91.9926 33.6409 90.5131 33.6793 89.053 33.305C88.2214 33.0938 88.0183 32.825 88.028 31.9803C88.0667 28.7645 88.1247 25.5488 88.1634 22.3331C88.1827 20.8164 88.1924 19.2902 88.1537 17.7735C88.1344 17.188 88.028 16.5928 87.8539 16.036C87.3898 14.5578 86.2874 13.9914 84.7692 14.385C83.1254 14.7978 82.2357 15.9593 81.907 17.4951C81.6265 18.8294 81.4525 20.2117 81.4332 21.5748C81.3848 25.1265 81.4332 28.6782 81.4525 32.2202C81.4622 33.2378 81.3461 33.4297 80.3114 33.5449C79.1511 33.6697 77.9617 33.8137 76.84 33.3242C76.5596 33.1994 76.2985 33.0458 76.0471 32.8826C75.6409 32.6138 75.4669 32.2394 75.4765 31.7403C75.5636 28.9277 75.6699 26.1152 75.7086 23.3026C75.7666 19.1462 75.7666 14.9897 75.786 10.8237C75.7956 9.95977 76.0181 9.643 76.869 9.44142C78.2034 9.12465 79.5185 9.25903 80.824 9.6334C81.1527 9.72939 81.3461 9.91178 81.3171 10.2861C81.3268 10.4781 81.3945 10.6605 81.4428 10.9293Z" fill="url(#paint0_linear_1_2450)"/>
<path d="M81.4428 10.9293C83.135 9.643 85.0013 9.22064 87.003 9.34543C89.0336 9.47022 90.7742 10.219 92.07 11.8796C92.2344 11.726 92.3601 11.63 92.4664 11.5148C94.4971 9.56621 96.8952 8.90386 99.6608 9.45102C102.552 10.027 104.119 11.9852 105.202 14.5002C105.733 15.7481 105.83 17.0728 105.956 18.3878C106.372 22.5443 106.507 26.7199 106.352 30.8956C106.333 31.3755 106.285 31.8555 106.285 32.3354C106.285 32.681 106.12 32.8826 105.83 32.9978C104.341 33.6025 102.813 33.7753 101.247 33.3722C100.492 33.1802 100.289 32.8634 100.318 32.0763C100.425 29.2157 100.579 26.3552 100.647 23.4946C100.705 21.3156 100.657 19.1462 100.067 17.0248C99.9509 16.5928 99.7962 16.1704 99.5931 15.7769C98.7905 14.2026 97.253 13.7898 95.7445 14.7594C94.7002 15.4217 94.2554 16.4488 94.0716 17.6103C94.0039 18.0519 93.9846 18.503 93.9846 18.9446C93.9653 23.5042 93.9556 28.0638 93.9653 32.6234C93.9653 33.0266 93.8009 33.2186 93.4528 33.2954C91.9926 33.6409 90.5131 33.6793 89.053 33.305C88.2214 33.0938 88.0183 32.825 88.028 31.9803C88.0667 28.7645 88.1247 25.5488 88.1634 22.3331C88.1827 20.8164 88.1924 19.2902 88.1537 17.7735C88.1344 17.188 88.028 16.5928 87.8539 16.036C87.3898 14.5578 86.2874 13.9914 84.7692 14.385C83.1254 14.7978 82.2357 15.9593 81.907 17.4951C81.6265 18.8294 81.4525 20.2117 81.4332 21.5748C81.3848 25.1265 81.4332 28.6782 81.4525 32.2202C81.4622 33.2378 81.3461 33.4297 80.3114 33.5449C79.1511 33.6697 77.9617 33.8137 76.84 33.3242C76.5596 33.1994 76.2985 33.0458 76.0471 32.8826C75.6409 32.6138 75.4669 32.2394 75.4765 31.7403C75.5636 28.9277 75.6699 26.1152 75.7086 23.3026C75.7666 19.1462 75.7666 14.9897 75.786 10.8237C75.7956 9.95977 76.0181 9.643 76.869 9.44142C78.2034 9.12465 79.5185 9.25903 80.824 9.6334C81.1527 9.72939 81.3461 9.91178 81.3171 10.2861C81.3268 10.4781 81.3945 10.6605 81.4428 10.9293Z" fill="white"/>
<path d="M0.80607 20.826C0.941447 16.7656 0.825409 12.7051 0.506305 8.64469C0.351587 6.68646 0.16786 4.72823 0.0228128 2.7604C-0.122235 0.888557 0.399937 0.322206 2.29522 0.303008C5.51528 0.27421 8.57095 0.888557 11.3559 2.55881C13.8603 4.06588 15.6783 6.1777 16.887 8.80787C18.5502 12.4268 18.9757 16.2568 18.6953 20.1925C18.5599 22.0355 18.2795 23.8402 17.4962 25.5392C16.2391 28.2654 14.3052 30.3868 11.6169 31.7403C10.0311 32.537 8.29052 32.969 6.52094 33.1322C4.95443 33.2762 3.36858 33.2282 1.80206 33.257C1.26055 33.2666 0.893098 32.9882 0.75772 32.4986C0.622343 31.9611 0.496635 31.4043 0.515974 30.8476C0.593333 27.5071 0.709371 24.1665 0.80607 20.826ZM13.5122 17.0056C13.4929 14.673 13.0964 12.5707 12.1875 10.5741C11.0271 8.03034 9.09312 6.37928 6.3759 5.64975C5.5733 5.43856 5.3799 5.63055 5.43792 6.43688C5.60231 8.56789 5.80537 10.7085 5.87306 12.8491C5.9891 16.6696 6.01811 20.4901 6.09547 24.3105C6.10514 24.6945 6.12448 25.0785 6.19217 25.4528C6.33722 26.3456 6.80137 26.6239 7.67165 26.3552C8.95774 25.9616 10.0698 25.2705 10.9691 24.2721C12.874 22.1603 13.4445 19.5877 13.5122 17.0056Z" fill="url(#paint1_linear_1_2450)"/>
<path d="M0.80607 20.826C0.941447 16.7656 0.825409 12.7051 0.506305 8.64469C0.351587 6.68646 0.16786 4.72823 0.0228128 2.7604C-0.122235 0.888557 0.399937 0.322206 2.29522 0.303008C5.51528 0.27421 8.57095 0.888557 11.3559 2.55881C13.8603 4.06588 15.6783 6.1777 16.887 8.80787C18.5502 12.4268 18.9757 16.2568 18.6953 20.1925C18.5599 22.0355 18.2795 23.8402 17.4962 25.5392C16.2391 28.2654 14.3052 30.3868 11.6169 31.7403C10.0311 32.537 8.29052 32.969 6.52094 33.1322C4.95443 33.2762 3.36858 33.2282 1.80206 33.257C1.26055 33.2666 0.893098 32.9882 0.75772 32.4986C0.622343 31.9611 0.496635 31.4043 0.515974 30.8476C0.593333 27.5071 0.709371 24.1665 0.80607 20.826ZM13.5122 17.0056C13.4929 14.673 13.0964 12.5707 12.1875 10.5741C11.0271 8.03034 9.09312 6.37928 6.3759 5.64975C5.5733 5.43856 5.3799 5.63055 5.43792 6.43688C5.60231 8.56789 5.80537 10.7085 5.87306 12.8491C5.9891 16.6696 6.01811 20.4901 6.09547 24.3105C6.10514 24.6945 6.12448 25.0785 6.19217 25.4528C6.33722 26.3456 6.80137 26.6239 7.67165 26.3552C8.95774 25.9616 10.0698 25.2705 10.9691 24.2721C12.874 22.1603 13.4445 19.5877 13.5122 17.0056Z" fill="white"/>
<path d="M122.066 20.8356C122.201 16.756 122.085 12.6763 121.766 8.60629C121.611 6.65766 121.437 4.71863 121.283 2.76999C121.138 0.888557 121.65 0.312607 123.536 0.293409C126.765 0.255012 129.84 0.878958 132.635 2.56841C135.149 4.09468 136.967 6.2257 138.166 8.86547C139.81 12.4748 140.226 16.2856 139.945 20.2021C139.81 22.1027 139.501 23.9458 138.679 25.6736C137.412 28.3422 135.497 30.406 132.848 31.7307C131.262 32.5178 129.521 32.9498 127.752 33.113C126.204 33.2474 124.638 33.1994 123.081 33.2378C122.52 33.2474 122.143 32.9594 122.008 32.4506C121.872 31.9323 121.766 31.3851 121.776 30.8476C121.853 27.5263 121.969 24.1857 122.066 20.8356ZM134.772 17.0152C134.743 14.6346 134.356 12.5515 133.447 10.5645C132.277 8.02074 130.353 6.36968 127.636 5.64015C126.833 5.42896 126.649 5.63055 126.707 6.43688C126.872 8.56789 127.075 10.7085 127.142 12.8491C127.259 16.6696 127.288 20.4901 127.365 24.3105C127.375 24.7041 127.394 25.1073 127.471 25.5008C127.626 26.336 128.08 26.6047 128.902 26.3648C130.208 25.9712 131.33 25.2705 132.248 24.2625C134.153 22.1315 134.714 19.5493 134.772 17.0152Z" fill="url(#paint2_linear_1_2450)"/>
<path d="M122.066 20.8356C122.201 16.756 122.085 12.6763 121.766 8.60629C121.611 6.65766 121.437 4.71863 121.283 2.76999C121.138 0.888557 121.65 0.312607 123.536 0.293409C126.765 0.255012 129.84 0.878958 132.635 2.56841C135.149 4.09468 136.967 6.2257 138.166 8.86547C139.81 12.4748 140.226 16.2856 139.945 20.2021C139.81 22.1027 139.501 23.9458 138.679 25.6736C137.412 28.3422 135.497 30.406 132.848 31.7307C131.262 32.5178 129.521 32.9498 127.752 33.113C126.204 33.2474 124.638 33.1994 123.081 33.2378C122.52 33.2474 122.143 32.9594 122.008 32.4506C121.872 31.9323 121.766 31.3851 121.776 30.8476C121.853 27.5263 121.969 24.1857 122.066 20.8356ZM134.772 17.0152C134.743 14.6346 134.356 12.5515 133.447 10.5645C132.277 8.02074 130.353 6.36968 127.636 5.64015C126.833 5.42896 126.649 5.63055 126.707 6.43688C126.872 8.56789 127.075 10.7085 127.142 12.8491C127.259 16.6696 127.288 20.4901 127.365 24.3105C127.375 24.7041 127.394 25.1073 127.471 25.5008C127.626 26.336 128.08 26.6047 128.902 26.3648C130.208 25.9712 131.33 25.2705 132.248 24.2625C134.153 22.1315 134.714 19.5493 134.772 17.0152Z" fill="white"/>
<path d="M215.525 19.2998C215.554 22.6019 215.592 27.5935 215.631 32.5754C215.641 33.2186 215.534 33.401 214.887 33.4489C213.813 33.5257 212.74 33.6025 211.666 33.5353C210.864 33.4873 210.796 33.2858 210.758 32.4698C210.748 32.2491 210.661 32.0283 210.612 31.8075C210.419 31.9131 210.216 31.9899 210.042 32.1243C206.996 34.5337 202.577 33.9097 200.15 30.7132C198.728 28.8317 198.042 26.6527 197.781 24.3585C197.404 21.1044 197.694 17.9079 198.835 14.817C199.599 12.7531 200.778 10.9869 202.838 9.96937C204.917 8.94226 207.015 8.95186 209.123 9.93098C209.239 9.98857 209.355 10.0558 209.471 10.1038C209.926 10.3053 210.119 10.1998 210.11 9.7102C210.042 7.3584 209.945 5.0162 209.878 2.6644C209.858 2.08845 209.839 1.5125 209.926 0.946152C210.023 0.331805 210.419 0.0342309 211.038 0.00543338C212.179 -0.0425625 213.243 0.226214 214.19 0.85976C214.742 1.22453 215.032 1.76208 215.051 2.43402C215.186 7.51199 215.331 12.5611 215.525 19.2998ZM210.235 21.0084C210.197 20.3749 210.168 19.7317 210.119 19.0982C210.023 17.9655 209.878 16.8424 209.336 15.8153C208.205 13.6459 205.255 13.4827 203.902 15.5177C203.679 15.8441 203.486 16.2088 203.35 16.5832C202.558 18.7238 202.364 20.9316 202.741 23.1874C202.954 24.4257 203.321 25.616 204.172 26.5951C205.671 28.3038 208.708 27.7854 209.549 25.6736C210.139 24.1665 210.361 22.6115 210.235 21.0084Z" fill="url(#paint3_linear_1_2450)"/>
<path d="M215.525 19.2998C215.554 22.6019 215.592 27.5935 215.631 32.5754C215.641 33.2186 215.534 33.401 214.887 33.4489C213.813 33.5257 212.74 33.6025 211.666 33.5353C210.864 33.4873 210.796 33.2858 210.758 32.4698C210.748 32.2491 210.661 32.0283 210.612 31.8075C210.419 31.9131 210.216 31.9899 210.042 32.1243C206.996 34.5337 202.577 33.9097 200.15 30.7132C198.728 28.8317 198.042 26.6527 197.781 24.3585C197.404 21.1044 197.694 17.9079 198.835 14.817C199.599 12.7531 200.778 10.9869 202.838 9.96937C204.917 8.94226 207.015 8.95186 209.123 9.93098C209.239 9.98857 209.355 10.0558 209.471 10.1038C209.926 10.3053 210.119 10.1998 210.11 9.7102C210.042 7.3584 209.945 5.0162 209.878 2.6644C209.858 2.08845 209.839 1.5125 209.926 0.946152C210.023 0.331805 210.419 0.0342309 211.038 0.00543338C212.179 -0.0425625 213.243 0.226214 214.19 0.85976C214.742 1.22453 215.032 1.76208 215.051 2.43402C215.186 7.51199 215.331 12.5611 215.525 19.2998ZM210.235 21.0084C210.197 20.3749 210.168 19.7317 210.119 19.0982C210.023 17.9655 209.878 16.8424 209.336 15.8153C208.205 13.6459 205.255 13.4827 203.902 15.5177C203.679 15.8441 203.486 16.2088 203.35 16.5832C202.558 18.7238 202.364 20.9316 202.741 23.1874C202.954 24.4257 203.321 25.616 204.172 26.5951C205.671 28.3038 208.708 27.7854 209.549 25.6736C210.139 24.1665 210.361 22.6115 210.235 21.0084Z" fill="white"/>
<path d="M53.8838 22.3907C53.9708 19.3094 54.522 16.3144 56.2722 13.6555C57.481 11.8124 59.0572 10.3821 61.2329 9.72939C62.9348 9.22064 64.54 9.56621 66.0678 10.4013C66.8704 10.8429 66.9187 10.8237 67.2282 9.98857C67.4022 9.50861 67.7407 9.23984 68.2242 9.35503C69.0751 9.55661 69.9357 9.77739 70.7383 10.1134C71.5603 10.4685 71.9084 11.1789 71.8697 12.1004C71.773 14.6538 71.6763 17.2167 71.6666 19.7701C71.657 23.8594 72.0534 27.9102 72.7883 31.9323C72.9044 32.585 72.798 32.9018 72.1985 33.1994C71.1251 33.7369 69.9841 34.0729 68.7657 33.9865C68.0308 33.9385 67.8374 33.7561 67.6343 33.0362C67.3829 32.1531 67.3926 32.1531 66.59 32.6138C62.9541 34.6872 57.8001 34.1113 55.3246 29.0525C54.2996 26.9695 53.9128 24.7329 53.8838 22.3907ZM66.3095 20.5765C66.3095 20.1445 66.3482 19.7125 66.2999 19.2806C66.1742 18.2247 66.1065 17.14 65.8357 16.1128C65.5456 14.9993 64.685 14.4714 63.5343 14.4138C61.9388 14.3274 60.9138 15.1529 60.2175 16.4584C59.1635 18.4262 58.8348 20.5669 58.9605 22.7747C59.0281 24.0514 59.3086 25.2801 60.0048 26.3744C60.585 27.2767 61.3876 27.843 62.4996 27.8718C64.2209 27.9294 65.3426 27.0463 65.8647 25.2417C66.2902 23.7154 66.3095 22.1507 66.3095 20.5765Z" fill="url(#paint4_linear_1_2450)"/>
<path d="M53.8838 22.3907C53.9708 19.3094 54.522 16.3144 56.2722 13.6555C57.481 11.8124 59.0572 10.3821 61.2329 9.72939C62.9348 9.22064 64.54 9.56621 66.0678 10.4013C66.8704 10.8429 66.9187 10.8237 67.2282 9.98857C67.4022 9.50861 67.7407 9.23984 68.2242 9.35503C69.0751 9.55661 69.9357 9.77739 70.7383 10.1134C71.5603 10.4685 71.9084 11.1789 71.8697 12.1004C71.773 14.6538 71.6763 17.2167 71.6666 19.7701C71.657 23.8594 72.0534 27.9102 72.7883 31.9323C72.9044 32.585 72.798 32.9018 72.1985 33.1994C71.1251 33.7369 69.9841 34.0729 68.7657 33.9865C68.0308 33.9385 67.8374 33.7561 67.6343 33.0362C67.3829 32.1531 67.3926 32.1531 66.59 32.6138C62.9541 34.6872 57.8001 34.1113 55.3246 29.0525C54.2996 26.9695 53.9128 24.7329 53.8838 22.3907ZM66.3095 20.5765C66.3095 20.1445 66.3482 19.7125 66.2999 19.2806C66.1742 18.2247 66.1065 17.14 65.8357 16.1128C65.5456 14.9993 64.685 14.4714 63.5343 14.4138C61.9388 14.3274 60.9138 15.1529 60.2175 16.4584C59.1635 18.4262 58.8348 20.5669 58.9605 22.7747C59.0281 24.0514 59.3086 25.2801 60.0048 26.3744C60.585 27.2767 61.3876 27.843 62.4996 27.8718C64.2209 27.9294 65.3426 27.0463 65.8647 25.2417C66.2902 23.7154 66.3095 22.1507 66.3095 20.5765Z" fill="white"/>
<path d="M52.327 19.1462C52.2979 19.6069 52.2689 20.0677 52.2303 20.5285C52.1722 21.2196 51.8628 21.642 51.1859 21.7956C50.6444 21.9203 50.0739 21.9683 49.513 21.9779C46.5154 22.0259 43.5177 22.0643 40.5201 22.0739C40.0076 22.0739 39.9206 22.2755 39.9109 22.7363C39.9012 24.2817 40.317 25.6448 41.5354 26.6815C43.4114 28.2942 46.5057 28.131 48.4107 26.2976C48.9135 25.808 49.339 25.2321 49.7838 24.6945C50.4027 23.9554 51.0602 24.0226 51.4373 24.9057C52.0562 26.3456 52.3463 27.8142 51.5437 29.2925C50.0352 32.0571 47.7241 33.4777 44.5427 33.6409C39.7562 33.8905 36.9326 30.7036 35.6852 27.4111C34.8246 25.1457 34.7375 22.7843 34.9309 20.4133C35.1437 17.8023 35.7915 15.3161 37.2807 13.0987C38.4217 11.3901 39.8529 10.0174 41.9029 9.45102C45.6451 8.43351 49.7064 10.4301 51.2536 14.0202C51.9788 15.7097 52.3076 17.3223 52.327 19.1462ZM43.7788 17.7159C43.7788 17.6967 43.7788 17.6775 43.7788 17.6583C44.7651 17.6583 45.7418 17.6487 46.7281 17.6679C47.1439 17.6775 47.2986 17.5143 47.3083 17.1016C47.347 15.7097 46.5541 14.4426 45.2776 13.8954C44.0109 13.3579 42.5314 13.6747 41.5548 14.6922C40.8972 15.3737 40.5684 16.2184 40.3847 17.1208C40.288 17.6199 40.3654 17.7159 40.8779 17.7159C41.8449 17.7159 42.8118 17.7159 43.7788 17.7159Z" fill="url(#paint5_linear_1_2450)"/>
<path d="M52.327 19.1462C52.2979 19.6069 52.2689 20.0677 52.2303 20.5285C52.1722 21.2196 51.8628 21.642 51.1859 21.7956C50.6444 21.9203 50.0739 21.9683 49.513 21.9779C46.5154 22.0259 43.5177 22.0643 40.5201 22.0739C40.0076 22.0739 39.9206 22.2755 39.9109 22.7363C39.9012 24.2817 40.317 25.6448 41.5354 26.6815C43.4114 28.2942 46.5057 28.131 48.4107 26.2976C48.9135 25.808 49.339 25.2321 49.7838 24.6945C50.4027 23.9554 51.0602 24.0226 51.4373 24.9057C52.0562 26.3456 52.3463 27.8142 51.5437 29.2925C50.0352 32.0571 47.7241 33.4777 44.5427 33.6409C39.7562 33.8905 36.9326 30.7036 35.6852 27.4111C34.8246 25.1457 34.7375 22.7843 34.9309 20.4133C35.1437 17.8023 35.7915 15.3161 37.2807 13.0987C38.4217 11.3901 39.8529 10.0174 41.9029 9.45102C45.6451 8.43351 49.7064 10.4301 51.2536 14.0202C51.9788 15.7097 52.3076 17.3223 52.327 19.1462ZM43.7788 17.7159C43.7788 17.6967 43.7788 17.6775 43.7788 17.6583C44.7651 17.6583 45.7418 17.6487 46.7281 17.6679C47.1439 17.6775 47.2986 17.5143 47.3083 17.1016C47.347 15.7097 46.5541 14.4426 45.2776 13.8954C44.0109 13.3579 42.5314 13.6747 41.5548 14.6922C40.8972 15.3737 40.5684 16.2184 40.3847 17.1208C40.288 17.6199 40.3654 17.7159 40.8779 17.7159C41.8449 17.7159 42.8118 17.7159 43.7788 17.7159Z" fill="white"/>
<path d="M141.879 22.1027C141.957 18.9446 142.498 15.8537 144.316 13.1083C145.457 11.39 146.879 10.0174 148.929 9.46062C152.69 8.42391 156.761 10.4397 158.308 14.0586C159.198 16.1512 159.517 18.3207 159.275 20.5765C159.208 21.2292 158.86 21.6708 158.241 21.8051C157.699 21.9203 157.129 21.9779 156.568 21.9875C153.56 22.0355 150.543 22.0739 147.526 22.0835C147.072 22.0835 146.956 22.2563 146.956 22.6787C146.937 24.2433 147.343 25.6256 148.571 26.6719C150.447 28.2846 153.541 28.131 155.446 26.3072C155.949 25.8176 156.403 25.2705 156.819 24.7041C157.312 24.0226 158.173 24.0418 158.521 24.9345C159.092 26.4224 159.391 27.8814 158.56 29.3693C157.022 32.1147 154.692 33.4969 151.51 33.6505C146.869 33.8617 144.026 30.7804 142.73 27.4303C142.063 25.7216 141.937 23.9458 141.879 22.1027ZM150.834 17.7159C150.834 17.6967 150.834 17.6775 150.834 17.6583C151.82 17.6583 152.797 17.6487 153.783 17.6679C154.17 17.6775 154.324 17.5239 154.344 17.1304C154.402 15.7385 153.618 14.4714 152.342 13.905C151.095 13.3579 149.625 13.6459 148.648 14.6346C147.952 15.3353 147.614 16.1992 147.42 17.14C147.323 17.6103 147.401 17.7159 147.894 17.7159C148.871 17.7159 149.857 17.7159 150.834 17.7159Z" fill="url(#paint6_linear_1_2450)"/>
<path d="M141.879 22.1027C141.957 18.9446 142.498 15.8537 144.316 13.1083C145.457 11.39 146.879 10.0174 148.929 9.46062C152.69 8.42391 156.761 10.4397 158.308 14.0586C159.198 16.1512 159.517 18.3207 159.275 20.5765C159.208 21.2292 158.86 21.6708 158.241 21.8051C157.699 21.9203 157.129 21.9779 156.568 21.9875C153.56 22.0355 150.543 22.0739 147.526 22.0835C147.072 22.0835 146.956 22.2563 146.956 22.6787C146.937 24.2433 147.343 25.6256 148.571 26.6719C150.447 28.2846 153.541 28.131 155.446 26.3072C155.949 25.8176 156.403 25.2705 156.819 24.7041C157.312 24.0226 158.173 24.0418 158.521 24.9345C159.092 26.4224 159.391 27.8814 158.56 29.3693C157.022 32.1147 154.692 33.4969 151.51 33.6505C146.869 33.8617 144.026 30.7804 142.73 27.4303C142.063 25.7216 141.937 23.9458 141.879 22.1027ZM150.834 17.7159C150.834 17.6967 150.834 17.6775 150.834 17.6583C151.82 17.6583 152.797 17.6487 153.783 17.6679C154.17 17.6775 154.324 17.5239 154.344 17.1304C154.402 15.7385 153.618 14.4714 152.342 13.905C151.095 13.3579 149.625 13.6459 148.648 14.6346C147.952 15.3353 147.614 16.1992 147.42 17.14C147.323 17.6103 147.401 17.7159 147.894 17.7159C148.871 17.7159 149.857 17.7159 150.834 17.7159Z" fill="white"/>
<path d="M217.788 22.1219C217.875 18.9158 218.416 15.8249 220.244 13.0891C221.452 11.2749 222.99 9.82539 225.204 9.37422C229.111 8.59669 232.795 10.6701 234.217 14.0394C235.106 16.132 235.425 18.3015 235.193 20.5573C235.126 21.21 234.797 21.6612 234.168 21.7956C233.607 21.9203 233.027 21.9683 232.447 21.9779C229.449 22.0259 226.452 22.0643 223.454 22.0739C222.971 22.0739 222.874 22.2659 222.864 22.6979C222.845 24.2625 223.27 25.6352 224.498 26.6815C226.365 28.2654 229.44 28.1118 231.335 26.3072C231.809 25.856 232.254 25.3568 232.611 24.8097C233.143 24.0226 234.043 23.869 234.478 25.0785C235 26.5087 235.242 27.9198 234.458 29.3309C232.921 32.0763 230.6 33.4681 227.409 33.6217C222.758 33.8425 219.925 30.7612 218.619 27.4207C217.971 25.7216 217.846 23.9266 217.788 22.1219ZM226.751 17.7159C226.751 17.6967 226.751 17.6775 226.751 17.6583C227.718 17.6583 228.685 17.6391 229.652 17.6679C230.097 17.6775 230.242 17.5047 230.252 17.0728C230.271 15.6713 229.478 14.4138 228.192 13.8858C226.926 13.3579 225.446 13.6843 224.479 14.7114C223.831 15.4025 223.512 16.2472 223.328 17.1496C223.232 17.6103 223.319 17.7159 223.812 17.7159C224.788 17.7159 225.775 17.7159 226.751 17.7159Z" fill="url(#paint7_linear_1_2450)"/>
<path d="M217.788 22.1219C217.875 18.9158 218.416 15.8249 220.244 13.0891C221.452 11.2749 222.99 9.82539 225.204 9.37422C229.111 8.59669 232.795 10.6701 234.217 14.0394C235.106 16.132 235.425 18.3015 235.193 20.5573C235.126 21.21 234.797 21.6612 234.168 21.7956C233.607 21.9203 233.027 21.9683 232.447 21.9779C229.449 22.0259 226.452 22.0643 223.454 22.0739C222.971 22.0739 222.874 22.2659 222.864 22.6979C222.845 24.2625 223.27 25.6352 224.498 26.6815C226.365 28.2654 229.44 28.1118 231.335 26.3072C231.809 25.856 232.254 25.3568 232.611 24.8097C233.143 24.0226 234.043 23.869 234.478 25.0785C235 26.5087 235.242 27.9198 234.458 29.3309C232.921 32.0763 230.6 33.4681 227.409 33.6217C222.758 33.8425 219.925 30.7612 218.619 27.4207C217.971 25.7216 217.846 23.9266 217.788 22.1219ZM226.751 17.7159C226.751 17.6967 226.751 17.6775 226.751 17.6583C227.718 17.6583 228.685 17.6391 229.652 17.6679C230.097 17.6775 230.242 17.5047 230.252 17.0728C230.271 15.6713 229.478 14.4138 228.192 13.8858C226.926 13.3579 225.446 13.6843 224.479 14.7114C223.831 15.4025 223.512 16.2472 223.328 17.1496C223.232 17.6103 223.319 17.7159 223.812 17.7159C224.788 17.7159 225.775 17.7159 226.751 17.7159Z" fill="white"/>
<path d="M196.079 21.8339C196.03 24.5217 195.779 26.7583 194.841 28.8509C193.507 31.8171 191.283 33.6121 187.927 33.7081C184.446 33.8137 181.864 32.2874 180.249 29.1965C179.389 27.5359 179.002 25.7408 178.808 23.9074C178.518 21.2196 178.702 18.5702 179.563 15.9977C180.133 14.2794 180.955 12.6955 182.27 11.4092C185.432 8.29912 190.519 8.72148 193.139 12.2924C194.773 14.5098 195.537 17.044 195.895 19.7221C196.011 20.5573 196.05 21.402 196.079 21.8339ZM190.857 21.3252C190.77 20.3845 190.712 19.4438 190.577 18.5126C190.403 17.3511 190.074 16.228 189.31 15.2873C188.333 14.097 186.709 13.953 185.616 15.0473C185.123 15.5465 184.707 16.18 184.427 16.8232C183.537 18.8774 183.392 21.0276 183.779 23.2162C183.991 24.4449 184.378 25.6064 185.22 26.5663C185.945 27.3919 186.854 27.7182 187.956 27.4879C189.136 27.2383 189.784 26.4224 190.199 25.376C190.722 24.0802 190.828 22.7171 190.857 21.3252Z" fill="url(#paint8_linear_1_2450)"/>
<path d="M196.079 21.8339C196.03 24.5217 195.779 26.7583 194.841 28.8509C193.507 31.8171 191.283 33.6121 187.927 33.7081C184.446 33.8137 181.864 32.2874 180.249 29.1965C179.389 27.5359 179.002 25.7408 178.808 23.9074C178.518 21.2196 178.702 18.5702 179.563 15.9977C180.133 14.2794 180.955 12.6955 182.27 11.4092C185.432 8.29912 190.519 8.72148 193.139 12.2924C194.773 14.5098 195.537 17.044 195.895 19.7221C196.011 20.5573 196.05 21.402 196.079 21.8339ZM190.857 21.3252C190.77 20.3845 190.712 19.4438 190.577 18.5126C190.403 17.3511 190.074 16.228 189.31 15.2873C188.333 14.097 186.709 13.953 185.616 15.0473C185.123 15.5465 184.707 16.18 184.427 16.8232C183.537 18.8774 183.392 21.0276 183.779 23.2162C183.991 24.4449 184.378 25.6064 185.22 26.5663C185.945 27.3919 186.854 27.7182 187.956 27.4879C189.136 27.2383 189.784 26.4224 190.199 25.376C190.722 24.0802 190.828 22.7171 190.857 21.3252Z" fill="white"/>
<path d="M160.968 22.4963C161.074 19.1942 161.48 16.2376 162.989 13.5595C164.13 11.534 165.735 10.0366 168.075 9.44142C171.015 8.69268 174.322 9.97897 175.956 12.5228C176.014 12.6187 176.072 12.7147 176.14 12.8107C176.923 14.0682 176.865 14.6346 175.849 15.6905C175.53 16.0265 175.231 16.3816 174.873 16.6792C174.293 17.1592 173.848 17.0344 173.548 16.3624C172.939 15.0089 171.885 14.241 170.405 14.1834C168.965 14.1258 167.872 14.7978 167.147 16.0264C165.986 17.9847 165.57 20.0869 165.909 22.3427C166.025 23.1298 166.16 23.917 166.325 24.6945C166.383 24.9825 166.528 25.2705 166.653 25.5392C168.172 28.9661 172.117 28.179 173.538 26.2496C173.964 25.6736 174.341 25.0593 174.766 24.4737C175.376 23.6386 175.859 23.6386 176.526 24.4257C177.416 25.4912 177.609 26.7295 177.213 27.9966C176.652 29.8013 175.714 31.3851 174.09 32.4794C171.324 34.3417 167.214 34.0537 164.613 31.7979C162.602 30.0508 161.586 27.7854 161.209 25.2033C161.064 24.2241 161.026 23.2162 160.968 22.4963Z" fill="url(#paint9_linear_1_2450)"/>
<path d="M160.968 22.4963C161.074 19.1942 161.48 16.2376 162.989 13.5595C164.13 11.534 165.735 10.0366 168.075 9.44142C171.015 8.69268 174.322 9.97897 175.956 12.5228C176.014 12.6187 176.072 12.7147 176.14 12.8107C176.923 14.0682 176.865 14.6346 175.849 15.6905C175.53 16.0265 175.231 16.3816 174.873 16.6792C174.293 17.1592 173.848 17.0344 173.548 16.3624C172.939 15.0089 171.885 14.241 170.405 14.1834C168.965 14.1258 167.872 14.7978 167.147 16.0264C165.986 17.9847 165.57 20.0869 165.909 22.3427C166.025 23.1298 166.16 23.917 166.325 24.6945C166.383 24.9825 166.528 25.2705 166.653 25.5392C168.172 28.9661 172.117 28.179 173.538 26.2496C173.964 25.6736 174.341 25.0593 174.766 24.4737C175.376 23.6386 175.859 23.6386 176.526 24.4257C177.416 25.4912 177.609 26.7295 177.213 27.9966C176.652 29.8013 175.714 31.3851 174.09 32.4794C171.324 34.3417 167.214 34.0537 164.613 31.7979C162.602 30.0508 161.586 27.7854 161.209 25.2033C161.064 24.2241 161.026 23.2162 160.968 22.4963Z" fill="white"/>
<path d="M27.0307 10.8525C27.2821 10.6893 27.4271 10.5933 27.5818 10.5069C29.7672 9.23024 32.0977 8.84627 34.5441 9.53741C36.0139 9.95017 36.188 10.4685 35.3951 11.7644C34.7182 12.8683 33.9833 13.953 32.8422 14.6634C32.6392 14.7882 32.2814 14.865 32.088 14.769C30.8793 14.1546 29.8156 14.529 28.8389 15.2393C27.9977 15.8441 27.5045 16.6792 27.5045 17.7639C27.4755 21.9491 27.4368 26.144 27.3981 30.3292C27.3884 30.886 27.3594 31.4523 27.3788 32.0091C27.3981 32.5082 27.1757 32.8538 26.7309 33.0266C25.2901 33.6121 23.7913 33.6889 22.2731 33.401C21.6639 33.2858 21.4705 32.9594 21.4705 32.3258C21.4995 27.7854 21.5479 23.245 21.5479 18.7046C21.5479 16.0936 21.4898 13.4923 21.4318 10.8813C21.4222 10.3533 21.6252 10.075 22.0797 9.90218C23.4915 9.39342 24.942 9.19184 26.4408 9.31663C26.7986 9.34543 26.9533 9.51821 26.9533 9.87338C26.963 10.1806 27.0017 10.4685 27.0307 10.8525Z" fill="url(#paint10_linear_1_2450)"/>
<path d="M27.0307 10.8525C27.2821 10.6893 27.4271 10.5933 27.5818 10.5069C29.7672 9.23024 32.0977 8.84627 34.5441 9.53741C36.0139 9.95017 36.188 10.4685 35.3951 11.7644C34.7182 12.8683 33.9833 13.953 32.8422 14.6634C32.6392 14.7882 32.2814 14.865 32.088 14.769C30.8793 14.1546 29.8156 14.529 28.8389 15.2393C27.9977 15.8441 27.5045 16.6792 27.5045 17.7639C27.4755 21.9491 27.4368 26.144 27.3981 30.3292C27.3884 30.886 27.3594 31.4523 27.3788 32.0091C27.3981 32.5082 27.1757 32.8538 26.7309 33.0266C25.2901 33.6121 23.7913 33.6889 22.2731 33.401C21.6639 33.2858 21.4705 32.9594 21.4705 32.3258C21.4995 27.7854 21.5479 23.245 21.5479 18.7046C21.5479 16.0936 21.4898 13.4923 21.4318 10.8813C21.4222 10.3533 21.6252 10.075 22.0797 9.90218C23.4915 9.39342 24.942 9.19184 26.4408 9.31663C26.7986 9.34543 26.9533 9.51821 26.9533 9.87338C26.963 10.1806 27.0017 10.4685 27.0307 10.8525Z" fill="white"/>
<path d="M243.152 10.8813C244.457 9.94058 245.782 9.47022 247.203 9.29743C248.557 9.13424 249.911 9.14384 251.187 9.72939C252.048 10.123 252.202 10.4877 251.758 11.3133C251.061 12.5995 250.249 13.8186 248.992 14.6442C248.789 14.7786 248.431 14.8554 248.238 14.769C246.797 14.0778 245.637 14.6058 244.592 15.5657C243.973 16.132 243.645 16.8616 243.635 17.7351C243.616 21.9395 243.567 26.144 243.529 30.3484C243.519 30.9052 243.49 31.4715 243.509 32.0283C243.519 32.5082 243.297 32.8442 242.881 33.0074C241.421 33.6025 239.912 33.6889 238.375 33.3913C237.785 33.2762 237.601 32.9594 237.601 32.345C237.63 27.8046 237.678 23.2642 237.678 18.7238C237.678 16.1128 237.62 13.5115 237.562 10.9005C237.553 10.3533 237.756 10.0654 238.239 9.89258C239.641 9.39342 241.072 9.20144 242.562 9.31663C242.948 9.34543 243.103 9.52781 243.093 9.90218C243.084 10.1902 243.122 10.4685 243.152 10.8813Z" fill="url(#paint11_linear_1_2450)"/>
<path d="M243.152 10.8813C244.457 9.94058 245.782 9.47022 247.203 9.29743C248.557 9.13424 249.911 9.14384 251.187 9.72939C252.048 10.123 252.202 10.4877 251.758 11.3133C251.061 12.5995 250.249 13.8186 248.992 14.6442C248.789 14.7786 248.431 14.8554 248.238 14.769C246.797 14.0778 245.637 14.6058 244.592 15.5657C243.973 16.132 243.645 16.8616 243.635 17.7351C243.616 21.9395 243.567 26.144 243.529 30.3484C243.519 30.9052 243.49 31.4715 243.509 32.0283C243.519 32.5082 243.297 32.8442 242.881 33.0074C241.421 33.6025 239.912 33.6889 238.375 33.3913C237.785 33.2762 237.601 32.9594 237.601 32.345C237.63 27.8046 237.678 23.2642 237.678 18.7238C237.678 16.1128 237.62 13.5115 237.562 10.9005C237.553 10.3533 237.756 10.0654 238.239 9.89258C239.641 9.39342 241.072 9.20144 242.562 9.31663C242.948 9.34543 243.103 9.52781 243.093 9.90218C243.084 10.1902 243.122 10.4685 243.152 10.8813Z" fill="white"/>
<defs>
<linearGradient id="paint0_linear_1_2450" x1="61" y1="17" x2="238" y2="26" gradientUnits="userSpaceOnUse">
<stop stop-color="#AD3AF8"/>
<stop offset="1" stop-color="#0022AE"/>
</linearGradient>
<linearGradient id="paint1_linear_1_2450" x1="61" y1="17" x2="238" y2="26" gradientUnits="userSpaceOnUse">
<stop stop-color="#AD3AF8"/>
<stop offset="1" stop-color="#0022AE"/>
</linearGradient>
<linearGradient id="paint2_linear_1_2450" x1="61" y1="17" x2="238" y2="26" gradientUnits="userSpaceOnUse">
<stop stop-color="#AD3AF8"/>
<stop offset="1" stop-color="#0022AE"/>
</linearGradient>
<linearGradient id="paint3_linear_1_2450" x1="61" y1="17" x2="238" y2="26" gradientUnits="userSpaceOnUse">
<stop stop-color="#AD3AF8"/>
<stop offset="1" stop-color="#0022AE"/>
</linearGradient>
<linearGradient id="paint4_linear_1_2450" x1="61" y1="17" x2="238" y2="26" gradientUnits="userSpaceOnUse">
<stop stop-color="#AD3AF8"/>
<stop offset="1" stop-color="#0022AE"/>
</linearGradient>
<linearGradient id="paint5_linear_1_2450" x1="61" y1="17" x2="238" y2="26" gradientUnits="userSpaceOnUse">
<stop stop-color="#AD3AF8"/>
<stop offset="1" stop-color="#0022AE"/>
</linearGradient>
<linearGradient id="paint6_linear_1_2450" x1="61" y1="17" x2="238" y2="26" gradientUnits="userSpaceOnUse">
<stop stop-color="#AD3AF8"/>
<stop offset="1" stop-color="#0022AE"/>
</linearGradient>
<linearGradient id="paint7_linear_1_2450" x1="61" y1="17" x2="238" y2="26" gradientUnits="userSpaceOnUse">
<stop stop-color="#AD3AF8"/>
<stop offset="1" stop-color="#0022AE"/>
</linearGradient>
<linearGradient id="paint8_linear_1_2450" x1="61" y1="17" x2="238" y2="26" gradientUnits="userSpaceOnUse">
<stop stop-color="#AD3AF8"/>
<stop offset="1" stop-color="#0022AE"/>
</linearGradient>
<linearGradient id="paint9_linear_1_2450" x1="61" y1="17" x2="238" y2="26" gradientUnits="userSpaceOnUse">
<stop stop-color="#AD3AF8"/>
<stop offset="1" stop-color="#0022AE"/>
</linearGradient>
<linearGradient id="paint10_linear_1_2450" x1="61" y1="17" x2="238" y2="26" gradientUnits="userSpaceOnUse">
<stop stop-color="#AD3AF8"/>
<stop offset="1" stop-color="#0022AE"/>
</linearGradient>
<linearGradient id="paint11_linear_1_2450" x1="61" y1="17" x2="238" y2="26" gradientUnits="userSpaceOnUse">
<stop stop-color="#AD3AF8"/>
<stop offset="1" stop-color="#0022AE"/>
</linearGradient>
</defs>
</svg>
