<svg width="215" height="93" viewBox="0 0 215 93" fill="none" xmlns="http://www.w3.org/2000/svg">
<path d="M0.608165 61.8738C0.00136811 60.1997 1.53356 57.839 3.51298 58.7412C7.36743 60.5633 12.34 61.0645 16.513 61.9169C20.9037 62.7863 25.3199 63.4897 29.7705 64.0795C38.454 65.2424 47.2294 65.3664 55.9384 66.3634C56.6526 66.4575 56.7439 67.6267 56.0042 67.6986C47.259 68.7004 38.168 67.9838 29.4857 67.1438C25.0096 66.7198 20.6201 66.1734 16.1606 65.5312C15.4464 65.4372 14.7234 65.2908 14.0003 65.1445C14.7245 65.6138 15.3877 66.0396 16.112 66.5089C18.9135 68.4561 21.8017 70.281 24.8541 71.8086C30.6192 74.7601 36.6695 77.1783 42.8486 79.09C55.259 82.9046 68.5752 84.4648 81.5255 83.5561C94.0492 82.666 106.879 79.7851 118.122 73.8888C121.476 72.1339 124.654 69.978 127.439 67.4043C118.898 69.2871 110.138 71.1529 101.344 70.6013C87.1768 69.7242 72.4929 60.7491 71.8441 45.2415C71.0601 30.834 81.4521 18.3506 95.2471 15.1441C109.868 11.7433 126.171 18.2352 135.493 29.7911C142.105 38.0381 144.789 48.4604 142.326 57.9806C142.734 57.8572 143.1 57.7951 143.517 57.7241C159.66 53.7954 175.814 48.0339 188.973 37.6112C200.24 28.695 210.326 15.9942 213.285 1.489C213.431 0.76419 214.571 0.839575 214.487 1.60786C213.572 8.54903 211.82 14.9863 208.456 21.1051C205.014 27.3987 200.613 33.1015 195.373 37.9775C183.522 49.1471 168.583 56.0486 153.174 60.8219C148.74 62.2219 144.217 63.4215 139.738 64.5598C138.761 66.3954 137.558 68.1617 136.119 69.8066C126.644 80.7339 112.213 86.2027 98.4612 89.348C70.0794 95.8417 40.3488 90.609 15.069 76.4877C16.4968 78.8839 17.9156 81.2278 19.0391 83.7295C20.5481 86.9197 15.7463 90.2671 13.6631 87.1745C11.1154 83.2453 9.03638 78.9133 6.87965 74.7561C5.60849 72.3333 4.22405 69.8759 2.99622 67.3919C2.71624 67.0086 2.54956 66.66 2.42619 66.2501C1.74168 64.7508 1.12717 63.3474 0.608165 61.8738ZM135.038 45.7556C132.242 33.4135 120.265 24.2476 108.175 22.3174C95.7536 20.3357 83.3431 25.9996 79.6985 38.6826C76.1226 51.1384 85.621 60.8872 97.217 63.3861C104.797 65.0059 112.68 63.9891 120.188 62.659C124.511 61.8703 128.774 61.038 133.08 60.1445C135.31 55.8879 136.216 51.1025 135.038 45.7556Z" fill="#325BC1"/>
</svg>
