<svg width="43" height="43" viewBox="0 0 43 43" fill="none" xmlns="http://www.w3.org/2000/svg">
<g opacity="0.5">
<path d="M0 0H5.73333V5.73333H0V0Z" fill="white"/>
<path d="M2.86667 2.86667H8.6V8.6H2.86667V2.86667Z" fill="white"/>
<path d="M5.73333 5.73333H11.4667V11.4667H5.73333V5.73333Z" fill="white"/>
<path d="M8.6 8.6H14.3333V14.3333H8.6V8.6Z" fill="white"/>
<path d="M11.4667 11.4667H17.2V17.2H11.4667V11.4667Z" fill="white"/>
<path d="M14.3333 14.3333H20.0667V20.0667H14.3333V14.3333Z" fill="white"/>
<path d="M17.2 17.2H22.9333V22.9333H17.2V17.2Z" fill="white"/>
<path d="M20.0667 20.0667H25.8V25.8H20.0667V20.0667Z" fill="white"/>
<path d="M22.9333 22.9333H28.6667V28.6667H22.9333V22.9333Z" fill="white"/>
<path d="M25.8 25.8H31.5333V31.5333H25.8V25.8Z" fill="white"/>
<path d="M28.6667 28.6667H34.4V34.4H28.6667V28.6667Z" fill="white"/>
<path d="M31.5333 31.5333H37.2667V37.2667H31.5333V31.5333Z" fill="white"/>
<path d="M34.4 34.4H40.1333V40.1333H34.4V34.4Z" fill="white"/>
<path d="M37.2667 37.2667H43V43H37.2667V37.2667Z" fill="white"/>
<path d="M43 0H37.2667V5.73333H43V0Z" fill="white"/>
<path d="M40.1333 2.86667H34.4V8.6H40.1333V2.86667Z" fill="white"/>
<path d="M37.2667 5.73333H31.5333V11.4667H37.2667V5.73333Z" fill="white"/>
<path d="M34.4 8.6H28.6667V14.3333H34.4V8.6Z" fill="white"/>
<path d="M31.5333 11.4667H25.8V17.2H31.5333V11.4667Z" fill="white"/>
<path d="M28.6667 14.3333H22.9333V20.0667H28.6667V14.3333Z" fill="white"/>
<path d="M25.8 17.2H20.0667V22.9333H25.8V17.2Z" fill="white"/>
<path d="M22.9333 20.0667H17.2V25.8H22.9333V20.0667Z" fill="white"/>
<path d="M20.0667 22.9333H14.3333V28.6667H20.0667V22.9333Z" fill="white"/>
<path d="M17.2 25.8H11.4667V31.5333H17.2V25.8Z" fill="white"/>
<path d="M14.3333 28.6667H8.6V34.4H14.3333V28.6667Z" fill="white"/>
<path d="M11.4667 31.5333H5.73333V37.2667H11.4667V31.5333Z" fill="white"/>
<path d="M8.6 34.4H2.86667V40.1333H8.6V34.4Z" fill="white"/>
<path d="M5.73333 37.2667H0V43H5.73333V37.2667Z" fill="white"/>
</g>
</svg>
