<svg width="664" height="663" viewBox="0 0 664 663" fill="none" xmlns="http://www.w3.org/2000/svg">
<g opacity="0.1">
<path d="M-205.036 452.474C-192.287 471.314 -179.539 490.154 -166.79 508.993C-132.128 500.12 -99.3873 483.422 -71.9179 460.506C-67.5549 456.873 -63.2803 453.078 -60.2774 448.495C-56.962 443.319 -55.0814 437.445 -52.5208 432.045C-42.8894 412.047 -24.0771 398.469 -5.81517 385.822C16.0964 370.564 38.0965 355.468 62.3825 344.199C74.7329 338.558 87.8184 335.051 100.006 329.498C103.608 327.967 106.252 325.056 109.677 323.198C119.138 318.068 130.593 315.446 140.789 312.45C154.276 308.514 167.953 305.32 181.909 303.03C190.828 301.571 200.087 300.35 208.124 302.325C217.833 304.659 224.614 311.325 233.223 315.523C253.147 325.406 281.739 321.301 304.251 309.095C319.421 300.869 332.245 289.482 345.008 278.762C348.08 276.252 350.988 273.831 354.489 271.722C358.478 269.347 362.747 267.877 366.56 265.176C372.479 260.911 377.691 255.341 383.006 250.348C388.884 244.839 394.687 239.581 400.566 234.072C413.777 221.842 429.774 208.524 447.532 208.183C451.101 208.147 455.113 208.927 456.202 211.714C457.542 214.576 455.253 218.139 455.111 221.382C454.937 226.121 459.785 229.613 465.204 230.264C470.623 230.914 476.299 229.314 481.886 227.55C490.349 224.861 499.54 221.567 504.799 214.916C515.079 201.953 505.764 183.996 517.656 172.059C525.124 164.421 537.211 163.355 547.817 162.671C551.297 162.472 555.118 162.511 557.899 163.747C561.184 165.133 560.926 167.383 562.668 169.816C565.015 172.976 569.004 170.602 572.43 168.745C576.998 166.268 581.789 163.036 587.092 162.694C595.209 162.092 598.434 169.209 605.302 170.974C609.49 172.08 614.425 170.671 618.932 168.86C650.431 157.269 679.98 131.958 711.92 133.637C696.074 121.543 668.285 129.856 647.228 140.852C637.515 145.907 626.675 151.996 616.578 150.505C611.323 149.766 607.256 147.328 603.026 144.977C595.335 140.915 587.257 137.696 578.615 134.994C571.32 132.828 563.153 129.446 554.853 132.047C539.321 136.881 528.2 124.546 512.715 128.299C502.994 130.615 492.916 139.668 484.348 136.714C481.744 135.805 479.853 133.875 477.976 132.359C469.285 125.673 455.959 124.455 443.247 126.704C430.535 128.954 418.259 134.343 406.221 139.393C399.92 142.176 392.579 146.157 391.943 151.99C391.625 154.907 393.366 157.34 395.345 159.433C400.487 164.244 408.286 166.559 414.631 170.085C421.064 173.774 426.662 179.815 424.822 186.934C423.058 193.801 415.092 198.965 407.84 203.108C400.173 207.265 392.581 211.171 384.737 215.002C374.195 220.085 363.387 224.679 352.403 228.946C344.368 232.036 336.572 234.786 330.027 240.235C325.263 244.296 321.254 248.58 315.885 251.914C306.777 257.697 295.704 261.801 285.201 263.063C266.343 265.268 245.733 257.234 243.02 240.552C242.175 235.1 243.049 228.926 239.431 224.978C237.097 222.232 233.324 221.112 229.55 219.992C224.682 218.41 219.575 217.168 214.632 215.838C197.893 211.827 181.874 209.536 164.893 213.256C156.566 215.027 148.524 215.377 140.066 215.741C129.21 216.351 118.482 218.368 107.844 220.548C102.065 221.571 96.0494 222.933 91.5232 226.654C84.1631 232.544 82.6385 244.136 86.9865 252.544C91.3344 260.952 100.236 266.469 109.592 268.151C111.679 268.497 113.766 268.842 115.065 270.46C116.099 271.588 116.243 273.41 116.046 274.994C115.346 288.884 101.875 298.299 89.6407 304.933C76.7538 311.92 63.4385 318.507 50.0209 324.516C28.909 333.853 7.3409 341.959 -14.5201 348.747C-24.3018 351.729 -35.1093 356.323 -45.4022 356.416C-48.5567 356.437 -51.5619 355.956 -54.791 356.229C-58.9243 356.782 -63.1046 358.415 -66.9587 359.872C-79.7514 364.698 -91.8364 370.828 -103.214 378.264C-111.179 383.428 -119.695 389.523 -128.982 389.914C-140.179 390.286 -147.341 382.138 -155.74 376.771C-173.468 365.486 -201.925 368.674 -222.172 381.552C-232.585 388.043 -237.183 397.08 -235.037 409.214C-233.796 416.563 -229.851 420.334 -224.621 425.309C-217.16 432.451 -211.866 441.823 -206.186 450.353C-205.995 451.094 -205.39 451.821 -205.036 452.474Z" fill="#4F76F6"/>
<path d="M116.859 359.411C112.303 357.238 109.117 363.82 112.783 366.687C117.366 369.69 122.673 361.958 116.859 359.411Z" fill="#4F76F6"/>
<path d="M97.3236 413.699C93.2179 415.081 95.4097 421.069 99.3798 420.605C103.825 419.461 102.231 411.46 97.3236 413.699Z" fill="#4F76F6"/>
<path d="M36.8521 385.484C37.8664 388.523 42.4615 386.876 42.1134 383.898C41.3369 380.519 35.2324 381.719 36.8521 385.484Z" fill="#4F76F6"/>
<path d="M22.8595 444.155C25.458 447.39 30.1473 443.581 28.4529 440.067C25.8406 436.417 19.241 440.207 22.8595 444.155Z" fill="#4F76F6"/>
<path d="M-36.4728 470.205C-32.6187 468.749 -34.8851 463.012 -38.6783 463.802C-42.7093 464.933 -40.9656 472.431 -36.4728 470.205Z" fill="#4F76F6"/>
<path d="M-60.3851 527.711C-60.6722 524.067 -66.138 524.498 -66.5171 528.081C-66.5562 531.902 -59.5672 532.334 -60.3851 527.711Z" fill="#4F76F6"/>
<path d="M-79.271 559.061C-82.4806 557.423 -84.8919 562.319 -82.1717 564.222C-78.8598 566.437 -75.0551 560.996 -79.271 559.061Z" fill="#4F76F6"/>
<path d="M-51.3594 644.404C-51.9488 649.156 -45.0206 650.255 -43.4996 646.052C-42.2577 640.946 -50.8998 638.244 -51.3594 644.404Z" fill="#4F76F6"/>
<path d="M264.606 332.914C266.032 330.874 263.135 328.645 261.28 330.284C259.438 332.338 262.866 335.546 264.606 332.914Z" fill="#4F76F6"/>
<path d="M267.587 295.201C270.924 293.181 267.856 288.301 264.491 289.492C260.651 291.363 263.611 297.99 267.587 295.201Z" fill="#4F76F6"/>
<path d="M332.322 234.347C330.793 235.809 332.698 238.154 334.492 237.181C336.524 235.868 334.252 232.456 332.322 234.347Z" fill="#4F76F6"/>
<path d="M314.861 181.122C316.541 184.221 321.197 181.908 320.258 178.617C318.727 175.015 312.486 177.132 314.861 181.122Z" fill="#4F76F6"/>
<path d="M290.169 242.639C295.186 243.718 296.686 236.361 292.47 234.425C287.098 232.694 283.744 241.69 290.169 242.639Z" fill="#4F76F6"/>
<path d="M756.373 82.0919C757.536 84.6272 761.213 82.8445 760.553 80.4585C759.464 77.6716 754.529 79.081 756.373 82.0919Z" fill="#4F76F6"/>
<path d="M722.263 95.0988C721.752 92.2097 717.544 93.0137 717.552 95.7535C717.737 98.8196 723.128 98.6405 722.263 95.0988Z" fill="#4F76F6"/>
<path d="M673.163 121.723C668.397 120.719 666.809 127.912 671.1 129.596C676.057 131.342 679.425 122.76 673.163 121.723Z" fill="#4F76F6"/>
<path d="M650.694 122.718C648.007 119.32 642.992 123.307 644.775 126.984C647.475 130.797 654.313 126.667 650.694 122.718Z" fill="#4F76F6"/>
<path d="M577.144 113.205C578.659 111.328 576.014 109.174 574.233 110.562C572.378 112.201 575.479 115.586 577.144 113.205Z" fill="#4F76F6"/>
<path d="M544.445 101.173C546.499 103.014 549.468 99.9264 547.904 97.8196C545.836 95.5634 541.711 98.8557 544.445 101.173Z" fill="#4F76F6"/>
<path d="M527.159 168.173C524.568 167.678 523.863 171.438 526.052 172.361C528.82 173.183 530.327 168.566 527.159 168.173Z" fill="#4F76F6"/>
<path d="M460.9 120.721C458.337 121.055 458.964 124.937 461.378 125.106C464.192 124.846 464.278 119.945 460.9 120.721Z" fill="#4F76F6"/>
<path d="M421.328 186.718C425.958 188.64 428.641 181.908 424.9 179.292C420.331 176.704 415.528 184.586 421.328 186.718Z" fill="#4F76F6"/>
<path d="M375.819 186.486C376.361 182.815 371.105 182.076 369.883 185.272C368.926 188.957 375.304 190.987 375.819 186.486Z" fill="#4F76F6"/>
<path d="M1000.15 34.5522C1004.14 37.2427 1007.94 31.3875 1004.92 28.1663C1000.83 24.898 994.903 31.4884 1000.15 34.5522Z" fill="#4F76F6"/>
<path d="M970.27 27.3248C972.628 25.8349 970.519 22.3346 968.059 23.2467C965.36 24.4988 967.347 29.3316 970.27 27.3248Z" fill="#4F76F6"/>
<path d="M913.187 36.1131C918.387 35.1931 917.221 27.5928 912.231 27.3434C906.677 27.611 906.756 37.4892 913.187 36.1131Z" fill="#4F76F6"/>
<path d="M309.583 207.203C310.741 212.064 317.988 210.245 317.747 205.52C316.991 200.231 307.555 201.126 309.583 207.203Z" fill="#4F76F6"/>
<path d="M248.765 193.531C250.545 192.143 248.464 189.472 246.506 190.534C244.474 191.847 246.672 195.51 248.765 193.531Z" fill="#4F76F6"/>
<path d="M223.22 234.401C226.3 234.631 226.815 230.13 224.048 229.309C220.702 228.589 219.311 234.199 223.22 234.401Z" fill="#4F76F6"/>
<path d="M198.696 228.49C195.964 231.238 199.834 235.261 202.845 233.417C206.243 230.73 201.978 224.811 198.696 228.49Z" fill="#4F76F6"/>
<path d="M150.849 215.383C148.858 217.94 152.775 220.882 155.031 218.815C157.437 216.244 153.227 211.983 150.849 215.383Z" fill="#4F76F6"/>
<path d="M133.374 209.238C135.099 206.192 130.781 203.678 128.45 205.997C126.399 209.221 131.35 213.291 133.374 209.238Z" fill="#4F76F6"/>
<path d="M83.94 250.819C86.1158 251.328 87.0865 248.057 85.0601 247.045C82.7075 246.21 81.098 250.249 83.94 250.819Z" fill="#4F76F6"/>
<path d="M142.862 294.861C141.83 298.798 147.691 300.264 149.24 296.891C150.761 292.689 143.689 289.769 142.862 294.861Z" fill="#4F76F6"/>
<path d="M109.826 305.175C109.847 308.33 114.423 308.593 115.067 305.5C115.623 302.243 109.613 301.28 109.826 305.175Z" fill="#4F76F6"/>
<path d="M135.457 306.898C138.721 310.194 143.458 305.304 141.097 301.729C137.982 297.93 131.097 303.14 135.457 306.898Z" fill="#4F76F6"/>
<path d="M125.436 322.675C120.581 321.508 118.742 328.626 122.958 330.562C128.092 332.634 131.786 323.875 125.436 322.675Z" fill="#4F76F6"/>
<path d="M115.129 382.302C118.678 384.177 121.579 379.016 118.756 376.536C115.016 373.92 110.321 380.054 115.129 382.302Z" fill="#4F76F6"/>
<path d="M67.7288 350.166C67.0706 352.845 70.8442 353.965 72.0941 351.599C73.167 348.906 68.448 346.821 67.7288 350.166Z" fill="#4F76F6"/>
<path d="M43.7821 421.622C38.8941 421.951 39.1284 429.001 43.7177 429.679C48.7963 430.091 49.8257 421.089 43.7821 421.622Z" fill="#4F76F6"/>
<path d="M-25.3039 391.535C-22.4619 392.105 -21.5187 388.005 -23.9598 387.007C-26.9787 386.11 -28.9753 390.993 -25.3039 391.535Z" fill="#4F76F6"/>
<path d="M-20.8989 436.641C-22.8587 432.638 -28.7449 435.407 -27.8662 439.364C-26.2189 443.959 -18.2453 441.535 -20.8989 436.641Z" fill="#4F76F6"/>
<path d="M-49.9739 426.232C-53.836 424.949 -55.6419 430.572 -52.4185 432.623C-48.3795 434.233 -45.0308 427.562 -49.9739 426.232Z" fill="#4F76F6"/>
<path d="M-97.4836 468.247C-95.4572 469.259 -93.8948 466.301 -95.5203 464.86C-97.5605 463.434 -100.102 466.922 -97.4836 468.247Z" fill="#4F76F6"/>
<path d="M-167.056 461.01C-166.279 464.388 -161.419 463.23 -161.441 460.076C-161.816 456.269 -168.275 456.816 -167.056 461.01Z" fill="#4F76F6"/>
<path d="M211.965 317.973C213.588 314.349 208.278 311.951 206.137 315.012C204.099 318.65 210.206 322.515 211.965 317.973Z" fill="#4F76F6"/>
<path d="M172.924 325C174.19 328.113 178.697 326.302 178.097 323.25C177.069 319.797 171.053 321.159 172.924 325Z" fill="#4F76F6"/>
<path d="M-171.086 557.129C-171.182 554.226 -175.581 554.289 -176.076 556.88C-176.38 560.211 -170.71 560.936 -171.086 557.129Z" fill="#4F76F6"/>
<path d="M175.673 482.67C172.756 482.351 172.153 486.689 174.92 487.511C178.014 488.155 179.33 482.797 175.673 482.67Z" fill="#4F76F6"/>
<path d="M131.577 450.009C134.928 448.403 132.852 443.407 129.222 444.108C125.368 445.565 127.336 452.308 131.577 450.009Z" fill="#4F76F6"/>
<path d="M111.212 456.83C109.578 452.649 103.426 454.929 104.067 459.226C105.463 463.746 113.539 461.9 111.212 456.83Z" fill="#4F76F6"/>
<path d="M73.9028 505.979C70.4554 504.682 68.3842 509.816 71.2675 511.629C75.0688 513.579 78.5197 507.486 73.9028 505.979Z" fill="#4F76F6"/>
<path d="M68.3287 538.131C65.2213 537.072 63.4625 541.614 66.2574 543.265C69.5417 544.651 72.3539 539.326 68.3287 538.131Z" fill="#4F76F6"/>
<path d="M-3.67438 537.701C-0.215429 534.347 -5.28254 529.285 -9.02063 531.734C-13.1459 535.026 -7.75828 542.237 -3.67438 537.701Z" fill="#4F76F6"/>
<path d="M-20.3391 610.908C-18.014 610.913 -17.798 607.419 -19.9737 606.91C-22.4757 606.578 -23.242 611.004 -20.3391 610.908Z" fill="#4F76F6"/>
<path d="M-72.6191 611.814C-72.4307 607.49 -78.9165 607.208 -79.9482 611.144C-80.626 615.734 -72.5146 617.457 -72.6191 611.814Z" fill="#4F76F6"/>
<path d="M-97.9964 615.231C-95.3451 615.06 -95.646 611.002 -98.148 610.67C-101.139 610.603 -101.389 615.593 -97.9964 615.231Z" fill="#4F76F6"/>
<path d="M205.479 425.134C205.668 420.81 199.433 420.602 198.402 424.539C197.724 429.129 205.658 430.526 205.479 425.134Z" fill="#4F76F6"/>
<path d="M298.085 370.91C303.163 371.322 303.833 363.993 299.216 362.486C294.035 361.496 291.687 370.79 298.085 370.91Z" fill="#4F76F6"/>
<path d="M1390.16 -37.6077C1393.03 -38.9482 1391.14 -43.2032 1388.18 -42.4405C1384.97 -41.3378 1386.58 -35.6617 1390.16 -37.6077Z" fill="#4F76F6"/>
<path d="M1352.79 -70.3262C1356.38 -67.2073 1360.94 -72.4237 1358.26 -75.8218C1354.98 -79.5324 1348.11 -73.907 1352.79 -70.3262Z" fill="#4F76F6"/>
<path d="M1298.65 -42.8706C1297.7 -46.5754 1292.35 -45.1521 1292.55 -41.6713C1293.01 -37.7012 1300.05 -38.3502 1298.65 -42.8706Z" fill="#4F76F6"/>
<path d="M1268.44 -7.49145C1268.2 -4.82631 1272.2 -4.46095 1272.78 -6.88828C1273.35 -9.7303 1268.5 -10.8975 1268.44 -7.49145Z" fill="#4F76F6"/>
<path d="M1231.72 -63.1485C1233.85 -61.5586 1236.32 -64.7958 1234.51 -66.5626C1232.53 -68.6556 1229 -65.0509 1231.72 -63.1485Z" fill="#4F76F6"/>
<path d="M1185.33 -32.297C1184.17 -29.7674 1187.8 -28.1442 1189.39 -30.2728C1190.89 -32.5646 1186.56 -35.4929 1185.33 -32.297Z" fill="#4F76F6"/>
<path d="M1389 -40.143C1387.06 -38.6669 1389.14 -35.996 1391.18 -36.8943C1393.3 -38.0442 1391.34 -42.0476 1389 -40.143Z" fill="#4F76F6"/>
<path d="M1334.24 -6.43921C1339.26 -7.6855 1337.61 -15.0204 1332.79 -14.9435C1327.25 -14.2612 1327.91 -4.4853 1334.24 -6.43921Z" fill="#4F76F6"/>
<path d="M1315.87 25.4743C1318.19 22.7403 1314.42 19.2951 1311.66 21.2135C1308.84 23.7982 1313.08 28.8884 1315.87 25.4743Z" fill="#4F76F6"/>
<path d="M1263.97 0.213189C1260.89 2.7232 1264.36 7.17476 1267.71 5.56883C1271.38 3.37129 1267.84 -3.15374 1263.97 0.213189Z" fill="#4F76F6"/>
<path d="M1385.98 -3.67447C1387.71 -1.65603 1390.87 -4.00284 1389.63 -6.28661C1388.05 -8.80819 1383.73 -6.2569 1385.98 -3.67447Z" fill="#4F76F6"/>
<path d="M1322.89 -23.0839C1319.88 -21.2402 1322.6 -17.0127 1325.63 -18.027C1328.99 -19.6329 1326.38 -25.6077 1322.89 -23.0839Z" fill="#4F76F6"/>
<path d="M1545.35 -144.977C1542.83 -143.398 1545.28 -139.66 1547.82 -140.824C1550.68 -142.164 1548.35 -147.235 1545.35 -144.977Z" fill="#4F76F6"/>
<path d="M1521.62 -122.184C1519.3 -119.45 1523.39 -116.182 1526.06 -118.263C1528.63 -120.923 1524.07 -125.836 1521.62 -122.184Z" fill="#4F76F6"/>
<path d="M1479.4 -105.836C1484.32 -107.66 1481.67 -114.879 1476.8 -114.136C1471.45 -112.712 1473.26 -103.141 1479.4 -105.836Z" fill="#4F76F6"/>
<path d="M1412.12 -148.936C1412.54 -146.21 1416.68 -146.763 1416.67 -149.503C1416.48 -152.569 1411.26 -152.478 1412.12 -148.936Z" fill="#4F76F6"/>
<path d="M1363.5 -122.992C1360.34 -122.97 1360.33 -118.32 1363.17 -117.75C1366.67 -117.534 1367.55 -123.293 1363.5 -122.992Z" fill="#4F76F6"/>
<path d="M1457.21 -128.846C1455.62 -124.392 1462.01 -121.947 1464.46 -125.599C1466.63 -130.155 1458.93 -134.632 1457.21 -128.846Z" fill="#4F76F6"/>
<path d="M1433.09 -102.471C1436.26 -102.078 1436.94 -106.667 1434.09 -107.652C1430.9 -108.459 1429.1 -102.836 1433.09 -102.471Z" fill="#4F76F6"/>
<path d="M1379.35 -113.223C1375.84 -113.854 1374.69 -108.584 1377.88 -107.362C1381.66 -106.242 1383.85 -112.708 1379.35 -113.223Z" fill="#4F76F6"/>
<path d="M1277.01 -82.007C1280.44 -83.8645 1277.53 -88.8329 1274.17 -87.6417C1270.4 -86.022 1272.95 -79.381 1277.01 -82.007Z" fill="#4F76F6"/>
<path d="M1244.65 -73.957C1241.59 -76.0972 1238.24 -71.7515 1240.74 -69.0943C1243.74 -66.2879 1248.64 -71.2666 1244.65 -73.957Z" fill="#4F76F6"/>
<path d="M1179.41 -128.086C1181 -130.214 1178.02 -132.606 1176.07 -131.13C1174.23 -129.076 1177.51 -125.365 1179.41 -128.086Z" fill="#4F76F6"/>
<path d="M1114.71 -121.286C1114.49 -117.791 1119.48 -117.542 1120.38 -120.561C1120.92 -124.232 1114.64 -125.685 1114.71 -121.286Z" fill="#4F76F6"/>
<path d="M1108.68 -45.1943C1106.39 -46.6957 1104.09 -43.547 1105.81 -41.5286C1108.12 -39.6124 1111.82 -43.3056 1108.68 -45.1943Z" fill="#4F76F6"/>
<path d="M1039.26 -93.0392C1043.74 -92.9392 1044.1 -99.6766 1040 -100.62C1035 -101.284 1033.45 -92.8463 1039.26 -93.0392Z" fill="#4F76F6"/>
<path d="M1004.88 -30.702C1009.38 -32.5124 1006.84 -39.1535 1002.38 -38.4241C997.19 -37.0893 999.316 -28.1094 1004.88 -30.702Z" fill="#4F76F6"/>
<path d="M884.308 -83.3244C882.329 -85.4174 879.019 -82.5674 880.509 -80.209C882.502 -77.7012 886.968 -80.7557 884.308 -83.3244Z" fill="#4F76F6"/>
<path d="M737.761 -50.7226C740.119 -52.2125 737.684 -55.5359 735.475 -54.5491C732.865 -53.1339 734.927 -48.5527 737.761 -50.7226Z" fill="#4F76F6"/>
<path d="M723.856 -39.3835C723.668 -35.0595 729.99 -34.6884 731.022 -38.6252C731.863 -43.3029 724.003 -44.9515 723.856 -39.3835Z" fill="#4F76F6"/>
<path d="M882.138 -133.653C881.554 -131.226 885.151 -130.432 886.163 -132.458C886.91 -134.974 882.619 -136.658 882.138 -133.653Z" fill="#4F76F6"/>
<path d="M868.722 -92.6044C869.261 -88.8858 874.801 -89.568 875.017 -93.0625C874.879 -97.2096 867.816 -97.3901 868.722 -92.6044Z" fill="#4F76F6"/>
<path d="M839.476 -105.665C843.222 -105.374 843.532 -111.031 840.099 -111.913C836.176 -112.53 834.663 -105.588 839.476 -105.665Z" fill="#4F76F6"/>
<path d="M819.816 -72.6293C817.416 -72.3835 817.866 -68.8281 820.117 -68.5707C822.768 -68.7419 822.868 -73.2289 819.816 -72.6293Z" fill="#4F76F6"/>
<path d="M769.606 -46.8818C772.396 -42.9058 778.404 -47.008 776.519 -51.2631C774.042 -55.8306 765.709 -51.7342 769.606 -46.8818Z" fill="#4F76F6"/>
<path d="M911.862 -146.182C914.339 -141.614 921.027 -145.241 919.543 -149.925C917.467 -154.92 908.44 -151.714 911.862 -146.182Z" fill="#4F76F6"/>
<path d="M1610.14 -204.172C1614.16 -203.392 1615.37 -209.328 1611.83 -210.788C1607.72 -212.146 1605.05 -205 1610.14 -204.172Z" fill="#4F76F6"/>
<path d="M1578.51 -226.702C1577.18 -224.084 1580.9 -222.298 1582.57 -224.264C1584.31 -226.895 1579.89 -229.987 1578.51 -226.702Z" fill="#4F76F6"/>
<path d="M1547.92 -237.56C1550.36 -236.562 1551.74 -240.261 1549.78 -241.524C1547.17 -242.849 1544.82 -238.619 1547.92 -237.56Z" fill="#4F76F6"/>
<path d="M1498.77 -219.985C1500.19 -224.765 1493.06 -227.019 1490.87 -222.877C1488.71 -217.907 1497.32 -213.709 1498.77 -219.985Z" fill="#4F76F6"/>
<path d="M1454.49 -255.712C1452.7 -257.064 1450.71 -254.507 1452.01 -252.89C1453.72 -251.286 1456.87 -254.047 1454.49 -255.712Z" fill="#4F76F6"/>
<path d="M1416.17 -252.031C1413.74 -247.55 1420.43 -243.786 1423.46 -247.54C1426.62 -252.212 1419.04 -258.022 1416.17 -252.031Z" fill="#4F76F6"/>
<path d="M1375.19 -190.969C1378.97 -194.499 1373.71 -200.303 1369.49 -197.588C1364.95 -194.282 1370.45 -186.079 1375.19 -190.969Z" fill="#4F76F6"/>
<path d="M1328.11 -198.372C1324.56 -200.247 1321.91 -195.011 1324.65 -192.694C1328.21 -190.405 1332.67 -196.199 1328.11 -198.372Z" fill="#4F76F6"/>
<path d="M1552.33 -209.973C1553.41 -212.251 1549.88 -213.712 1548.61 -211.76C1547.28 -209.557 1551.18 -207.029 1552.33 -209.973Z" fill="#4F76F6"/>
<path d="M1490.91 -256.673C1489.57 -254.47 1492.79 -252.418 1494.56 -254.22C1496.31 -256.437 1492.47 -259.631 1490.91 -256.673Z" fill="#4F76F6"/>
<path d="M-114.86 470.07C-117.71 466.76 -122.474 470.821 -120.616 474.247C-117.99 478.311 -111.153 474.181 -114.86 470.07Z" fill="#4F76F6"/>
<path d="M-160.219 546.804C-156.556 544.607 -159.638 539.312 -163.417 540.517C-167.509 542.313 -164.773 549.695 -160.219 546.804Z" fill="#4F76F6"/>
<path d="M-148.043 485.952C-145.447 484.122 -147.984 480.221 -150.683 481.473C-153.619 483.065 -151.278 488.55 -148.043 485.952Z" fill="#4F76F6"/>
<path d="M1469.62 -315.002C1468.88 -312.486 1472.49 -311.277 1473.83 -313.481C1474.82 -315.922 1470.43 -318.184 1469.62 -315.002Z" fill="#4F76F6"/>
<path d="M1423.33 -351.326C1421.39 -352.175 1419.99 -349.306 1421.69 -348.117C1423.65 -346.853 1425.94 -350.417 1423.33 -351.326Z" fill="#4F76F6"/>
<path d="M1384.59 -340.241C1385.01 -337.515 1388.82 -337.891 1389.06 -340.556C1389.22 -343.384 1384.07 -343.545 1384.59 -340.241Z" fill="#4F76F6"/>
<path d="M1359.14 -301.533C1356.29 -299.778 1359.01 -295.55 1361.79 -296.639C1365.15 -298.245 1362.63 -304.057 1359.14 -301.533Z" fill="#4F76F6"/>
<path d="M1326.29 -293.218C1325.49 -289.621 1330.6 -288.379 1332.07 -291.5C1333.28 -295.111 1327.05 -297.644 1326.29 -293.218Z" fill="#4F76F6"/>
<path d="M1124.49 -286.596C1124.96 -290.016 1119.87 -290.843 1118.81 -287.736C1117.92 -284.302 1124.05 -282.347 1124.49 -286.596Z" fill="#4F76F6"/>
<path d="M789.128 -131.559C791.473 -133.464 788.535 -136.936 786.176 -135.447C783.58 -133.617 786.56 -128.9 789.128 -131.559Z" fill="#4F76F6"/>
<path d="M472.406 49.6782C475.58 47.7461 472.688 43.1923 469.487 44.2951C465.973 45.9894 468.593 52.3789 472.406 49.6782Z" fill="#4F76F6"/>
<path d="M579.691 -30.0269C583.993 -32.9929 579.551 -39.2388 575.133 -37.2653C570.239 -34.6117 574.513 -25.9523 579.691 -30.0269Z" fill="#4F76F6"/>
<path d="M528.103 14.1996C523.481 15.0175 524.531 21.6252 528.855 21.8136C533.906 21.3967 533.705 12.8511 528.103 14.1996Z" fill="#4F76F6"/>
<path d="M496.693 25.9544C494.625 23.6982 491.152 26.6367 492.642 28.9951C494.649 31.9176 499.529 28.8493 496.693 25.9544Z" fill="#4F76F6"/>
<path d="M437.249 1.19291C438.159 -1.41132 434.372 -2.94612 432.87 -0.654376C431.797 2.0383 436.367 4.62654 437.249 1.19291Z" fill="#4F76F6"/>
<path d="M386.912 60.5728C387.264 56.1604 380.69 55.7146 379.658 59.6514C378.817 64.3291 386.928 66.0524 386.912 60.5728Z" fill="#4F76F6"/>
<path d="M338.521 46.0723C340.766 48.6548 344.802 45.1994 343.047 42.3516C340.952 39.266 335.345 42.9396 338.521 46.0723Z" fill="#4F76F6"/>
<path d="M390.824 280.728C392.314 283.086 395.977 280.889 394.977 278.265C393.561 275.655 388.654 277.894 390.824 280.728Z" fill="#4F76F6"/>
<path d="M614.437 273.464C615.938 271.173 612.463 269.046 610.696 270.849C609.032 273.229 612.711 276.511 614.437 273.464Z" fill="#4F76F6"/>
<path d="M598.173 316.268C595.547 312.204 589.702 316.217 591.336 320.398C593.724 324.802 601.819 321.046 598.173 316.268Z" fill="#4F76F6"/>
<path d="M537.524 300.182C537.4 296.45 532.008 296.629 531.378 300.137C531.012 304.135 537.927 304.819 537.524 300.182Z" fill="#4F76F6"/>
<path d="M510.394 323.336C508.218 322.827 507.248 326.098 509.274 327.11C511.627 327.945 513.399 323.818 510.394 323.336Z" fill="#4F76F6"/>
<path d="M483.426 311.362C480.836 310.867 480.219 314.79 482.571 315.625C485.25 316.283 486.758 311.667 483.426 311.362Z" fill="#4F76F6"/>
<path d="M442.09 276.783C446.018 275.074 443.589 269.426 439.707 270.053C435.35 271.36 437.27 279.185 442.09 276.783Z" fill="#4F76F6"/>
<path d="M414.365 277.039C409.519 278.612 411.915 285.756 416.715 285.265C421.901 283.93 420.429 274.596 414.365 277.039Z" fill="#4F76F6"/>
<path d="M932.072 112.208C930.209 111.107 928.558 113.902 930.095 115.179C932.047 116.443 934.439 113.457 932.072 112.208Z" fill="#4F76F6"/>
<path d="M868.232 122.549C871.143 125.192 875.152 120.907 872.894 117.91C870.132 114.764 864.39 119.355 868.232 122.549Z" fill="#4F76F6"/>
<path d="M834.97 128.553C837.845 127.627 836.463 123.521 833.649 123.781C830.597 124.38 831.442 129.832 834.97 128.553Z" fill="#4F76F6"/>
<path d="M809.014 84.5777C809.971 80.8925 804.436 79.2497 802.888 82.6224C801.353 86.4099 808.01 89.3439 809.014 84.5777Z" fill="#4F76F6"/>
<path d="M784.053 105.501C787.567 103.807 784.988 98.6612 781.446 99.5261C777.592 100.983 779.648 107.889 784.053 105.501Z" fill="#4F76F6"/>
<path d="M755.279 176.619C759.188 176.821 759.41 171.002 755.976 170.119C751.639 169.516 750.214 176.621 755.279 176.619Z" fill="#4F76F6"/>
<path d="M717.354 169.742C713.643 173.021 718.309 178.512 722.388 176.3C726.853 173.246 721.941 165.355 717.354 169.742Z" fill="#4F76F6"/>
<path d="M1133.2 130.435C1128.06 130.689 1128.49 138.48 1133.24 139.069C1138.89 139.379 1139.73 129.637 1133.2 130.435Z" fill="#4F76F6"/>
<path d="M1090.35 150.292C1093.17 152.772 1096.69 148.752 1094.78 145.993C1092.1 143.01 1086.69 147.424 1090.35 150.292Z" fill="#4F76F6"/>
<path d="M1063.6 192.447C1065.71 193.208 1066.93 190.012 1065.06 188.911C1062.62 187.913 1060.67 191.714 1063.6 192.447Z" fill="#4F76F6"/>
<path d="M1043.13 148.456C1041.91 144.262 1035.66 145.964 1036.05 150.186C1036.86 154.809 1044.97 153.792 1043.13 148.456Z" fill="#4F76F6"/>
<path d="M1131.93 134.712C1135.57 136.75 1138.63 131.5 1135.81 129.02C1132.23 126.315 1127.29 132.375 1131.93 134.712Z" fill="#4F76F6"/>
<path d="M1087.5 99.4876C1083.18 96.974 1079.49 103.407 1083 106.363C1087.34 109.706 1093.08 102.375 1087.5 99.4876Z" fill="#4F76F6"/>
<path d="M1104.49 86.0531C1107.16 89.0364 1111.51 84.9894 1109.58 81.8154C1107.06 78.3288 1100.89 82.5194 1104.49 86.0531Z" fill="#4F76F6"/>
<path d="M117.654 588.222C113.512 586.034 110.061 592.127 113.475 594.92C117.807 597.848 123.216 590.694 117.654 588.222Z" fill="#4F76F6"/>
<path d="M-93.6798 552.731C-97.0997 552.263 -97.8522 557.104 -94.9079 558.252C-91.4743 559.134 -89.4306 553.171 -93.6798 552.731Z" fill="#4F76F6"/>
<path d="M160.087 335.971C153.371 338.768 157.686 348.672 164.117 347.296C171.601 345.137 168.257 331.963 160.087 335.971Z" fill="#4F76F6"/>
<path d="M888.416 57.7771C891.177 60.9236 895.615 57.0398 893.846 53.7772C891.397 50.0391 884.886 53.9919 888.416 57.7771Z" fill="#4F76F6"/>
<path d="M791.285 -4.17616C788.208 0.658907 795.172 5.32649 799.032 1.5448C803.027 -3.15473 795.063 -10.446 791.285 -4.17616Z" fill="#4F76F6"/>
<path d="M1333.15 -69.1755C1336.92 -68.0554 1338.32 -73.6648 1335.27 -75.3903C1331.32 -76.8366 1328.39 -70.1796 1333.15 -69.1755Z" fill="#4F76F6"/>
<path d="M1247.45 -177.01C1242.83 -171.127 1251.36 -164.353 1256.69 -168.931C1262.31 -174.515 1252.84 -184.579 1247.45 -177.01Z" fill="#4F76F6"/>
<path d="M1225.64 -136.264C1230.15 -140.399 1224.2 -147.093 1219.23 -144.188C1214.13 -140.365 1220.34 -130.857 1225.64 -136.264Z" fill="#4F76F6"/>
<path d="M1153.71 -71.9321C1154.08 -78.2549 1144.93 -78.7812 1143.45 -73.3349C1142.26 -66.5699 1153.72 -64.1274 1153.71 -71.9321Z" fill="#4F76F6"/>
<path d="M1485.02 -139.07C1485.6 -146.562 1474.69 -147.611 1472.67 -140.818C1471.28 -132.884 1484.92 -129.518 1485.02 -139.07Z" fill="#4F76F6"/>
<path d="M1408.78 -127.071C1403.01 -125.634 1405.13 -117.069 1410.68 -117.336C1417.21 -118.134 1416.01 -129.304 1408.78 -127.071Z" fill="#4F76F6"/>
<path d="M1311.55 -214.512C1316.42 -215.255 1315.43 -222.529 1310.86 -222.792C1305.47 -222.613 1305.44 -213.312 1311.55 -214.512Z" fill="#4F76F6"/>
<path d="M1517.57 -241.367C1511.96 -245.498 1505.83 -237.324 1510.15 -232.485C1515.63 -227.436 1525.04 -236.551 1517.57 -241.367Z" fill="#4F76F6"/>
<path d="M1420.43 -136.342C1425.91 -136.358 1425.97 -144.415 1421.04 -145.33C1415.12 -146.13 1413.47 -135.945 1420.43 -136.342Z" fill="#4F76F6"/>
<path d="M1536.97 -234.788C1539.6 -233.049 1542.29 -237.041 1540.15 -239.045C1537.42 -241.362 1533.33 -236.826 1536.97 -234.788Z" fill="#4F76F6"/>
<path d="M1477.17 -210.383C1471.94 -207.967 1475.52 -200.198 1480.79 -201.369C1486.78 -203.561 1483.69 -213.921 1477.17 -210.383Z" fill="#4F76F6"/>
<path d="M1558.61 -290.641C1564.49 -293.825 1560.05 -302.396 1554.05 -300.619C1547.41 -298.073 1551.45 -286.334 1558.61 -290.641Z" fill="#4F76F6"/>
<path d="M1516.54 -254.95C1521.48 -253.62 1523.32 -260.739 1519.18 -262.926C1514.14 -264.835 1510.1 -256.314 1516.54 -254.95Z" fill="#4F76F6"/>
<path d="M1505.25 -222.442C1504.81 -225.583 1500.1 -224.928 1499.87 -221.848C1500.23 -218.456 1506.13 -218.485 1505.25 -222.442Z" fill="#4F76F6"/>
<path d="M1448.58 -191.083C1448.38 -187.173 1454.2 -186.952 1454.99 -190.548C1455.52 -194.635 1448.42 -196.059 1448.58 -191.083Z" fill="#4F76F6"/>
<path d="M1525.2 -124.13C1523.18 -127.467 1518.22 -124.562 1519.5 -121.034C1521.2 -117.106 1528.08 -119.991 1525.2 -124.13Z" fill="#4F76F6"/>
<path d="M1460.39 -163.078C1463.58 -159.53 1468.73 -164.434 1466.53 -168.098C1463.49 -172.148 1456.11 -167.087 1460.39 -163.078Z" fill="#4F76F6"/>
<path d="M575.454 89.8465C582.043 90.707 583.296 80.9506 577.421 79.07C570.554 77.3054 567.133 89.2926 575.454 89.8465Z" fill="#4F76F6"/>
<path d="M574.197 196.917C579.894 198.471 582.195 190.258 577.299 187.846C571.574 185.463 567.003 195.329 574.197 196.917Z" fill="#4F76F6"/>
<path d="M538.638 191.29C539.941 185.517 531.326 183.645 529.255 188.778C527.211 194.742 537.553 198.633 538.638 191.29Z" fill="#4F76F6"/>
<path d="M169.149 228.891C166.39 230.809 169.342 234.696 172.041 233.444C175.14 231.764 172.384 226.292 169.149 228.891Z" fill="#4F76F6"/>
<path d="M122.577 299.106C125.519 295.189 119.65 290.983 116.429 293.996C112.82 297.852 119.261 304.281 122.577 299.106Z" fill="#4F76F6"/>
<path d="M-131.148 487.134C-128.652 489.792 -124.792 486.01 -126.547 483.162C-128.894 480.002 -134.576 483.927 -131.148 487.134Z" fill="#4F76F6"/>
<path d="M-168.342 549.731C-173.02 548.89 -174.37 555.744 -170.331 557.353C-165.299 558.847 -162.257 550.442 -168.342 549.731Z" fill="#4F76F6"/>
<path d="M-140.7 517.011C-140.297 521.648 -133.676 521.013 -133.147 516.926C-132.898 511.936 -141.471 511.308 -140.7 517.011Z" fill="#4F76F6"/>
<path d="M-113.192 520.249C-117.701 516.994 -122.382 523.543 -119.015 527.417C-114.731 531.426 -107.337 524.04 -113.192 520.249Z" fill="#4F76F6"/>
<path d="M-173.188 491.354C-175.464 495.332 -169.623 498.709 -166.905 495.546C-163.963 491.629 -170.539 486.118 -173.188 491.354Z" fill="#4F76F6"/>
<path d="M-90.74 543.748C-84.0692 547.097 -79.1582 537.468 -84.4493 533.16C-91.2362 528.819 -99.335 539.965 -90.74 543.748Z" fill="#4F76F6"/>
<path d="M202.778 343.852C199.513 340.557 194.614 345.535 197.138 349.022C200.342 352.984 207.226 347.773 202.778 343.852Z" fill="#4F76F6"/>
<path d="M113.818 325.386C107.952 326.245 109.145 334.675 114.639 335.073C120.948 335.03 121.079 323.982 113.818 325.386Z" fill="#4F76F6"/>
<path d="M81.6348 326.372C77.5096 329.664 82.3665 335.896 86.7708 333.508C91.6508 330.44 86.5481 321.808 81.6348 326.372Z" fill="#4F76F6"/>
<path d="M-17.6098 418.182C-19.9109 426.395 -7.76047 429.728 -4.17397 422.717C-0.805713 414.136 -15.303 407.643 -17.6098 418.182Z" fill="#4F76F6"/>
<path d="M40.8799 361.769C32.4618 358.313 27.3072 370.607 34.3594 375.437C43.0704 380.213 51.8 365.558 40.8799 361.769Z" fill="#4F76F6"/>
<path d="M493.374 115.989C494.554 124.004 506.287 122.285 506.869 114.793C506.416 106.173 491.296 105.928 493.374 115.989Z" fill="#4F76F6"/>
<path d="M470.247 179.613C464.449 182.545 468.885 191.116 474.724 189.428C481.039 187.059 477.336 175.558 470.247 179.613Z" fill="#4F76F6"/>
<path d="M959.405 -34.7545C949.641 -38.7477 943.726 -24.3528 951.961 -18.8971C962.019 -13.5851 972.087 -30.4429 959.405 -34.7545Z" fill="#4F76F6"/>
<path d="M899.046 -24.612C893.252 -29.0693 886.552 -20.7925 890.878 -15.5392C896.463 -9.91244 906.615 -19.2173 899.046 -24.612Z" fill="#4F76F6"/>
<path d="M922.871 12.7084C924.28 17.6435 931.35 15.4988 930.947 10.8624C930.027 5.66191 920.679 6.71983 922.871 12.7084Z" fill="#4F76F6"/>
<path d="M934.258 43.0519C939.616 44.3685 941.516 36.5834 936.96 34.4099C931.575 32.2639 927.405 41.7021 934.258 43.0519Z" fill="#4F76F6"/>
<path d="M956.528 8.60094C952.309 14.0552 960.157 20.354 965.084 16.2047C970.385 10.7976 961.522 1.46033 956.528 8.60094Z" fill="#4F76F6"/>
<path d="M958.261 128.193C963.229 125.288 958.923 118.124 953.913 119.785C948.353 122.378 952.253 132.295 958.261 128.193Z" fill="#4F76F6"/>
<path d="M915.561 100.052C910.6 105.697 918.727 112.9 924.321 108.812C930.288 103.465 921.458 92.6323 915.561 100.052Z" fill="#4F76F6"/>
<path d="M832.911 39.1123C828.645 45.6476 838.403 51.9659 843.378 46.7357C848.725 40.2476 837.775 30.5644 832.911 39.1123Z" fill="#4F76F6"/>
<path d="M924.896 26.1753C930.058 29.076 934.534 21.3714 930.263 17.7768C924.986 13.8835 918.137 22.6634 924.896 26.1753Z" fill="#4F76F6"/>
<path d="M1338.02 -0.254203C1331.57 3.03229 1336.44 12.4189 1342.86 10.6281C1350.24 7.89187 1345.83 -4.91459 1338.02 -0.254203Z" fill="#4F76F6"/>
<path d="M1370.52 -111.601C1365.84 -117.507 1357.1 -110.657 1360.3 -104.37C1364.43 -97.5322 1376.73 -104.418 1370.52 -111.601Z" fill="#4F76F6"/>
<path d="M449.363 168.35C455.395 172.467 461.666 163.789 456.851 158.801C451.029 153.515 441.393 163.384 449.363 168.35Z" fill="#4F76F6"/>
<path d="M387.797 217.143C387.017 221.154 392.864 222.205 394.413 218.832C395.771 214.719 388.624 212.05 387.797 217.143Z" fill="#4F76F6"/>
<path d="M428.907 122.448C428.005 127.792 435.776 129.278 437.61 124.484C439.253 118.949 429.679 115.697 428.907 122.448Z" fill="#4F76F6"/>
<path d="M524.238 97.7755C517.312 101.742 523.048 111.931 530.029 109.623C537.886 106.207 532.856 92.2582 524.238 97.7755Z" fill="#4F76F6"/>
<path d="M474.481 132.143C477.76 135.854 483.088 131.276 480.877 127.198C478.074 122.807 470.183 127.719 474.481 132.143Z" fill="#4F76F6"/>
<path d="M531.694 184.712C535.727 188.646 541.428 182.811 538.625 178.42C534.816 173.731 526.389 179.989 531.694 184.712Z" fill="#4F76F6"/>
<path d="M540.858 185.653C545.782 188.894 550.436 181.515 546.491 177.744C541.54 173.673 534.425 181.964 540.858 185.653Z" fill="#4F76F6"/>
<path d="M582.326 209.185C575.76 211.479 579.068 221.084 585.35 220.211C592.684 218.555 590.435 205.843 582.326 209.185Z" fill="#4F76F6"/>
<path d="M506.656 188.367C502.142 187.437 500.778 193.876 504.491 195.662C509.359 197.244 512.415 189.255 506.656 188.367Z" fill="#4F76F6"/>
<path d="M560.336 124.641C562.67 127.387 566.795 124.094 565.366 121.07C563.019 117.909 557.235 121.257 560.336 124.641Z" fill="#4F76F6"/>
<path d="M523.35 133.509C524.802 127.233 515.596 125.048 513.035 130.447C510.767 137.165 522.041 141.607 523.35 133.509Z" fill="#4F76F6"/>
<path d="M695.874 130.517C695.565 123.719 685.7 124.213 684.575 130.311C684.319 137.627 696.741 139.124 695.874 130.517Z" fill="#4F76F6"/>
<path d="M732.028 69.1174C734.784 74.589 742.628 70.7581 741.279 65.1567C738.999 59.005 728.313 62.2661 732.028 69.1174Z" fill="#4F76F6"/>
<path d="M577.24 98.5886C578.147 90.9195 567.058 89.5442 564.79 96.2621C562.816 104.299 576.564 108.243 577.24 98.5886Z" fill="#4F76F6"/>
<path d="M658.679 115.645C661.64 122.272 671.469 118.209 670.079 111.363C667.757 103.968 654.42 107.4 658.679 115.645Z" fill="#4F76F6"/>
<path d="M699.266 52.6861C702.249 50.0129 698.202 45.6637 695.028 47.5959C691.63 50.2828 695.821 56.454 699.266 52.6861Z" fill="#4F76F6"/>
<path d="M161.269 289.102C164.963 292.798 170.426 287.303 167.637 283.327C164.005 278.964 156.23 284.868 161.269 289.102Z" fill="#4F76F6"/>
<path d="M107.802 279.254C114.249 283.357 120.241 273.775 115.099 268.964C108.536 263.868 99.3423 274.553 107.802 279.254Z" fill="#4F76F6"/>
<path d="M35.7727 343.008C34.8375 349.847 44.6824 351.264 46.9777 345.375C48.98 338.168 36.5643 334.346 35.7727 343.008Z" fill="#4F76F6"/>
<path d="M9.35643 395.116C11.3851 401.193 20.1743 398.327 19.4782 392.372C18.1767 385.69 6.3686 387.66 9.35643 395.116Z" fill="#4F76F6"/>
<path d="M-53.6633 385.17C-49.7976 379.064 -58.5362 373.459 -63.1979 378.097C-68.1445 384.157 -58.2147 393.127 -53.6633 385.17Z" fill="#4F76F6"/>
<path d="M-0.793834 379.511C-8.33315 380.011 -7.70951 391.283 -0.70668 392.129C7.52646 392.52 8.71676 378.365 -0.793834 379.511Z" fill="#4F76F6"/>
<path d="M-2.92989 422.676C-3.59265 415.225 -14.5242 416.087 -15.3709 423.089C-15.5985 431.234 -1.62041 432.098 -2.92989 422.676Z" fill="#4F76F6"/>
<path d="M-82.0072 444.235C-85.9831 447.024 -81.9694 452.869 -77.8775 451.072C-73.1469 448.507 -77.0664 440.5 -82.0072 444.235Z" fill="#4F76F6"/>
<path d="M-98.8392 477.426C-96.0052 475.256 -99.2975 471.13 -102.322 472.559C-105.408 474.655 -102.149 480.276 -98.8392 477.426Z" fill="#4F76F6"/>
<path d="M312.569 609.396C308.958 608.187 307.139 613.396 310.022 615.209C313.735 616.996 317.186 610.903 312.569 609.396Z" fill="#4F76F6"/>
<path d="M258.172 634.037C257.334 631.325 253.229 632.706 253.563 635.269C254.414 638.396 259.614 637.476 258.172 634.037Z" fill="#4F76F6"/>
<path d="M208.203 604.56C211.861 604.687 212.096 599.283 208.751 598.563C204.917 598.11 203.641 604.711 208.203 604.56Z" fill="#4F76F6"/>
<path d="M416.304 570.245C413.746 568.254 410.716 572.009 412.784 574.265C415.192 576.759 419.704 572.623 416.304 570.245Z" fill="#4F76F6"/>
<path d="M361.154 599.727C359.409 604.684 366.718 607.264 369.232 602.946C371.554 597.887 362.932 593.275 361.154 599.727Z" fill="#4F76F6"/>
<path d="M325.019 551.773C323.62 554.642 327.924 556.741 329.752 554.273C331.566 551.389 326.554 547.985 325.019 551.773Z" fill="#4F76F6"/>
<path d="M301.068 583.124C298.389 582.466 297.521 586.314 299.71 587.238C302.403 588.311 304.413 583.844 301.068 583.124Z" fill="#4F76F6"/>
<path d="M556.14 443.127C559.391 446.008 563.638 441.383 561.203 438.059C558.264 434.587 551.957 439.695 556.14 443.127Z" fill="#4F76F6"/>
<path d="M506.193 446.779C504.004 445.855 502.53 448.976 504.23 450.165C506.433 451.504 509.049 447.763 506.193 446.779Z" fill="#4F76F6"/>
<path d="M893.122 214.386C891.142 212.293 887.921 215.306 889.411 217.664C891.404 220.172 895.944 216.866 893.122 214.386Z" fill="#4F76F6"/>
<path d="M872.158 205.7C874.699 202.211 869.673 198.392 866.69 201.066C863.483 204.493 869.155 210.283 872.158 205.7Z" fill="#4F76F6"/>
<path d="M848.427 196.192C846.243 192.943 841.527 195.923 842.969 199.363C844.589 203.128 851.216 200.168 848.427 196.192Z" fill="#4F76F6"/>
<path d="M1178.79 177.909C1180.95 178.004 1181.09 174.761 1179.16 174.326C1176.83 173.906 1176.05 177.917 1178.79 177.909Z" fill="#4F76F6"/>
<path d="M1155.88 140.725C1157.12 143.009 1160.45 140.988 1159.72 138.853C1158.47 136.155 1153.96 137.965 1155.88 140.725Z" fill="#4F76F6"/>
<path d="M1118.77 158.315C1120.72 157.254 1119.29 154.229 1117.32 154.876C1115.03 155.699 1116.32 159.642 1118.77 158.315Z" fill="#4F76F6"/>
<path d="M1623.29 -100.902C1618.15 -100.648 1618.58 -92.8571 1623.33 -92.2678C1628.9 -92.1206 1629.66 -101.612 1623.29 -100.902Z" fill="#4F76F6"/>
<path d="M1580.44 -81.0449C1583.26 -78.5647 1586.78 -82.5842 1584.87 -85.3436C1581.94 -88.4016 1576.78 -83.9123 1580.44 -81.0449Z" fill="#4F76F6"/>
<path d="M1553.69 -38.8894C1555.8 -38.1289 1557.02 -41.3246 1555.15 -42.4251C1552.71 -43.4235 1550.76 -39.6223 1553.69 -38.8894Z" fill="#4F76F6"/>
<path d="M1533.22 -82.8803C1532 -87.0745 1525.75 -85.3721 1526.13 -81.1504C1526.95 -76.5277 1535.06 -77.5442 1533.22 -82.8803Z" fill="#4F76F6"/>
<path d="M1622.02 -96.6249C1625.66 -94.587 1628.72 -99.8367 1625.9 -102.317C1622.32 -105.021 1617.29 -99.1247 1622.02 -96.6249Z" fill="#4F76F6"/>
<path d="M1577.59 -131.849C1573.27 -134.363 1569.58 -127.93 1573.09 -124.974C1577.34 -121.794 1583.17 -128.962 1577.59 -131.849Z" fill="#4F76F6"/>
<path d="M1594.49 -145.447C1597.17 -142.463 1601.51 -146.51 1599.58 -149.684C1597.15 -153.008 1590.89 -148.98 1594.49 -145.447Z" fill="#4F76F6"/>
<path d="M1668.87 -53.4272C1671.04 -53.3329 1671.18 -56.5759 1669.25 -57.0102C1666.92 -57.4306 1666.14 -53.4192 1668.87 -53.4272Z" fill="#4F76F6"/>
<path d="M1645.97 -90.6118C1647.21 -88.3281 1650.54 -90.3488 1649.81 -92.4832C1648.56 -95.1816 1644.05 -93.3712 1645.97 -90.6118Z" fill="#4F76F6"/>
<path d="M1608.86 -73.0215C1610.81 -74.083 1609.38 -77.1076 1607.41 -76.4609C1605.03 -75.8004 1606.41 -71.6947 1608.86 -73.0215Z" fill="#4F76F6"/>
<path d="M131.442 683.334C126.303 683.588 126.728 691.379 131.48 691.968C137.048 692.115 137.975 682.536 131.442 683.334Z" fill="#4F76F6"/>
<path d="M88.5933 703.191C91.4158 705.671 94.9356 701.651 93.0172 698.892C90.344 695.909 84.9276 700.323 88.5933 703.191Z" fill="#4F76F6"/>
<path d="M61.8463 745.346C63.9473 746.107 65.1697 742.911 63.3064 741.811C60.8653 740.812 58.9158 744.613 61.8463 745.346Z" fill="#4F76F6"/>
<path d="M41.3701 701.355C40.1513 697.161 33.8974 698.863 34.2868 703.085C35.1047 707.708 43.3712 706.603 41.3701 701.355Z" fill="#4F76F6"/>
<path d="M130.173 687.611C133.811 689.649 136.875 684.399 134.052 681.919C130.475 679.214 125.44 685.111 130.173 687.611Z" fill="#4F76F6"/>
<path d="M85.7426 652.387C81.4245 649.873 77.7357 656.306 81.2383 659.262C85.4955 662.442 91.3187 655.274 85.7426 652.387Z" fill="#4F76F6"/>
<path d="M102.733 638.952C105.406 641.935 109.755 637.888 107.823 634.714C105.299 631.228 99.0397 635.255 102.733 638.952Z" fill="#4F76F6"/>
<path d="M177.027 730.808C179.189 730.903 179.33 727.66 177.406 727.226C175.067 726.805 174.287 730.816 177.027 730.808Z" fill="#4F76F6"/>
<path d="M154.12 693.624C155.358 695.907 158.695 693.887 157.96 691.752C156.708 689.054 152.201 690.864 154.12 693.624Z" fill="#4F76F6"/>
<path d="M117.008 711.214C118.965 710.153 117.536 707.128 115.565 707.775C113.179 708.435 114.561 712.541 117.008 711.214Z" fill="#4F76F6"/>
<path d="M1536.59 -153.736C1535.79 -150.554 1540.64 -149.387 1541.88 -152.168C1543.01 -155.527 1537.28 -157.911 1536.59 -153.736Z" fill="#4F76F6"/>
<path d="M1498.1 -207.591C1501.2 -209.271 1498.73 -213.839 1495.69 -212.824C1492.16 -211.545 1494.28 -205.305 1498.1 -207.591Z" fill="#4F76F6"/>
<path d="M1523.99 -205.794C1526.79 -206.468 1525.98 -210.676 1523.24 -210.668C1519.94 -210.143 1520.28 -204.84 1523.99 -205.794Z" fill="#4F76F6"/>
<path d="M1508.58 -204.618C1510.33 -209.574 1503.18 -212.243 1500.58 -208.088C1498 -203.104 1506.55 -198.24 1508.58 -204.618Z" fill="#4F76F6"/>
<path d="M1062.71 -61.8509C1064.53 -59.6694 1067.76 -62.2678 1066.52 -64.5516C1065.02 -67.3247 1060.38 -64.5965 1062.71 -61.8509Z" fill="#4F76F6"/>
<path d="M1013.23 -66.6835C1011.02 -70.7617 1005.14 -67.5774 1006.36 -63.3832C1008.17 -58.8766 1016.3 -61.8035 1013.23 -66.6835Z" fill="#4F76F6"/>
<path d="M638.805 -27.6732C637.033 -23.5458 642.935 -20.8357 645.401 -24.0729C648.003 -28.2279 641.04 -32.8955 638.805 -27.6732Z" fill="#4F76F6"/>
<path d="M1142.31 -372.463C1145.16 -374.218 1142.53 -378.282 1139.75 -377.193C1136.72 -375.764 1138.9 -370.19 1142.31 -372.463Z" fill="#4F76F6"/>
<path d="M1119.67 -336.754C1120.33 -339.433 1116.48 -340.301 1115.39 -338.023C1114.32 -335.33 1118.95 -333.408 1119.67 -336.754Z" fill="#4F76F6"/>
<path d="M1023.79 -313.474C1027.86 -316.1 1023.84 -321.945 1019.91 -320.237C1015.26 -317.924 1019.02 -309.828 1023.79 -313.474Z" fill="#4F76F6"/>
<path d="M1099.46 -405.165C1102.08 -406.166 1100.54 -410.183 1097.9 -409.597C1094.77 -408.746 1096.11 -403.559 1099.46 -405.165Z" fill="#4F76F6"/>
<path d="M-16.8616 695.568C-18.6719 691.061 -25.136 693.933 -24.332 698.141C-22.9225 703.076 -14.3573 700.965 -16.8616 695.568Z" fill="#4F76F6"/>
<path d="M-78.0481 710.803C-75.2807 711.624 -74.086 707.599 -76.4524 706.349C-79.2335 705.113 -81.4817 709.921 -78.0481 710.803Z" fill="#4F76F6"/>
<path d="M1342.34 -339.917C1320.02 -329.295 1297.96 -318.598 1275.65 -307.976C1270.66 -305.485 1265.43 -303.069 1260.41 -301.823C1251.1 -299.521 1242.99 -301.244 1233.97 -300.363C1201.68 -297.63 1171.1 -265.643 1137.97 -250.842C1124.22 -244.656 1107.85 -240.209 1098.83 -229.199C1090.14 -218.365 1092.95 -206.17 1083.76 -195.485C1076.41 -186.855 1064.02 -182.457 1053.58 -176.796C1022.82 -160.33 1004.38 -130.49 992.559 -104.025C988.687 -95.5936 985.319 -87.0124 985.166 -79.1193C985.107 -73.3881 986.857 -68.2151 988.443 -62.9538C992.216 -49.3788 993.303 -34.137 987.532 -17.92C981.76 -1.70298 968.226 15.7683 949.657 26.6812C941.841 31.3416 933.48 34.6086 925.561 38.6912C908.093 47.7409 892.272 61.3856 882.047 76.0069C876.34 84.1676 872.469 92.5995 866.258 100.611C845.711 126.95 801.29 141.961 779.461 129.733C766.61 140.29 751.777 143.689 736.449 149.678C686.033 169.205 644.837 221.307 650.537 257.9C670.854 234.641 696.72 213.438 724.899 196.892C794.368 156.057 877.603 142.165 937.829 90.5109C949.049 80.8385 959.16 70.2896 971.414 61.7453C988.86 49.5412 1009.95 42.1147 1025.6 28.1438C1038.17 16.6828 1044.85 2.92646 1050.39 -10.2107C1058.87 -30.005 1065.94 -49.6693 1071.6 -69.204C1075.63 -82.7892 1079 -96.4353 1087.84 -110.097C1102.55 -132.423 1131.03 -152.301 1137.26 -174.678C1138.74 -180.124 1138.81 -185.44 1142.11 -191.03C1145.42 -196.62 1151.4 -201.552 1157.32 -205.817C1190.64 -230.007 1230.12 -243.608 1266.16 -263.57C1311.41 -288.738 1351.32 -324.522 1377.27 -363.081C1365.74 -352.817 1355.91 -346.429 1342.34 -339.917Z" fill="#4F76F6"/>
<path d="M1104.84 -223.329C1113.26 -239.581 1126.17 -255.276 1141.73 -268.337C1149.19 -274.556 1158.25 -280.554 1167.03 -280.698C1172.17 -280.764 1176.16 -278.852 1181.22 -278.605C1199.36 -277.842 1217.48 -299.355 1236.65 -303.499C1249.2 -306.229 1260.07 -300.71 1272.55 -304.486C1283.77 -307.853 1292.99 -317.197 1301.06 -325.921C1321.39 -348.359 1343.58 -373.711 1372.38 -382.803C1397.03 -390.463 1422.81 -385.146 1444.88 -399.831C1453.94 -405.83 1460.56 -414.042 1466.69 -422.258C1492.4 -455.218 1518.94 -492.983 1513.69 -524.919C1520.04 -527.277 1526.39 -529.635 1532.86 -531.783C1530.83 -517.366 1528.91 -502.739 1529.13 -488.723C1529.46 -474.498 1531.91 -460.884 1531.56 -446.559C1531.24 -438.509 1528.04 -430.794 1526.55 -422.648C1525.25 -414.605 1522.62 -405.839 1515.84 -398.36C1512.64 -394.724 1508.91 -391.614 1505.6 -388.188C1494.79 -376.347 1493.06 -360.463 1501.46 -352.243C1506.24 -347.501 1514.34 -344.826 1515.63 -337.914C1516.42 -333.725 1514.71 -328.718 1512.27 -324.135C1507.16 -314.029 1499.77 -304.044 1489.54 -296.591C1474.88 -285.928 1456.21 -281.78 1441.42 -284.087C1426.7 -286.707 1415.8 -295.468 1409.76 -306.599C1407.48 -310.799 1405.78 -315.309 1402.09 -318.474C1398.82 -321.322 1394.3 -322.401 1388.75 -321.292C1381.63 -319.881 1380.11 -321.775 1374.98 -324.428C1368.71 -327.821 1362.78 -325.147 1356.15 -319.653C1352.23 -316.441 1348.54 -312.808 1344.51 -309.805C1341.8 -307.525 1338.46 -305.981 1336.97 -303.273C1335.68 -300.668 1335.94 -297.006 1335.44 -294.29C1333.3 -282.803 1330.66 -271.318 1327.34 -259.735C1324.9 -251.073 1320.4 -240.753 1310.55 -236.225C1299.93 -231.284 1290.62 -237.106 1280.51 -237.6C1270.58 -238.197 1260.04 -233.569 1250.38 -227.785C1245.36 -224.79 1240.56 -221.374 1235.88 -217.749C1226.4 -210.708 1213.97 -209.128 1206.94 -214.828C1203.37 -217.783 1201.28 -222.086 1196.6 -223.899C1186.22 -228.055 1169.82 -216.987 1163.12 -205.743C1156.22 -194.395 1155.11 -182.377 1149.01 -170.918C1143.03 -159.25 1128.49 -147.018 1116.59 -148.989C1118.75 -139.561 1108.2 -128.136 1099.41 -118.475C1090.5 -109.025 1081.78 -95.5995 1088.12 -88.4406C1090.17 -86.02 1093.52 -84.8445 1096.41 -83.1497C1106.78 -76.2744 1104.79 -58.6152 1092.15 -47.4149C1087.31 -43.1632 1081.61 -40.0684 1076.77 -35.8167C1072.51 -31.8745 1070.53 -27.8107 1068.28 -23.3305C1060.24 -5.92565 1048.96 13.233 1031.46 26.8023C1022.09 34.053 1009.92 39.2957 999.423 39.0081C996.952 38.9897 994.556 38.6581 992.237 38.0133C989.005 37.048 987.485 36.5137 990.112 33.1867C994.339 27.3618 1000.81 22.4948 1006.18 17.4104C1024.56 0.919427 1039.8 -22.2882 1041.72 -42.3534C1043.06 -56.6709 1037.33 -69.0542 1036.93 -82.9665C1036.6 -93.1133 1038.32 -103.558 1041.22 -114.099C1044.84 -126.936 1048.43 -140.295 1060.77 -151.602C1071.73 -161.351 1079.68 -170.286 1085.74 -182.267C1091.38 -193.206 1095.12 -204.473 1099.96 -215.522C1102.25 -218.12 1103.54 -220.724 1104.84 -223.329Z" fill="#4F76F6"/>
<path d="M107.93 508.004C110.584 512.897 109.146 519.588 108.197 526.013C107.037 533.607 106.782 540.923 107.268 548.047C107.801 554.091 110.272 560.983 118.138 560.307C122.611 559.992 127.253 557.264 131.657 554.876C139.073 550.644 146.325 546.5 153.652 542.105C159.436 538.758 165.798 535.308 171.352 535.041C174.255 534.944 176.607 535.78 178.872 536.452C184.746 538.332 190.709 540.376 196.584 542.257C198.597 542.854 200.446 543.54 201.657 544.994C203.827 547.828 201.579 552.636 200.221 556.749C195.509 569.859 198.009 582.646 208.821 588.182C219.634 593.718 238.702 590.345 251.879 579.611C256.732 575.713 261.128 570.585 266.879 568.733C269.591 567.896 272.331 567.888 274.819 567.805C288.178 567.528 302.46 565.06 316.749 560.268C325.123 557.416 334.612 553.115 339.871 546.463C342.412 542.975 343.784 539.276 346.325 535.787C348.227 533.067 350.973 530.734 353.807 528.564C374.134 513.109 404.311 509.2 418.886 490.532C424.145 483.88 425.984 476.761 429.407 469.839C432.831 462.917 439.218 455.232 447.593 452.379C457.612 449.057 464.277 454.731 471.111 457.991C486.894 465.687 513.487 461.399 534.625 447.827C539.579 444.507 544.357 440.861 548.795 436.977C558.961 428.087 567.68 418.083 574.562 407.807C541.948 420.847 513.567 411.328 482.492 413.191C446.944 415.368 407.418 432.79 372.089 454.058C356.708 463.453 341.029 473.855 324.415 478.641C299.251 485.954 278.505 478.838 254.718 480.127C244.024 480.648 232.393 482.944 224.152 479.814C219.95 478.293 216.95 475.486 212.911 473.877C203.161 470.298 188.742 473.683 178.19 470.962C172.329 469.496 167.895 465.99 161.633 464.952C154.453 463.779 145.711 465.564 137.221 467.424C120.24 471.143 102.769 475.128 86.4568 483.973C81.7262 486.539 59.0874 502.403 70.0741 503.2C74.4865 503.552 80.4003 501.611 85.1998 501.12C89.8363 500.717 94.398 500.565 98.4094 501.345C102.775 502.778 106.161 504.741 107.93 508.004Z" fill="#4F76F6"/>
<path d="M629.919 324.596C618.513 343.657 607.195 362.882 593.613 381.434C574.637 407.556 545.613 436.17 513.669 441.881C499.475 444.511 487.012 441.77 477.458 436.607C473.569 434.495 470.08 431.953 464.75 431.466C457.924 430.946 450.141 434.11 442.657 436.269C434.52 438.781 427.973 439.165 419.892 443.336C412.952 446.888 406.468 451.67 401.759 457.389C399.68 459.783 398.192 462.49 396.113 464.884C392.192 469.332 389.203 474.33 385.371 478.941C379.622 485.858 373.031 492.387 365.154 497.714C351.357 507.306 332.772 512.739 322.538 507.101C319.24 505.301 315.323 502.359 310.681 505.087C304.971 508.183 306.082 514.124 304.826 518.816C301.928 529.042 283.915 536.698 274.505 533.357C265.094 530.017 263.105 520.119 263.943 510.376C264.356 505.297 264.829 499.552 260.45 497.705C258.512 496.856 255.861 497.027 253.284 496.947C244.738 497.148 236.193 497.349 227.647 497.55C225.988 497.605 224.078 497.585 222.195 498.395C218.504 499.763 216.126 503.163 213.054 505.673C203.527 513.795 189.888 513.169 183.163 508.161C176.437 503.153 173.836 494.854 167.674 489.329C160.995 483.241 149.716 481.124 137.554 482.442C131.435 483.226 125.181 484.929 118.792 487.549C116.005 488.638 114.197 489.196 111.546 489.367C101.593 489.698 90.0639 492.572 79.4803 496.411C6.0341 522.515 -50.734 613.246 -120.885 618.566C-141.341 620.159 -157.511 613.306 -171.887 605.481C-184.65 598.681 -197.116 590.875 -202.179 578.422C-201.192 580.631 -195.406 582.349 -192.877 583.51C-189.504 585.059 -186.056 586.356 -182.371 587.313C-174.912 589.39 -166.815 590.698 -158.33 591.164C-150.26 591.643 -141.803 591.279 -133.285 590.249C-128.9 589.771 -124.291 588.538 -120.457 588.992C-117.54 589.31 -114.786 589.717 -111.632 589.695C-105.649 589.829 -99.1907 589.282 -92.8346 588.157C-79.7962 585.731 -66.3372 580.967 -53.6135 574.067C-48.2304 571.148 -42.9495 567.652 -37.9202 564.08C-36.5405 563.121 -35.2493 561.999 -34.4613 560.727C-32.498 557.341 -36.537 555.731 -39.0057 553.903C-45.9694 549.236 -42.1336 537.235 -33.612 528.814C-25.0904 520.394 -13.0663 514.93 -1.8302 510.737C12.4443 505.53 28.2284 500.771 38.5777 489.882C40.7454 487.651 42.7362 485.094 45.1555 482.938C47.9011 480.605 51.252 478.999 54.4399 477.481C65.5599 472.296 76.7546 466.859 88.1952 463.822C99.4725 460.873 110.996 460.324 118.36 464.563C120.815 465.976 122.706 467.906 125.786 468.136C127.785 468.319 130.259 467.821 132.571 467.412C144.453 465.191 156.989 462.616 168.57 456.336C170.691 455.186 172.886 453.784 175.035 453.464C176.605 453.245 177.774 453.456 179.107 453.577C192.712 455.699 205.528 459.093 217.543 463.344C227.545 466.997 238.396 468.712 251.313 467.619C275.25 465.827 302.643 455.617 324.5 438.7C326.844 436.795 329.189 434.891 331.534 432.986C337.337 427.728 343.528 421.627 350.849 419.557C361.209 416.473 367.561 422.739 375.537 425.38C398.784 432.828 432.936 408.61 458.503 388.414C463.118 384.856 471.097 380.108 474.365 376.013C475.004 375.245 475.214 374.075 475.764 373.144C477.266 370.852 479.447 369.036 482.057 367.621C490.689 362.518 510.037 360.048 516.987 364.301C523.005 368.004 527.616 371.836 535.727 373.559C551.018 376.456 571.229 372.463 588.567 362.006C591.741 360.074 594.664 358.067 597.409 355.734C630.56 328.893 631.924 292.479 649.939 259.913C658.003 245.198 669.901 230.936 683.336 217.952C697.735 204.022 714.502 191.342 732.976 182.591C744.585 177.141 756.502 173.423 768.241 169.38C789.911 161.851 811.629 153.242 832.89 143.402C843.684 138.393 854.389 133.222 865.081 127.635C869.485 125.247 871.666 123.431 875.139 120.493C879.577 116.609 884.023 115.465 889.079 112.723C902.292 105.558 912.009 93.1124 918.952 82.1706C928.185 67.6653 938.015 51.1474 955.245 42.4378C961.206 39.4166 967.297 37.8027 973.36 35.3594C1005.22 22.0951 1023.85 -9.32893 1037.25 -36.0122C1040.36 -42.343 1043.63 -48.7622 1044.67 -55.0241C1046.89 -68.0511 1039.07 -78.5853 1044.27 -91.9603C1051.23 -109.877 1076.29 -122.833 1093.47 -138.266C1118.63 -160.773 1126.83 -188.862 1138.41 -214.987C1150 -241.112 1172.39 -271.83 1203.78 -281.675C1213.15 -284.643 1222.35 -285.198 1231.74 -287.337C1242.13 -289.591 1252.79 -293.682 1263.2 -297.847C1292.29 -309.193 1322.7 -321.247 1347.7 -340.926C1387.35 -372.135 1406.05 -416.68 1446.73 -446.761C1456.37 -453.89 1467.45 -460.319 1474.55 -469.024C1480.14 -475.853 1482.88 -483.25 1486.54 -490.513C1505.41 -527.342 1551.29 -556.018 1593.25 -580.246C1586.81 -576.544 1580.35 -570.933 1574.61 -566.341C1568.47 -561.321 1562.58 -556.227 1557.02 -550.894C1545.67 -540.304 1535.5 -529.089 1526.33 -517.575C1517.16 -506.061 1509.34 -494.011 1502.93 -482.09C1500.51 -477.609 1498.66 -473.23 1498.63 -468.994C1498.59 -465.173 1499.21 -461.706 1498.75 -457.872C1497.64 -449.033 1495.87 -439.841 1494.75 -431.002C1493.72 -422.001 1492.94 -412.924 1491.91 -403.922C1490.83 -393.84 1489.43 -383.58 1487.2 -373.293C1486.7 -370.703 1486.3 -367.949 1485.23 -365.256C1484.3 -363.067 1483.13 -360.952 1482.62 -358.776C1480.9 -352.99 1478.09 -347.665 1472.45 -342.496C1470.03 -340.34 1467.19 -338.17 1464.86 -335.851C1461.33 -332.246 1459.14 -328.105 1456.7 -324.038C1449.22 -311.75 1438.83 -299.78 1426.47 -289.488C1419.03 -283.346 1410.59 -277.502 1401.65 -274.133C1393.94 -271.22 1386.59 -269.98 1378.86 -267.896C1359.12 -262.258 1339.84 -250.325 1321.46 -238.671C1318.28 -236.739 1314.87 -234.467 1312.72 -231.821C1310.56 -229.176 1309.49 -226.483 1308 -223.776C1304.23 -217.507 1297.27 -212.044 1290.12 -207.323C1276.47 -198.234 1261.18 -191.001 1246.23 -186.269C1233.41 -182.273 1220.77 -180.275 1208.04 -176.116C1200.73 -173.631 1193.2 -170.392 1186.38 -165.848C1183.13 -163.664 1179.8 -161.228 1177.07 -158.481C1175.87 -157.195 1174.76 -155.747 1173.46 -154.624C1171.28 -152.808 1168.18 -151.128 1165.66 -149.549C1161.85 -146.849 1158.2 -144.236 1154.48 -141.373C1143.47 -132.87 1131.04 -121.912 1124.43 -111.147C1121.27 -106.06 1116.35 -101.911 1112.53 -96.8851C1108.07 -91.0908 1104.78 -85.0862 1102.16 -79.0208C1097.53 -68.4879 1094.39 -57.9216 1087.51 -47.646C1081.27 -38.139 1072.26 -29.4533 1065.35 -20.0072C1058.6 -10.6495 1053.98 0.298154 1058.36 7.21035C1059.85 9.56878 1062.32 11.3965 1062.51 14.4626C1062.68 17.1139 1060.95 20.1604 1059.3 22.9553C1051.6 35.9983 1042.47 48.7563 1032.09 61.1409C1027.46 66.609 1022.5 72.2539 1015.91 76.4583C1009.56 80.3226 1002.66 82.3788 995.912 84.3465C988.428 86.5049 981.107 88.5749 973.623 90.7333C971.237 91.3938 968.851 92.0542 966.819 93.3672C964.623 94.7687 962.945 96.7342 961.341 98.4481C946.609 114.88 926.356 130.083 905.134 136.103C895.012 138.847 885.073 139.592 874.938 141.922C874.034 142.201 873.041 142.317 872.137 142.596C864.401 144.68 856.782 147.756 849.278 151.825C845.526 153.859 842.026 155.968 838.451 158.329C833.333 161.737 827.48 163.011 821.967 164.523C815.802 166.388 809.711 168.002 803.457 169.704C791.527 173.007 779.271 176.486 767.396 181.448C723.588 199.925 687.599 236.326 662.305 272.206C650.517 289.786 640.137 307.235 629.919 324.596Z" fill="#4F76F6"/>
</g>
</svg>
