<svg width="692" height="200" viewBox="0 0 692 200" fill="none" xmlns="http://www.w3.org/2000/svg">
<g clip-path="url(#clip0_1_3691)">
<path d="M616.085 37.9562C626.304 39.4161 689.08 115.328 687.62 127.007C686.16 140.146 632.144 176.642 566.447 176.642C540.169 176.642 484.692 172.263 484.692 172.263C484.692 172.263 462.793 119.708 461.333 118.248C461.333 116.788 478.852 51.0949 478.852 51.0949C478.852 51.0949 527.03 27.7372 616.085 37.9562Z" fill="#7D79E3"/>
<path d="M525.57 84.6716L535.789 81.7519L541.629 90.511L473.013 99.2701C473.013 99.2701 467.173 91.9708 467.173 89.0511C467.173 86.1314 506.591 37.9562 506.591 37.9562L525.57 55.4745V84.6716Z" fill="#B77FD7"/>
<path d="M480.312 20.438C480.312 20.438 500.751 21.8978 493.452 36.4964C487.612 51.0949 458.414 109.489 458.414 109.489C458.414 109.489 478.852 118.248 478.852 128.467C478.852 137.226 481.772 154.745 481.772 154.745L503.671 167.883C503.671 167.883 512.43 164.964 518.27 170.803C522.65 176.642 525.57 186.861 525.57 186.861L537.249 191.241C537.249 191.241 534.329 198.54 529.949 198.54C527.03 198.54 522.65 195.62 497.831 195.62C473.013 195.62 426.295 197.08 426.295 197.08C426.295 197.08 413.156 201.46 378.118 194.161C343.08 186.861 318.262 176.642 294.903 176.642C271.544 176.642 23.3587 183.942 11.6794 179.562C8.23438e-05 176.642 -2.91975 175.183 1.46 143.066C5.83975 110.949 36.498 90.511 56.9368 83.2117C77.3756 75.9124 134.312 61.3139 134.312 61.3139C134.312 61.3139 143.072 52.5548 153.291 49.6351C163.511 46.7154 335.781 37.9562 337.241 39.4161C338.701 40.8759 344.54 43.7957 344.54 43.7957C344.54 43.7957 359.139 35.0365 366.439 35.0365C373.738 33.5767 420.456 42.3358 420.456 42.3358C420.456 42.3358 426.295 36.4964 429.215 35.0365C430.675 33.5767 474.473 20.438 480.312 20.438Z" fill="#5752CC"/>
<path d="M420.456 45.2555C416.076 45.2555 411.696 45.2555 407.317 46.7153C395.637 49.635 385.418 55.4745 376.658 62.7737C369.359 68.6131 362.059 77.3723 356.22 84.6715C354.76 86.1314 353.3 84.6715 353.3 83.2117C363.519 70.073 375.199 58.3942 389.798 49.635C397.097 45.2555 405.857 42.3358 416.076 40.8759C417.536 40.8759 418.996 40.8759 420.456 40.8759C421.916 42.3358 421.916 45.2555 420.456 45.2555Z" fill="#193989"/>
<path d="M344.54 80.292C348.92 75.9124 353.3 71.5328 357.679 67.1533C366.439 58.3941 378.118 51.0949 389.797 46.7153C397.097 43.7956 405.856 42.3358 414.616 42.3358C416.076 42.3358 416.076 45.2555 414.616 45.2555C400.017 43.7956 386.878 49.635 375.198 56.9343C366.439 62.7737 357.679 70.073 351.84 77.3723C350.38 78.8321 350.38 80.292 348.92 80.292C348.92 80.292 348.92 80.292 347.46 81.7518C346 83.2117 344.54 81.7518 344.54 80.292Z" fill="#193989"/>
<path d="M335.781 119.708C335.781 121.168 335.781 121.168 335.781 122.628C335.781 124.088 334.321 127.007 334.321 128.467C331.401 134.307 328.481 138.686 324.101 141.606C318.262 145.985 310.962 147.445 303.662 147.445C299.283 147.445 293.443 145.985 289.063 144.526C275.924 141.606 262.785 137.226 249.646 131.387C236.506 127.007 223.367 121.168 210.228 116.788C205.848 115.328 201.468 112.409 197.089 110.949C195.629 109.489 192.709 109.489 191.249 108.029C189.789 106.569 191.249 105.109 192.709 105.109C198.549 108.029 202.928 109.489 208.768 112.409C220.447 116.788 233.587 122.628 245.266 127.007C258.405 131.387 271.544 137.226 284.684 140.146C294.903 143.066 306.582 145.985 318.262 141.606C327.021 138.686 334.321 128.467 335.781 119.708C334.321 118.248 332.861 119.708 335.781 119.708Z" fill="#193989"/>
<path d="M229.207 131.387C221.907 129.927 214.608 128.467 207.308 125.547C195.629 122.628 183.95 119.708 172.27 116.788C169.35 116.788 166.431 115.328 163.511 115.328C162.051 115.328 162.051 112.409 164.971 112.409C172.27 113.869 179.57 115.328 186.869 118.248C198.549 121.168 210.228 124.088 221.907 127.007C224.827 127.007 227.747 128.467 230.667 128.467C230.667 129.927 230.667 131.387 229.207 131.387Z" fill="#193989"/>
<path d="M343.08 46.7153C338.701 48.1752 334.321 49.6351 328.481 51.0949C319.722 55.4745 309.502 59.854 302.203 65.6934C297.823 68.6132 293.443 72.9927 289.063 77.3723C287.603 78.8321 286.144 77.3723 286.144 75.9124C291.983 67.1533 302.203 61.3139 310.962 55.4745C318.262 51.0949 327.021 48.1752 335.781 45.2555C338.701 43.7956 340.16 43.7956 341.62 43.7956C344.54 42.3358 344.54 45.2555 343.08 46.7153Z" fill="#193989"/>
<path d="M490.532 30.657C489.072 30.657 489.072 30.657 487.612 30.657H486.152C484.692 30.657 483.232 32.1168 481.772 33.5767C478.852 35.0365 477.392 37.9562 474.473 39.4161C471.553 43.7956 468.633 46.7153 464.253 51.0949C459.873 56.9343 455.494 61.3139 452.574 67.1533C449.654 71.5329 446.734 77.3723 443.814 83.2117C439.435 91.9708 435.055 102.19 430.675 112.409C429.215 116.788 427.755 122.628 426.295 127.007C426.295 128.467 423.375 128.467 423.375 125.547C424.835 121.168 426.295 116.788 427.755 112.409C430.675 102.19 435.055 93.4307 439.435 83.2117C442.354 77.3723 445.274 72.9927 448.194 67.1533C452.574 62.7737 456.954 58.3942 459.873 52.5548C464.253 48.1752 467.173 43.7956 471.553 39.4161C474.473 36.4964 475.932 33.5767 478.852 32.1168C480.312 30.657 481.772 29.1971 484.692 27.7372C486.152 27.7372 487.612 27.7372 490.532 27.7372C491.992 27.7372 491.992 30.657 490.532 30.657Z" fill="#193989"/>
<path d="M649.663 121.168C651.123 121.168 651.123 121.168 649.663 121.168C649.663 122.628 649.663 122.628 648.203 122.628C646.743 124.088 645.283 127.007 642.363 128.467C635.063 135.766 627.764 140.146 619.004 144.526C611.705 147.445 604.405 150.365 597.106 153.285C595.646 153.285 594.186 150.365 595.646 150.365C607.325 147.445 619.004 141.606 629.224 134.307C635.063 129.927 639.443 125.547 643.823 121.168C645.283 119.708 645.283 118.248 646.743 118.248C652.582 118.248 652.582 121.168 649.663 121.168Z" fill="#5752CC"/>
<path d="M566.447 103.65C563.528 105.11 562.068 108.029 560.608 109.489C556.228 115.329 550.388 121.168 547.468 128.467C544.549 132.847 541.629 138.686 540.169 144.526C540.169 145.985 537.249 145.985 537.249 143.066C543.089 128.467 551.848 115.329 563.527 103.65C563.527 102.19 563.528 102.19 564.987 100.73C566.447 99.2701 567.907 102.19 566.447 103.65Z" fill="#5752CC"/>
<path d="M548.928 182.482C564.987 182.482 581.046 181.022 597.105 178.102C604.405 176.642 611.705 175.183 619.004 173.723C620.464 173.723 621.924 176.642 620.464 176.642C598.565 182.482 576.667 183.942 554.768 185.401C553.308 185.401 551.848 185.401 550.388 185.401C546.008 185.401 546.008 182.482 548.928 182.482Z" fill="#4F76F6"/>
<path d="M608.785 181.022C617.544 178.102 626.304 176.642 635.063 173.723C636.523 173.723 637.983 176.642 636.523 176.642C627.764 179.562 619.004 181.022 610.245 183.942C608.785 183.942 607.325 181.022 608.785 181.022Z" fill="#4F76F6"/>
<path d="M692 132.847C689.08 138.686 683.241 143.066 678.861 147.445C675.941 148.905 674.481 151.825 671.561 153.285C670.101 154.745 668.641 151.825 670.101 150.365C675.941 147.445 680.321 143.066 684.7 137.226C686.16 135.766 687.62 132.847 689.08 131.387C690.54 129.927 693.46 131.387 692 132.847Z" fill="#4F76F6"/>
<path d="M210.228 185.401C216.068 185.401 221.907 183.942 227.747 183.942C240.886 182.482 252.566 182.482 265.705 182.482C277.384 182.482 287.604 181.022 299.283 181.022C302.203 181.022 305.123 181.022 309.502 181.022C315.342 182.482 321.182 183.942 327.021 185.401C337.241 188.321 348.92 192.701 359.139 195.62C360.599 195.62 360.599 198.54 357.679 198.54C348.92 195.62 338.701 192.701 329.941 189.781C324.101 188.321 316.802 185.401 310.962 183.942C309.502 183.942 308.042 183.942 308.042 182.482H306.582C305.123 182.482 303.663 182.482 302.203 182.482C291.983 182.482 281.764 182.482 270.085 183.942C256.945 183.942 243.806 185.401 232.127 185.401C227.747 185.401 221.907 185.401 217.528 186.861C214.608 186.861 213.148 186.861 210.228 186.861C208.768 188.321 208.768 186.861 210.228 185.401Z" fill="#4F76F6"/>
<path d="M435.055 102.19C433.595 106.569 433.595 112.409 433.595 116.788C433.595 127.007 433.595 137.226 437.975 145.985C439.435 151.825 443.814 156.204 448.194 160.584C449.654 162.044 448.194 163.504 446.734 162.044C437.975 154.745 435.055 144.526 433.595 134.307C432.135 125.547 432.135 116.788 433.595 108.029C433.595 106.569 433.595 103.65 435.055 102.19C436.515 100.73 433.595 99.2701 435.055 102.19Z" fill="#193989"/>
<path d="M341.62 46.7154C343.08 43.7956 347.46 40.8759 350.38 39.4161C356.22 35.0365 363.519 33.5767 370.819 35.0365C376.658 35.0365 383.958 36.4964 389.798 37.9562C395.637 39.4161 402.937 40.8759 408.776 40.8759C411.696 40.8759 414.616 42.3358 416.076 42.3358C417.536 42.3358 417.536 42.3358 418.996 42.3358C420.456 42.3358 421.916 45.2555 420.456 45.2555C418.996 45.2555 418.996 45.2555 417.536 45.2555C416.076 45.2555 413.156 43.7956 411.696 43.7956C405.857 42.3358 400.017 40.8759 392.717 40.8759C386.878 39.4161 379.578 39.4161 373.738 37.9562C370.819 37.9562 367.899 37.9562 364.979 37.9562C360.599 37.9562 357.679 39.4161 353.3 40.8759C348.92 42.3358 344.54 45.2555 343.08 49.6351C341.62 49.6351 340.16 48.1752 341.62 46.7154Z" fill="#193989"/>
<path d="M569.367 106.569C567.907 106.569 521.19 140.146 508.051 144.526C490.532 150.365 475.932 147.445 471.553 141.606C467.173 135.766 470.093 124.088 473.013 121.168C475.933 119.708 556.228 97.8102 556.228 97.8102L569.367 106.569Z" fill="#F7A98F"/>
<path d="M540.169 81.7518C540.169 81.7518 522.65 87.5912 521.19 91.9708C519.73 97.8102 510.971 90.511 512.431 77.3723C513.89 64.2336 534.329 64.2336 534.329 64.2336L540.169 81.7518Z" fill="#F7A98F"/>
<path d="M588.346 7.29928C588.346 7.29928 602.945 10.219 613.165 23.3577C623.384 36.4964 626.304 56.9343 626.304 56.9343C626.304 56.9343 645.283 61.3139 651.122 74.4526C656.962 87.5913 652.582 94.8905 652.582 94.8905C652.582 94.8905 656.962 80.292 645.283 72.9927C645.283 72.9927 661.342 93.4307 637.983 102.19C614.625 112.409 602.945 93.4307 588.346 91.9708C573.747 90.511 532.869 67.1533 532.869 67.1533C532.869 67.1533 531.409 70.073 521.19 68.6132C512.431 67.1533 516.81 48.1752 516.81 48.1752C516.81 48.1752 522.65 49.635 524.11 40.8759C525.57 32.1168 529.95 8.75914 553.308 1.45987C576.667 -4.37955 588.346 7.29928 588.346 7.29928Z" fill="#001C31"/>
<path d="M579.587 36.4964C579.587 36.4964 567.907 42.3358 559.148 40.8759C550.388 40.8759 548.928 39.4161 548.928 39.4161H547.468C547.468 39.4161 543.089 37.9562 538.709 33.5766C537.249 32.1168 528.49 46.7153 535.789 48.1752C535.789 48.1752 528.49 61.3139 528.49 65.6934C528.49 70.073 527.03 83.2117 532.869 89.0511C535.789 91.9708 544.549 91.9708 554.768 90.511C564.987 89.0511 589.806 70.073 591.266 67.1533C592.726 64.2336 579.587 61.3139 579.587 36.4964Z" fill="#F7A98F"/>
<path d="M557.688 84.6716C557.688 84.6716 548.928 81.7519 543.089 72.9927C543.089 72.9927 538.709 83.2117 546.009 86.1314C553.308 87.5913 557.688 84.6716 557.688 84.6716Z" fill="white"/>
<path d="M589.806 72.9927C592.726 71.5329 597.105 68.6132 598.565 68.6132C600.025 68.6132 600.025 72.9927 600.025 72.9927C600.025 72.9927 602.945 72.9927 602.945 75.9124C602.945 78.8321 601.485 80.292 601.485 80.292C601.485 80.292 604.405 78.8321 604.405 81.7518C604.405 83.2117 600.025 86.1314 600.025 86.1314C600.025 86.1314 602.945 86.1314 601.485 89.0511C600.025 91.9708 582.506 105.11 576.667 106.569C570.827 109.489 563.527 108.029 560.608 105.11C557.688 102.19 589.806 72.9927 589.806 72.9927Z" fill="#F7A98F"/>
<path d="M547.468 90.511C547.468 90.511 569.367 72.9927 572.287 72.9927C575.207 72.9927 594.186 68.6132 594.186 68.6132C595.646 68.6132 597.106 72.9927 595.646 74.4526C595.646 75.9124 591.266 75.9124 591.266 75.9124C591.266 75.9124 592.726 77.3723 592.726 78.8321C591.266 80.292 588.346 81.7518 588.346 81.7518C588.346 81.7518 592.726 81.7518 592.726 83.2117C592.726 84.6716 589.806 87.5913 585.426 87.5913C581.046 89.0511 576.667 90.511 573.747 91.9708C572.287 93.4307 566.447 100.73 556.228 102.19C546.009 103.65 534.329 100.73 534.329 97.8102C532.869 99.2701 547.468 90.511 547.468 90.511Z" fill="#F7A98F"/>
<path d="M548.928 90.511C548.928 90.511 475.933 86.1314 474.473 87.5913C473.013 89.0511 512.43 70.073 515.35 56.9343C518.27 43.7956 510.971 33.5767 500.751 33.5767C490.532 33.5767 474.473 42.3358 470.093 46.7153C465.713 51.0949 432.135 91.9708 437.975 109.489C442.355 127.007 470.093 127.007 480.312 125.547C490.532 124.088 556.228 108.029 557.688 102.19C559.148 97.8102 548.928 90.511 548.928 90.511Z" fill="#F7A98F"/>
<path d="M560.608 59.854C559.148 61.3139 556.228 59.854 554.768 58.3942C551.848 56.9343 548.928 54.0146 548.928 49.635C548.928 48.1752 548.928 48.1752 548.928 46.7153V48.1752C547.468 46.7153 547.468 46.7153 546.009 45.2555C544.549 43.7956 546.009 42.3358 547.468 43.7956C548.928 45.2555 548.928 45.2555 550.388 46.7153V48.1752C550.388 48.1752 550.388 48.1752 550.388 49.635V51.0949L551.848 52.5547L553.308 54.0146H554.768H556.228C562.068 59.854 562.068 59.854 560.608 59.854Z" fill="#001C31"/>
<path d="M569.367 52.5548C567.907 52.5548 567.907 52.5548 569.367 52.5548C567.907 51.0949 567.907 49.6351 566.447 49.6351C564.987 48.1752 564.987 48.1752 563.527 46.7153L562.067 45.2555C562.067 45.2555 560.608 45.2555 560.608 43.7956L559.148 42.3358C559.148 42.3358 559.148 42.3358 557.688 42.3358C556.228 42.3358 556.228 40.8759 556.228 40.8759C556.228 39.4161 557.688 39.4161 557.688 39.4161C560.608 39.4161 563.527 42.3358 564.987 43.7956C566.447 45.2555 569.367 48.1752 570.827 49.6351L572.287 51.0949V52.5548C569.367 54.0146 569.367 54.0146 569.367 52.5548Z" fill="#001C31"/>
<path d="M579.587 61.3139C581.047 61.3139 581.047 62.7738 582.506 62.7738C583.966 64.2336 585.426 65.6935 586.886 67.1533C586.886 68.6132 588.346 68.6132 588.346 70.073C588.346 71.5329 588.346 71.5329 586.886 71.5329C585.426 71.5329 585.426 71.5329 585.426 70.073C585.426 70.073 585.426 70.073 585.426 68.6132C585.426 68.6132 585.426 68.6132 583.966 67.1533C583.966 67.1533 583.966 67.1533 582.506 67.1533C582.506 67.1533 581.046 67.1533 581.046 65.6935C581.046 65.6935 581.047 65.6935 579.587 65.6935C579.587 65.6935 578.127 64.2336 579.587 64.2336C578.127 61.3139 579.587 61.3139 579.587 61.3139Z" fill="#001C31"/>
<path d="M589.806 7.29925C591.266 11.6788 592.726 16.0584 592.726 20.4379C592.726 27.7372 589.806 33.5766 583.966 36.4963C578.127 40.8759 569.367 42.3358 563.527 42.3358C560.608 42.3358 556.228 42.3358 553.308 42.3358C551.848 42.3358 550.388 42.3358 548.928 40.8759C544.549 39.416 541.629 36.4963 538.709 33.5766C537.249 32.1168 538.709 30.6569 540.169 30.6569C543.089 32.1168 546.009 35.0365 548.928 36.4963C550.388 37.9562 550.388 37.9562 551.848 37.9562C554.768 37.9562 557.688 39.416 559.148 39.416C566.447 39.416 573.747 39.416 579.587 36.4963C585.426 33.5766 588.346 29.1971 589.806 23.3576C589.806 18.9781 589.806 13.1387 586.886 8.75911C586.886 5.8394 588.346 4.37954 589.806 7.29925Z" fill="#015392"/>
<path d="M649.663 86.1314C649.663 90.511 646.743 94.8905 643.823 97.8102C640.903 100.73 636.523 102.19 632.144 103.65C626.304 105.109 620.464 103.65 616.085 103.65C614.625 103.65 611.705 102.19 610.245 100.73C608.785 99.2701 610.245 97.8102 611.705 99.2701C611.705 99.2701 611.705 99.2701 613.165 99.2701C614.625 99.2701 614.625 99.2701 616.085 100.73C619.004 102.19 623.384 102.19 629.224 102.19C633.603 102.19 637.983 100.73 640.903 97.8102C642.363 96.3504 645.283 93.4307 645.283 90.5109C645.283 89.0511 646.743 89.0511 646.743 87.5912C646.743 87.5912 646.743 87.5912 646.743 86.1314C646.743 84.6715 649.663 84.6715 649.663 86.1314Z" fill="#015392"/>
<path d="M572.287 68.6131C573.747 70.073 575.207 70.073 575.207 71.5329L576.667 72.9927C576.667 74.4526 575.207 74.4526 575.207 74.4526C573.747 74.4526 572.287 72.9927 572.287 72.9927L570.827 71.5329V70.073C570.827 67.1533 570.827 67.1533 572.287 68.6131Z" fill="#001C31"/>
<path d="M518.27 48.1752C518.27 51.0949 518.27 54.0146 516.81 56.9343C515.35 59.854 512.431 62.7738 510.971 65.6935C505.131 71.5329 497.831 77.3723 490.532 81.7519C486.152 84.6716 481.772 86.1314 477.393 89.0511C475.933 90.511 474.473 87.5913 475.933 86.1314C483.232 83.2117 490.532 77.3723 497.831 72.9927C500.751 70.073 503.671 68.6132 508.051 65.6935C509.511 62.7738 510.971 61.3139 512.43 58.3942C513.89 55.4745 513.89 52.5548 513.89 48.1752C513.89 46.7154 515.35 46.7154 518.27 48.1752C516.81 46.7154 516.81 46.7154 518.27 48.1752Z" fill="#7C4415"/>
<path d="M455.494 91.9708C456.954 90.511 458.414 89.0511 461.333 89.0511C465.713 87.5913 470.093 86.1314 475.933 86.1314C477.392 86.1314 477.392 89.0511 475.933 89.0511C471.553 89.0511 467.173 89.0511 462.793 91.9708C461.333 91.9708 459.874 93.4307 459.874 93.4307C456.954 94.8905 454.034 93.4307 455.494 91.9708Z" fill="#7C4415"/>
<path d="M562.068 77.3723C559.148 78.8321 554.768 78.8321 551.848 77.3723V75.9124H553.308H554.768H556.228H557.688C563.527 75.9124 563.527 77.3723 562.068 77.3723Z" fill="#7C4415"/>
<path d="M529.949 89.0511C525.57 81.7518 525.57 72.9927 527.03 64.2336C527.03 62.7737 529.949 62.7737 529.949 65.6934C528.49 71.5328 528.49 77.3723 529.949 81.7518C529.949 84.6715 531.409 86.1314 532.869 89.0511C534.329 90.5109 531.409 91.9708 529.949 89.0511Z" fill="#7C4415"/>
<path d="M595.646 91.9708C597.106 93.4306 597.106 93.4306 595.646 91.9708L597.106 93.4306C598.566 94.8905 600.026 94.8905 601.485 96.3504C605.865 97.8102 610.245 99.2701 614.625 99.2701C623.384 97.8102 632.144 89.0511 630.684 80.292C630.684 77.3723 627.764 74.4525 624.844 71.5328C621.924 70.073 619.004 68.6131 616.085 67.1533C613.165 65.6934 610.245 62.7737 608.785 59.854C605.865 55.4744 604.405 49.635 602.945 45.2555C601.485 40.8759 600.026 36.4963 597.106 32.1168C595.646 29.1971 592.726 27.7372 588.346 27.7372C586.886 27.7372 586.886 24.8175 588.346 24.8175C597.106 23.3577 601.485 33.5766 604.405 39.4161C605.865 45.2555 607.325 51.0949 610.245 55.4744C611.705 59.854 614.625 62.7737 617.544 64.2336C620.464 65.6934 623.384 67.1533 626.304 68.6131C629.224 70.073 632.144 74.4526 632.144 77.3723C636.523 89.0511 627.764 99.2701 619.004 102.19C610.245 105.109 601.485 100.73 594.186 94.8905C592.726 93.4306 595.646 91.9708 595.646 91.9708Z" fill="#015392"/>
<path d="M575.207 84.6715C576.667 84.6715 579.587 83.2117 581.047 83.2117C582.507 83.2117 582.507 81.7518 583.966 81.7518C585.426 81.7518 585.426 81.7518 586.886 81.7518C588.346 81.7518 589.806 81.7518 591.266 81.7518C592.726 81.7518 592.726 81.7518 594.186 83.2117C595.646 84.6715 591.266 89.0511 591.266 89.0511C589.806 90.511 586.886 90.511 585.426 91.9708C583.966 91.9708 581.047 93.4307 579.587 94.8905C578.127 94.8905 576.667 96.3504 576.667 97.8102C575.207 99.2701 573.747 100.73 572.287 102.19C570.827 103.65 569.367 105.109 567.907 105.109C566.447 106.569 563.528 106.569 562.068 106.569C560.608 106.569 560.608 106.569 559.148 108.029C543.089 113.869 528.49 118.248 512.431 122.628C505.131 124.088 497.831 125.547 491.992 127.007C487.612 128.467 483.232 128.467 477.393 128.467C471.553 128.467 465.713 128.467 459.874 127.007C454.034 125.547 448.194 122.628 443.815 118.248C442.355 116.788 442.355 115.328 440.895 115.328C439.435 113.869 442.355 112.409 443.815 113.869C442.355 116.788 446.734 119.708 452.574 121.168C458.414 122.628 464.253 124.088 470.093 124.088C480.312 124.088 490.532 121.168 500.751 119.708C518.27 115.328 534.329 110.949 550.388 105.109C553.308 103.65 556.228 103.65 559.148 102.19C560.608 102.19 563.528 100.73 564.988 99.2701C566.447 97.8102 567.907 96.3504 569.367 96.3504C572.287 93.4307 573.747 91.9708 576.667 90.511C578.127 89.0511 581.047 89.0511 582.507 87.5912C583.966 87.5912 586.886 86.1314 588.346 84.6715L589.806 83.2117V81.7518L591.266 83.2117H589.806C588.346 83.2117 586.886 83.2117 585.426 83.2117C582.506 83.2117 581.047 84.6715 578.127 86.1314H576.667C575.207 89.0511 573.747 86.1314 575.207 84.6715Z" fill="#7C4415"/>
<path d="M575.207 80.292C576.667 80.292 578.127 78.8321 579.586 78.8321C581.046 78.8321 583.966 77.3723 585.426 77.3723C588.346 77.3723 589.806 77.3723 592.726 77.3723C594.186 77.3723 594.186 77.3723 595.646 77.3723V78.8321C595.646 81.7518 592.726 83.2117 589.806 84.6715C588.346 84.6715 586.886 81.7518 588.346 81.7518C589.806 81.7518 589.806 81.7518 591.266 80.292H589.806C588.346 80.292 585.426 80.292 583.966 80.292C583.966 80.292 583.966 80.292 582.506 80.292C581.046 80.292 581.046 80.292 579.586 81.7518C578.127 81.7518 576.667 83.2117 575.207 83.2117C573.747 83.2117 572.287 80.292 575.207 80.292Z" fill="#7C4415"/>
<path d="M573.747 75.9124C576.667 74.4526 581.047 72.9927 583.966 72.9927C586.886 72.9927 588.346 72.9927 591.266 71.5329C592.726 71.5329 595.646 70.073 597.106 72.9927C597.106 74.4526 597.106 75.9124 595.646 75.9124C595.646 77.3723 594.186 78.8321 592.726 78.8321C591.266 78.8321 589.806 75.9124 591.266 75.9124C592.726 75.9124 592.726 74.4526 592.726 74.4526V72.9927C591.266 72.9927 588.346 72.9927 586.886 72.9927C585.426 72.9927 585.426 72.9927 583.966 72.9927C582.507 72.9927 582.507 72.9927 582.507 72.9927C581.047 72.9927 578.127 74.4526 576.667 74.4526C575.207 74.4526 573.747 75.9124 572.287 75.9124C572.287 78.8321 572.287 77.3723 573.747 75.9124Z" fill="#7C4415"/>
<path d="M592.726 71.5329C592.726 70.073 592.726 70.073 592.726 70.073C592.726 70.073 594.186 71.5329 592.726 71.5329C594.186 70.073 592.726 70.073 592.726 71.5329C589.806 70.073 586.886 71.5329 583.966 71.5329C582.507 72.9927 579.587 72.9927 576.667 72.9927C575.207 72.9927 575.207 72.9927 573.747 72.9927C569.367 74.4526 566.447 77.3723 563.528 80.292C559.148 83.2117 556.228 86.1314 551.848 89.0511C550.388 89.0511 550.388 90.511 548.928 90.511H547.469C544.549 90.511 541.629 90.511 538.709 90.511C528.49 90.511 518.27 90.511 508.051 89.0511C500.751 89.0511 494.912 89.0511 487.612 89.0511C486.152 89.0511 486.152 86.1314 487.612 86.1314C493.452 86.1314 499.291 86.1314 505.131 86.1314C515.35 86.1314 525.57 87.5913 537.249 87.5913C540.169 87.5913 544.549 87.5913 547.469 87.5913H548.928C548.928 87.5913 550.388 87.5913 550.388 86.1314C554.768 83.2117 557.688 80.292 562.068 77.3723C564.988 74.4526 569.367 71.5329 573.747 70.073C575.207 70.073 576.667 68.6132 578.127 68.6132C581.047 68.6132 583.966 67.1533 586.886 67.1533C589.806 67.1533 592.726 65.6935 595.646 65.6935C597.106 65.6935 600.025 64.2336 600.025 67.1533C600.025 68.6132 600.025 68.6132 600.025 70.073C595.646 74.4526 592.726 74.4526 592.726 71.5329Z" fill="#7C4415"/>
<path d="M583.966 91.9708C585.426 90.511 586.886 89.0511 589.806 87.5913C592.726 86.1314 595.646 83.2117 598.565 84.6716H600.025C600.025 84.6716 600.025 86.1314 601.485 86.1314C601.485 87.5913 601.485 89.0511 601.485 89.0511C600.025 90.511 598.565 91.9708 597.106 93.4307C594.186 96.3504 591.266 97.8102 588.346 100.73H586.886C586.886 99.2701 586.886 99.2701 586.886 99.2701C589.806 96.3504 594.186 94.8905 597.106 91.9708L598.565 90.511C598.565 90.511 598.565 90.511 598.565 89.0511C595.646 89.0511 592.726 90.511 591.266 91.9708C589.806 93.4307 588.346 94.8905 586.886 96.3504H585.426C582.506 93.4307 583.966 91.9708 583.966 91.9708Z" fill="#7C4415"/>
<path d="M592.726 83.2117C594.186 81.7518 595.646 80.292 597.106 78.8321C598.565 77.3723 600.025 77.3723 601.485 77.3723C602.945 77.3723 602.945 77.3723 604.405 78.8321C604.405 78.8321 604.405 80.292 604.405 81.7518C604.405 84.6715 602.945 86.1314 601.485 87.5912H600.025V86.1314C600.025 86.1314 600.025 86.1314 601.485 84.6715C601.485 84.6715 601.485 84.6715 601.485 83.2117C601.485 83.2117 600.025 83.2117 600.025 84.6715C600.025 84.6715 600.025 84.6715 598.565 84.6715L597.106 86.1314L595.646 87.5912H594.186C591.266 84.6715 591.266 83.2117 592.726 83.2117Z" fill="#7C4415"/>
<path d="M592.726 77.3723C594.186 75.9124 595.646 74.4525 597.106 72.9927C597.106 72.9927 598.565 71.5328 600.025 71.5328C601.485 71.5328 602.945 71.5328 604.405 72.9927C605.865 74.4525 604.405 77.3723 602.945 78.8321C602.945 78.8321 601.485 80.292 601.485 78.8321C601.485 78.8321 600.025 77.3723 601.485 77.3723C601.485 77.3723 601.485 77.3722 601.485 75.9124C600.025 77.3722 600.025 77.3723 600.025 78.8321C600.025 78.8321 598.565 80.292 598.565 78.8321C592.726 78.8321 591.266 78.8321 592.726 77.3723Z" fill="#7C4415"/>
</g>
<defs>
<clipPath id="clip0_1_3691">
<rect width="692" height="200" fill="white"/>
</clipPath>
</defs>
</svg>
