<svg width="262" height="236" viewBox="0 0 262 236" fill="none" xmlns="http://www.w3.org/2000/svg">
<g clip-path="url(#clip0_1_4454)">
<path d="M197.128 167.598C197.128 174.268 191.826 179.803 185.13 179.803H68.7785C62.2215 179.803 56.7806 174.41 56.7806 167.598V23.4154C56.7806 16.7455 62.082 11.2109 68.7785 11.2109H185.13C191.687 11.2109 197.128 16.6036 197.128 23.4154V167.598Z" fill="#061052"/>
<path d="M133.79 6.95361H121.095V185.195H133.79V6.95361Z" fill="#03082A"/>
<path d="M200.337 88.5532H49.3866V103.596H200.337V88.5532Z" fill="#03082A"/>
<path d="M157.786 25.2605C156.251 25.6862 154.717 26.3958 153.322 27.2473C161.832 26.8215 169.923 32.3561 172.574 41.1546C175.225 49.8113 171.597 59.0356 164.203 63.5768C165.738 63.4349 167.412 63.2929 168.947 62.7253C179.131 59.6032 184.851 48.676 181.782 38.3164C178.712 27.9568 167.97 22.1384 157.786 25.2605Z" fill="white"/>
<path d="M116.212 46.831C116.751 46.831 117.188 46.3863 117.188 45.8376C117.188 45.289 116.751 44.8442 116.212 44.8442C115.673 44.8442 115.235 45.289 115.235 45.8376C115.235 46.3863 115.673 46.831 116.212 46.831Z" fill="white"/>
<path d="M166.575 147.447C167.114 147.447 167.552 147.002 167.552 146.453C167.552 145.905 167.114 145.46 166.575 145.46C166.036 145.46 165.599 145.905 165.599 146.453C165.599 147.002 166.036 147.447 166.575 147.447Z" fill="white"/>
<path d="M90.6816 149.434C91.221 149.434 91.6582 148.989 91.6582 148.44C91.6582 147.892 91.221 147.447 90.6816 147.447C90.1423 147.447 89.7051 147.892 89.7051 148.44C89.7051 148.989 90.1423 149.434 90.6816 149.434Z" fill="white"/>
<path d="M67.2439 115.374C67.7833 115.374 68.2205 114.93 68.2205 114.381C68.2205 113.832 67.7833 113.388 67.2439 113.388C66.7046 113.388 66.2673 113.832 66.2673 114.381C66.2673 114.93 66.7046 115.374 67.2439 115.374Z" fill="white"/>
<path d="M177.457 119.064C177.996 119.064 178.433 118.619 178.433 118.071C178.433 117.522 177.996 117.077 177.457 117.077C176.918 117.077 176.48 117.522 176.48 118.071C176.48 118.619 176.918 119.064 177.457 119.064Z" fill="white"/>
<path d="M142.719 115.374C143.258 115.374 143.695 114.93 143.695 114.381C143.695 113.832 143.258 113.388 142.719 113.388C142.18 113.388 141.742 113.832 141.742 114.381C141.742 114.93 142.18 115.374 142.719 115.374Z" fill="white"/>
<path d="M161.274 167.031C161.813 167.031 162.25 166.586 162.25 166.037C162.25 165.489 161.813 165.044 161.274 165.044C160.734 165.044 160.297 165.489 160.297 166.037C160.297 166.586 160.734 167.031 161.274 167.031Z" fill="white"/>
<path d="M108.12 75.0715C108.66 75.0715 109.097 74.6267 109.097 74.0781C109.097 73.5295 108.66 73.0847 108.12 73.0847C107.581 73.0847 107.144 73.5295 107.144 74.0781C107.144 74.6267 107.581 75.0715 108.12 75.0715Z" fill="white"/>
<path d="M193.78 50.0949C194.319 50.0949 194.756 49.6502 194.756 49.1015C194.756 48.5529 194.319 48.1082 193.78 48.1082C193.24 48.1082 192.803 48.5529 192.803 49.1015C192.803 49.6502 193.24 50.0949 193.78 50.0949Z" fill="white"/>
<path d="M159.181 76.2067C159.72 76.2067 160.158 75.762 160.158 75.2134C160.158 74.6647 159.72 74.22 159.181 74.22C158.642 74.22 158.204 74.6647 158.204 75.2134C158.204 75.762 158.642 76.2067 159.181 76.2067Z" fill="white"/>
<path d="M98.4941 50.6626C99.0335 50.6626 99.4707 50.2178 99.4707 49.6692C99.4707 49.1205 99.0335 48.6758 98.4941 48.6758C97.9548 48.6758 97.5176 49.1205 97.5176 49.6692C97.5176 50.2178 97.9548 50.6626 98.4941 50.6626Z" fill="white"/>
<path d="M70.8712 59.603C71.4106 59.603 71.8478 59.1582 71.8478 58.6096C71.8478 58.061 71.4106 57.6162 70.8712 57.6162C70.3319 57.6162 69.8947 58.061 69.8947 58.6096C69.8947 59.1582 70.3319 59.603 70.8712 59.603Z" fill="white"/>
<path d="M77.9862 24.5507C78.5256 24.5507 78.9628 24.106 78.9628 23.5574C78.9628 23.0087 78.5256 22.564 77.9862 22.564C77.4469 22.564 77.0096 23.0087 77.0096 23.5574C77.0096 24.106 77.4469 24.5507 77.9862 24.5507Z" fill="white"/>
<path d="M95.8435 34.7684C96.614 34.7684 97.2386 34.1331 97.2386 33.3493C97.2386 32.5655 96.614 31.9302 95.8435 31.9302C95.073 31.9302 94.4484 32.5655 94.4484 33.3493C94.4484 34.1331 95.073 34.7684 95.8435 34.7684Z" fill="white"/>
<path d="M146.625 129.282C147.396 129.282 148.02 128.647 148.02 127.863C148.02 127.079 147.396 126.444 146.625 126.444C145.855 126.444 145.23 127.079 145.23 127.863C145.23 128.647 145.855 129.282 146.625 129.282Z" fill="white"/>
<path d="M73.5218 134.391C74.2923 134.391 74.9169 133.756 74.9169 132.972C74.9169 132.188 74.2923 131.553 73.5218 131.553C72.7513 131.553 72.1267 132.188 72.1267 132.972C72.1267 133.756 72.7513 134.391 73.5218 134.391Z" fill="white"/>
<path d="M68.639 38.6002C69.4095 38.6002 70.0341 37.9648 70.0341 37.1811C70.0341 36.3973 69.4095 35.762 68.639 35.762C67.8685 35.762 67.2439 36.3973 67.2439 37.1811C67.2439 37.9648 67.8685 38.6002 68.639 38.6002Z" fill="white"/>
<path d="M184.99 75.0716C185.761 75.0716 186.386 74.4363 186.386 73.6525C186.386 72.8688 185.761 72.2334 184.99 72.2334C184.22 72.2334 183.595 72.8688 183.595 73.6525C183.595 74.4363 184.22 75.0716 184.99 75.0716Z" fill="white"/>
<path d="M89.705 70.1046C90.4755 70.1046 91.1001 69.4692 91.1001 68.6855C91.1001 67.9017 90.4755 67.2664 89.705 67.2664C88.9345 67.2664 88.3099 67.9017 88.3099 68.6855C88.3099 69.4692 88.9345 70.1046 89.705 70.1046Z" fill="white"/>
<path d="M102.121 167.031C102.892 167.031 103.517 166.395 103.517 165.612C103.517 164.828 102.892 164.192 102.121 164.192C101.351 164.192 100.726 164.828 100.726 165.612C100.726 166.395 101.351 167.031 102.121 167.031Z" fill="white"/>
<path d="M100.866 129.282C101.636 129.282 102.261 128.647 102.261 127.863C102.261 127.079 101.636 126.444 100.866 126.444C100.095 126.444 99.4707 127.079 99.4707 127.863C99.4707 128.647 100.095 129.282 100.866 129.282Z" fill="white"/>
<path d="M147.881 164.618C148.651 164.618 149.276 163.983 149.276 163.199C149.276 162.415 148.651 161.78 147.881 161.78C147.11 161.78 146.486 162.415 146.486 163.199C146.486 163.983 147.11 164.618 147.881 164.618Z" fill="white"/>
<path d="M186.246 131.837C187.017 131.837 187.641 131.201 187.641 130.417C187.641 129.634 187.017 128.998 186.246 128.998C185.476 128.998 184.851 129.634 184.851 130.417C184.851 131.201 185.476 131.837 186.246 131.837Z" fill="white"/>
<path d="M72.2663 159.509C73.0368 159.509 73.6614 158.874 73.6614 158.09C73.6614 157.307 73.0368 156.671 72.2663 156.671C71.4958 156.671 70.8712 157.307 70.8712 158.09C70.8712 158.874 71.4958 159.509 72.2663 159.509Z" fill="white"/>
<path d="M72.2663 78.9032C73.0368 78.9032 73.6614 78.2678 73.6614 77.4841C73.6614 76.7003 73.0368 76.0649 72.2663 76.0649C71.4958 76.0649 70.8712 76.7003 70.8712 77.4841C70.8712 78.2678 71.4958 78.9032 72.2663 78.9032Z" fill="white"/>
<path d="M145.37 21.003C146.14 21.003 146.765 20.3677 146.765 19.5839C146.765 18.8002 146.14 18.1648 145.37 18.1648C144.599 18.1648 143.974 18.8002 143.974 19.5839C143.974 20.3677 144.599 21.003 145.37 21.003Z" fill="white"/>
<path d="M142.858 54.92C143.629 54.92 144.253 54.2847 144.253 53.5009C144.253 52.7171 143.629 52.0818 142.858 52.0818C142.088 52.0818 141.463 52.7171 141.463 53.5009C141.463 54.2847 142.088 54.92 142.858 54.92Z" fill="white"/>
<path opacity="0.32" d="M10.3238 0.141846C-5.30133 29.8015 28.1811 97.7774 7.81262 218.829C5.71997 231.175 22.8797 236.426 34.5986 236C46.0384 235.574 57.0597 229.33 68.36 228.904C80.4974 228.479 94.1694 234.155 106.586 235.29C107.981 235.432 109.376 235.432 110.911 235.574C55.5251 97.7774 126.815 128.43 121.653 2.41244C64.3142 1.27714 10.3238 0.141846 10.3238 0.141846Z" fill="#6886E0"/>
<path opacity="0.34" d="M106.446 235.29C107.841 235.432 109.236 235.432 110.771 235.574C110.492 235.006 110.353 234.581 110.213 234.013C101.145 231.317 91.3792 228.762 88.589 222.518C87.0544 218.97 85.1012 215.564 83.2876 212.159C79.7998 205.631 76.5911 198.961 73.3824 192.291C71.4292 200.238 71.0107 208.611 71.9873 216.842C67.1044 217.693 62.3611 214.003 60.1289 209.604C57.8968 205.063 57.7572 199.954 57.4782 194.845C56.7807 176.397 56.2226 157.948 55.5251 139.5C55.2461 132.404 54.967 125.166 52.3164 118.638C48.6891 147.447 47.4335 176.68 48.4101 205.631C48.5496 210.03 48.6891 214.855 46.3174 218.545C43.9457 222.376 38.2258 224.221 35.1566 220.957C37.2493 204.921 39.2024 188.175 33.7615 172.991C33.622 178.951 33.343 185.053 30.9713 190.588C28.5996 195.981 23.4378 200.664 17.5783 200.664C25.3909 171.288 28.0416 140.493 25.3909 110.266C24.5538 100.048 23.0192 89.8302 19.8105 80.0383C17.9969 74.5037 15.6252 68.9691 14.2301 63.2927C12.9745 57.4743 12.556 51.372 12.1374 45.4117C11.1609 30.7948 10.6028 16.0359 10.4633 1.41895C9.34723 3.97336 8.23115 6.52778 7.25458 9.0822C0.279074 42.5735 26.507 108.705 7.81262 218.828C5.71997 231.175 22.8797 236.426 34.5986 236C46.0384 235.574 57.0597 229.33 68.36 228.904C80.3579 228.478 94.0299 234.155 106.446 235.29Z" fill="#6886E0"/>
<path opacity="0.32" d="M251.816 5.25078C251.816 5.25078 185.269 3.83165 121.513 2.55444C120.537 152.556 158.204 170.011 141.045 235.574C155.693 234.439 170.342 232.026 184.432 228.053C195.035 225.073 207.87 220.39 219.031 223.796C227.541 226.492 237.446 240.115 247.212 234.013C256.001 228.479 252.792 213.862 250.142 206.198C210.66 95.5069 252.653 130.559 251.816 5.25078Z" fill="#6886E0"/>
<path opacity="0.34" d="M254.187 206.057C253.211 203.36 252.374 200.806 251.537 198.251C251.258 197.542 250.979 196.832 250.839 196.123C250.56 195.413 250.421 194.704 250.142 193.994C249.863 193.143 249.584 192.291 249.305 191.44C249.026 190.73 248.886 190.162 248.747 189.595C248.467 188.743 248.188 187.892 247.909 187.04C247.77 186.331 247.491 185.763 247.351 185.196C247.072 184.344 246.793 183.635 246.654 182.783C246.375 182.073 246.235 181.364 246.096 180.654C245.956 179.945 245.677 179.235 245.538 178.668C245.398 178.1 245.119 177.39 244.98 176.823C244.84 176.113 244.561 175.404 244.422 174.694C244.282 174.126 244.143 173.417 243.864 172.849C243.724 172.14 243.445 171.572 243.306 170.862C243.166 170.295 243.027 169.727 242.887 169.159C242.748 168.592 242.608 167.882 242.329 167.315C242.19 166.747 242.05 166.179 241.911 165.754C241.771 165.186 241.632 164.476 241.492 163.909C241.352 163.341 241.213 162.915 241.213 162.49C241.073 161.922 240.934 161.212 240.794 160.645C240.655 160.219 240.655 159.793 240.515 159.368C240.376 158.8 240.236 158.09 240.097 157.523C239.957 157.097 239.957 156.671 239.818 156.245C239.678 155.678 239.539 155.11 239.539 154.542C239.399 154.117 239.399 153.691 239.399 153.265C239.26 152.698 239.26 152.13 239.12 151.562C239.12 151.137 238.981 150.853 238.981 150.427C238.841 149.859 238.841 149.292 238.702 148.724C238.702 148.44 238.562 148.015 238.562 147.731C238.423 147.163 238.423 146.595 238.283 146.028C238.283 145.744 238.283 145.46 238.144 145.176C238.144 144.609 238.004 144.041 238.004 143.473C238.004 143.19 238.004 142.906 238.004 142.622C238.004 142.054 237.865 141.487 237.865 140.919C237.865 140.635 237.865 140.493 237.865 140.209C237.865 139.642 237.725 139.074 237.725 138.365C237.725 138.223 237.725 137.939 237.725 137.797C237.725 137.229 237.725 136.52 237.725 135.952C237.725 135.81 237.725 135.668 237.725 135.526C237.725 134.959 237.725 134.249 237.725 133.681C237.725 133.539 237.725 133.539 237.725 133.398C237.725 132.688 237.725 132.12 237.725 131.411V131.269C237.725 130.559 237.725 129.992 237.865 129.282C239.818 100.332 256.699 85.857 256.42 6.8119C256.001 6.66999 255.583 6.52808 255.024 6.52808C255.722 17.5972 256.42 26.8215 253.49 38.1745C247.351 61.0224 238.702 83.3026 233.679 106.434C227.262 136.236 229.913 162.348 242.887 189.453C246.375 196.69 256.42 224.505 239.26 222.802C233.4 222.235 230.331 215.565 228.657 209.746C220.286 179.803 220.565 147.163 218.054 116.226C217.915 114.949 217.775 113.53 216.659 112.82C215.543 112.111 214.008 112.82 213.171 113.814C212.334 114.949 212.195 116.226 212.055 117.645C209.684 135.952 208.986 154.542 209.963 172.991C210.521 181.79 216.938 207.05 207.033 212.585C194.198 219.68 198.104 196.407 193.501 192.859C188.757 189.311 181.224 194.562 178.154 198.11C172.434 204.637 168.389 211.733 161.413 217.126C156.949 220.674 151.787 223.654 147.323 227.485C146.765 230.182 146.067 233.02 145.37 235.858C150.252 235.291 156.53 234.439 156.251 234.723C158.762 234.439 161.134 234.013 163.645 233.729C164.203 233.588 164.761 233.588 165.459 233.446C167.831 233.02 170.342 232.594 172.714 232.168C175.085 231.743 177.596 231.175 179.968 230.607C180.526 230.466 181.084 230.324 181.782 230.182C184.153 229.614 186.525 229.046 188.897 228.337C199.499 225.357 212.334 220.674 223.495 224.079C232.005 226.776 241.911 240.399 251.676 234.297C260.186 228.479 256.978 213.72 254.187 206.057Z" fill="#6886E0"/>
<path d="M258.512 10.3596L3.34824 6.95368C1.53461 6.95368 0 5.39265 0 3.40588C0 1.56102 1.53461 -0.141926 3.48775 -1.39726e-05L258.652 3.40588C260.465 3.40588 262 4.96691 262 6.95368C262 8.79854 260.465 10.3596 258.512 10.3596Z" fill="white"/>
<path d="M258.652 3.40601H257.815C257.815 3.54792 257.815 3.68983 257.815 3.68983C257.815 5.81851 256.28 7.66337 254.466 7.66337L0 3.68983C0.13951 5.39278 1.53461 6.8119 3.34824 6.8119L258.512 10.2178C260.326 10.2178 261.861 8.65676 261.861 6.8119C262 5.10895 260.465 3.54792 258.652 3.40601Z" fill="#C4C4C4"/>
</g>
<defs>
<clipPath id="clip0_1_4454">
<rect width="262" height="236" fill="white"/>
</clipPath>
</defs>
</svg>
