<svg width="41" height="40" viewBox="0 0 41 40" fill="none" xmlns="http://www.w3.org/2000/svg">
<rect x="0.500977" width="40" height="40" rx="20" fill="url(#paint0_linear_1_3812)"/>
<path d="M24.1082 21.3855L22.3494 23.1782C21.6361 23.9053 20.3812 23.921 19.6526 23.1782L17.8937 21.3855L11.5767 27.8236C11.8118 27.9341 12.0711 28 12.3467 28H29.6553C29.9309 28 30.1901 27.9342 30.4251 27.8237L24.1082 21.3855Z" fill="white"/>
<path d="M29.6553 13H12.3467C12.0711 13 11.8118 13.0659 11.5767 13.1764L18.327 20.0565C18.3274 20.057 18.3279 20.057 18.3284 20.0575C18.3288 20.058 18.3289 20.0586 18.3289 20.0586L20.5238 22.2957C20.7569 22.5325 21.2451 22.5325 21.4782 22.2957L23.6727 20.059C23.6727 20.059 23.6732 20.058 23.6736 20.0575C23.6736 20.0575 23.6746 20.057 23.6751 20.0565L30.4251 13.1763C30.1901 13.0658 29.9309 13 29.6553 13Z" fill="white"/>
<path d="M10.6973 14.0505C10.5756 14.3004 10.501 14.5778 10.501 14.875V26.125C10.501 26.4222 10.5755 26.6996 10.6972 26.9495L17.0252 20.5002L10.6973 14.0505Z" fill="white"/>
<path d="M31.3047 14.0504L24.9767 20.5002L31.3047 26.9496C31.4263 26.6997 31.501 26.4223 31.501 26.125V14.875C31.501 14.5778 31.4263 14.3003 31.3047 14.0504Z" fill="white"/>
<defs>
<linearGradient id="paint0_linear_1_3812" x1="15.3245" y1="35.3333" x2="29.3502" y2="33.9313" gradientUnits="userSpaceOnUse">
<stop stop-color="#325BC1"/>
<stop offset="1" stop-color="#4F76F6"/>
</linearGradient>
</defs>
</svg>
