<svg width="41" height="40" viewBox="0 0 41 40" fill="none" xmlns="http://www.w3.org/2000/svg">
<rect x="0.500977" width="40" height="40" rx="20" fill="url(#paint0_linear_1_3812)"/>
<path d="M31.101 14.9C30.401 15.2 29.601 15.4 28.801 15.5C29.601 15 30.301 14.2 30.601 13.3C29.801 13.8 29.001 14.1 28.001 14.3C27.301 13.5 26.201 13 25.101 13C22.901 13 21.101 14.8 21.101 17C21.101 17.3 21.101 17.6 21.201 17.9C17.901 17.7 14.901 16.1 12.901 13.7C12.601 14.3 12.401 15 12.401 15.7C12.401 17.1 13.101 18.3 14.201 19C13.501 19 12.901 18.8 12.401 18.5C12.401 20.4 13.801 22.1 15.601 22.4C15.301 22.5 14.901 22.5 14.501 22.5C14.201 22.5 14.001 22.5 13.701 22.4C14.201 24 15.701 25.2 17.501 25.2C16.101 26.3 14.401 26.9 12.501 26.9C12.201 26.9 11.901 26.9 11.501 26.8C13.301 27.9 15.401 28.6 17.701 28.6C25.101 28.6 29.101 22.5 29.101 17.2V16.7C29.901 16.4 30.601 15.7 31.101 14.9Z" fill="white"/>
<defs>
<linearGradient id="paint0_linear_1_3812" x1="15.3245" y1="35.3333" x2="29.3502" y2="33.9313" gradientUnits="userSpaceOnUse">
<stop stop-color="#325BC1"/>
<stop offset="1" stop-color="#4F76F6"/>
</linearGradient>
</defs>
</svg>
